<?xml version="1.0" encoding="utf-8" standalone="no"?>
<!DOCTYPE svg PUBLIC "-//W3C//DTD SVG 1.1//EN"
  "http://www.w3.org/Graphics/SVG/1.1/DTD/svg11.dtd">
<svg xmlns:xlink="http://www.w3.org/1999/xlink" width="554.399442pt" height="266.4pt" viewBox="0 0 554.399442 266.4" xmlns="http://www.w3.org/2000/svg" version="1.1">
 <metadata>
  <rdf:RDF xmlns:dc="http://purl.org/dc/elements/1.1/" xmlns:cc="http://creativecommons.org/ns#" xmlns:rdf="http://www.w3.org/1999/02/22-rdf-syntax-ns#">
   <cc:Work>
    <dc:type rdf:resource="http://purl.org/dc/dcmitype/StillImage"/>
    <dc:date>2023-01-18T22:16:15.663064</dc:date>
    <dc:format>image/svg+xml</dc:format>
    <dc:creator>
     <cc:Agent>
      <dc:title>Matplotlib v3.5.3, https://matplotlib.org/</dc:title>
     </cc:Agent>
    </dc:creator>
   </cc:Work>
  </rdf:RDF>
 </metadata>
 <defs>
  <style type="text/css">*{stroke-linejoin: round; stroke-linecap: butt}</style>
 </defs>
 <g id="figure_1">
  <g id="patch_1">
   <path d="M 0 266.4 
L 554.399442 266.4 
L 554.399442 0 
L 0 0 
L 0 266.4 
z
" style="fill: none"/>
  </g>
  <g id="axes_1">
   <g id="patch_2">
    <path d="M 0 236.04375 
L 546.161647 236.04375 
L 546.161647 15.118125 
L 0 15.118125 
L 0 236.04375 
z
" style="fill: none"/>
   </g>
   <g id="patch_3">
    <path d="M 24.825529 236.04375 
L 26.187189 236.04375 
L 26.187189 25.638393 
L 24.825529 25.638393 
z
" clip-path="url(#p14366e4bd7)" style="fill: #02000a"/>
   </g>
   <g id="patch_4">
    <path d="M 26.063402 236.04375 
L 27.425061 236.04375 
L 27.425061 25.638393 
L 26.063402 25.638393 
z
" clip-path="url(#p14366e4bd7)" style="fill: #02000b"/>
   </g>
   <g id="patch_5">
    <path d="M 27.301274 236.04375 
L 28.662934 236.04375 
L 28.662934 25.638393 
L 27.301274 25.638393 
z
" clip-path="url(#p14366e4bd7)" style="fill: #02000c"/>
   </g>
   <g id="patch_6">
    <path d="M 28.539146 236.04375 
L 29.900806 236.04375 
L 29.900806 25.638393 
L 28.539146 25.638393 
z
" clip-path="url(#p14366e4bd7)" style="fill: #02000d"/>
   </g>
   <g id="patch_7">
    <path d="M 29.777019 236.04375 
L 31.138678 236.04375 
L 31.138678 25.638393 
L 29.777019 25.638393 
z
" clip-path="url(#p14366e4bd7)" style="fill: #02000f"/>
   </g>
   <g id="patch_8">
    <path d="M 31.014891 236.04375 
L 32.376551 236.04375 
L 32.376551 25.638393 
L 31.014891 25.638393 
z
" clip-path="url(#p14366e4bd7)" style="fill: #030010"/>
   </g>
   <g id="patch_9">
    <path d="M 32.252763 236.04375 
L 33.614423 236.04375 
L 33.614423 25.638393 
L 32.252763 25.638393 
z
" clip-path="url(#p14366e4bd7)" style="fill: #030012"/>
   </g>
   <g id="patch_10">
    <path d="M 33.490636 236.04375 
L 34.852295 236.04375 
L 34.852295 25.638393 
L 33.490636 25.638393 
z
" clip-path="url(#p14366e4bd7)" style="fill: #040013"/>
   </g>
   <g id="patch_11">
    <path d="M 34.728508 236.04375 
L 36.090168 236.04375 
L 36.090168 25.638393 
L 34.728508 25.638393 
z
" clip-path="url(#p14366e4bd7)" style="fill: #040015"/>
   </g>
   <g id="patch_12">
    <path d="M 35.96638 236.04375 
L 37.32804 236.04375 
L 37.32804 25.638393 
L 35.96638 25.638393 
z
" clip-path="url(#p14366e4bd7)" style="fill: #050017"/>
   </g>
   <g id="patch_13">
    <path d="M 37.204253 236.04375 
L 38.565912 236.04375 
L 38.565912 25.638393 
L 37.204253 25.638393 
z
" clip-path="url(#p14366e4bd7)" style="fill: #050019"/>
   </g>
   <g id="patch_14">
    <path d="M 38.442125 236.04375 
L 39.803785 236.04375 
L 39.803785 25.638393 
L 38.442125 25.638393 
z
" clip-path="url(#p14366e4bd7)" style="fill: #06001b"/>
   </g>
   <g id="patch_15">
    <path d="M 39.679997 236.04375 
L 41.041657 236.04375 
L 41.041657 25.638393 
L 39.679997 25.638393 
z
" clip-path="url(#p14366e4bd7)" style="fill: #06001d"/>
   </g>
   <g id="patch_16">
    <path d="M 40.91787 236.04375 
L 42.279529 236.04375 
L 42.279529 25.638393 
L 40.91787 25.638393 
z
" clip-path="url(#p14366e4bd7)" style="fill: #07001f"/>
   </g>
   <g id="patch_17">
    <path d="M 42.155742 236.04375 
L 43.517402 236.04375 
L 43.517402 25.638393 
L 42.155742 25.638393 
z
" clip-path="url(#p14366e4bd7)" style="fill: #080022"/>
   </g>
   <g id="patch_18">
    <path d="M 43.393614 236.04375 
L 44.755274 236.04375 
L 44.755274 25.638393 
L 43.393614 25.638393 
z
" clip-path="url(#p14366e4bd7)" style="fill: #090024"/>
   </g>
   <g id="patch_19">
    <path d="M 44.631487 236.04375 
L 45.993146 236.04375 
L 45.993146 25.638393 
L 44.631487 25.638393 
z
" clip-path="url(#p14366e4bd7)" style="fill: #0b0027"/>
   </g>
   <g id="patch_20">
    <path d="M 45.869359 236.04375 
L 47.231018 236.04375 
L 47.231018 25.638393 
L 45.869359 25.638393 
z
" clip-path="url(#p14366e4bd7)" style="fill: #0c002a"/>
   </g>
   <g id="patch_21">
    <path d="M 47.107231 236.04375 
L 48.468891 236.04375 
L 48.468891 25.638393 
L 47.107231 25.638393 
z
" clip-path="url(#p14366e4bd7)" style="fill: #0d002d"/>
   </g>
   <g id="patch_22">
    <path d="M 48.345104 236.04375 
L 49.706763 236.04375 
L 49.706763 25.638393 
L 48.345104 25.638393 
z
" clip-path="url(#p14366e4bd7)" style="fill: #0f0030"/>
   </g>
   <g id="patch_23">
    <path d="M 49.582976 236.04375 
L 50.944635 236.04375 
L 50.944635 25.638393 
L 49.582976 25.638393 
z
" clip-path="url(#p14366e4bd7)" style="fill: #100033"/>
   </g>
   <g id="patch_24">
    <path d="M 50.820848 236.04375 
L 52.182508 236.04375 
L 52.182508 25.638393 
L 50.820848 25.638393 
z
" clip-path="url(#p14366e4bd7)" style="fill: #110036"/>
   </g>
   <g id="patch_25">
    <path d="M 52.058721 236.04375 
L 53.42038 236.04375 
L 53.42038 25.638393 
L 52.058721 25.638393 
z
" clip-path="url(#p14366e4bd7)" style="fill: #120038"/>
   </g>
   <g id="patch_26">
    <path d="M 53.296593 236.04375 
L 54.658252 236.04375 
L 54.658252 25.638393 
L 53.296593 25.638393 
z
" clip-path="url(#p14366e4bd7)" style="fill: #14003b"/>
   </g>
   <g id="patch_27">
    <path d="M 54.534465 236.04375 
L 55.896125 236.04375 
L 55.896125 25.638393 
L 54.534465 25.638393 
z
" clip-path="url(#p14366e4bd7)" style="fill: #15003e"/>
   </g>
   <g id="patch_28">
    <path d="M 55.772337 236.04375 
L 57.133997 236.04375 
L 57.133997 25.638393 
L 55.772337 25.638393 
z
" clip-path="url(#p14366e4bd7)" style="fill: #170042"/>
   </g>
   <g id="patch_29">
    <path d="M 57.01021 236.04375 
L 58.371869 236.04375 
L 58.371869 25.638393 
L 57.01021 25.638393 
z
" clip-path="url(#p14366e4bd7)" style="fill: #190046"/>
   </g>
   <g id="patch_30">
    <path d="M 58.248082 236.04375 
L 59.609742 236.04375 
L 59.609742 25.638393 
L 58.248082 25.638393 
z
" clip-path="url(#p14366e4bd7)" style="fill: #1b004b"/>
   </g>
   <g id="patch_31">
    <path d="M 59.485954 236.04375 
L 60.847614 236.04375 
L 60.847614 25.638393 
L 59.485954 25.638393 
z
" clip-path="url(#p14366e4bd7)" style="fill: #1d0050"/>
   </g>
   <g id="patch_32">
    <path d="M 60.723827 236.04375 
L 62.085486 236.04375 
L 62.085486 25.638393 
L 60.723827 25.638393 
z
" clip-path="url(#p14366e4bd7)" style="fill: #1f0055"/>
   </g>
   <g id="patch_33">
    <path d="M 61.961699 236.04375 
L 63.323359 236.04375 
L 63.323359 25.638393 
L 61.961699 25.638393 
z
" clip-path="url(#p14366e4bd7)" style="fill: #22005a"/>
   </g>
   <g id="patch_34">
    <path d="M 63.199571 236.04375 
L 64.561231 236.04375 
L 64.561231 25.638393 
L 63.199571 25.638393 
z
" clip-path="url(#p14366e4bd7)" style="fill: #24005f"/>
   </g>
   <g id="patch_35">
    <path d="M 64.437444 236.04375 
L 65.799103 236.04375 
L 65.799103 25.638393 
L 64.437444 25.638393 
z
" clip-path="url(#p14366e4bd7)" style="fill: #260065"/>
   </g>
   <g id="patch_36">
    <path d="M 65.675316 236.04375 
L 67.036976 236.04375 
L 67.036976 25.638393 
L 65.675316 25.638393 
z
" clip-path="url(#p14366e4bd7)" style="fill: #29006a"/>
   </g>
   <g id="patch_37">
    <path d="M 66.913188 236.04375 
L 68.274848 236.04375 
L 68.274848 25.638393 
L 66.913188 25.638393 
z
" clip-path="url(#p14366e4bd7)" style="fill: #2c0070"/>
   </g>
   <g id="patch_38">
    <path d="M 68.151061 236.04375 
L 69.51272 236.04375 
L 69.51272 25.638393 
L 68.151061 25.638393 
z
" clip-path="url(#p14366e4bd7)" style="fill: #2e0076"/>
   </g>
   <g id="patch_39">
    <path d="M 69.388933 236.04375 
L 70.750593 236.04375 
L 70.750593 25.638393 
L 69.388933 25.638393 
z
" clip-path="url(#p14366e4bd7)" style="fill: #31007d"/>
   </g>
   <g id="patch_40">
    <path d="M 70.626805 236.04375 
L 71.988465 236.04375 
L 71.988465 25.638393 
L 70.626805 25.638393 
z
" clip-path="url(#p14366e4bd7)" style="fill: #340084"/>
   </g>
   <g id="patch_41">
    <path d="M 71.864678 236.04375 
L 73.226337 236.04375 
L 73.226337 25.638393 
L 71.864678 25.638393 
z
" clip-path="url(#p14366e4bd7)" style="fill: #37008a"/>
   </g>
   <g id="patch_42">
    <path d="M 73.10255 236.04375 
L 74.46421 236.04375 
L 74.46421 25.638393 
L 73.10255 25.638393 
z
" clip-path="url(#p14366e4bd7)" style="fill: #3a0091"/>
   </g>
   <g id="patch_43">
    <path d="M 74.340422 236.04375 
L 75.702082 236.04375 
L 75.702082 25.638393 
L 74.340422 25.638393 
z
" clip-path="url(#p14366e4bd7)" style="fill: #3d0099"/>
   </g>
   <g id="patch_44">
    <path d="M 75.578295 236.04375 
L 76.939954 236.04375 
L 76.939954 25.638393 
L 75.578295 25.638393 
z
" clip-path="url(#p14366e4bd7)" style="fill: #4100a0"/>
   </g>
   <g id="patch_45">
    <path d="M 76.816167 236.04375 
L 78.177827 236.04375 
L 78.177827 25.638393 
L 76.816167 25.638393 
z
" clip-path="url(#p14366e4bd7)" style="fill: #4400a8"/>
   </g>
   <g id="patch_46">
    <path d="M 78.054039 236.04375 
L 79.415699 236.04375 
L 79.415699 25.638393 
L 78.054039 25.638393 
z
" clip-path="url(#p14366e4bd7)" style="fill: #4700b0"/>
   </g>
   <g id="patch_47">
    <path d="M 79.291912 236.04375 
L 80.653571 236.04375 
L 80.653571 25.638393 
L 79.291912 25.638393 
z
" clip-path="url(#p14366e4bd7)" style="fill: #4a00b7"/>
   </g>
   <g id="patch_48">
    <path d="M 80.529784 236.04375 
L 81.891444 236.04375 
L 81.891444 25.638393 
L 80.529784 25.638393 
z
" clip-path="url(#p14366e4bd7)" style="fill: #4d00bd"/>
   </g>
   <g id="patch_49">
    <path d="M 81.767656 236.04375 
L 83.129316 236.04375 
L 83.129316 25.638393 
L 81.767656 25.638393 
z
" clip-path="url(#p14366e4bd7)" style="fill: #4f00c3"/>
   </g>
   <g id="patch_50">
    <path d="M 83.005529 236.04375 
L 84.367188 236.04375 
L 84.367188 25.638393 
L 83.005529 25.638393 
z
" clip-path="url(#p14366e4bd7)" style="fill: #5100c9"/>
   </g>
   <g id="patch_51">
    <path d="M 84.243401 236.04375 
L 85.60506 236.04375 
L 85.60506 25.638393 
L 84.243401 25.638393 
z
" clip-path="url(#p14366e4bd7)" style="fill: #5300ce"/>
   </g>
   <g id="patch_52">
    <path d="M 85.481273 236.04375 
L 86.842933 236.04375 
L 86.842933 25.638393 
L 85.481273 25.638393 
z
" clip-path="url(#p14366e4bd7)" style="fill: #5500d3"/>
   </g>
   <g id="patch_53">
    <path d="M 86.719146 236.04375 
L 88.080805 236.04375 
L 88.080805 25.638393 
L 86.719146 25.638393 
z
" clip-path="url(#p14366e4bd7)" style="fill: #5600d7"/>
   </g>
   <g id="patch_54">
    <path d="M 87.957018 236.04375 
L 89.318677 236.04375 
L 89.318677 25.638393 
L 87.957018 25.638393 
z
" clip-path="url(#p14366e4bd7)" style="fill: #5700db"/>
   </g>
   <g id="patch_55">
    <path d="M 89.19489 236.04375 
L 90.55655 236.04375 
L 90.55655 25.638393 
L 89.19489 25.638393 
z
" clip-path="url(#p14366e4bd7)" style="fill: #5800df"/>
   </g>
   <g id="patch_56">
    <path d="M 90.432763 236.04375 
L 91.794422 236.04375 
L 91.794422 25.638393 
L 90.432763 25.638393 
z
" clip-path="url(#p14366e4bd7)" style="fill: #5900e2"/>
   </g>
   <g id="patch_57">
    <path d="M 91.670635 236.04375 
L 93.032294 236.04375 
L 93.032294 25.638393 
L 91.670635 25.638393 
z
" clip-path="url(#p14366e4bd7)" style="fill: #5900e4"/>
   </g>
   <g id="patch_58">
    <path d="M 92.908507 236.04375 
L 94.270167 236.04375 
L 94.270167 25.638393 
L 92.908507 25.638393 
z
" clip-path="url(#p14366e4bd7)" style="fill: #5a00e7"/>
   </g>
   <g id="patch_59">
    <path d="M 94.146379 236.04375 
L 95.508039 236.04375 
L 95.508039 25.638393 
L 94.146379 25.638393 
z
" clip-path="url(#p14366e4bd7)" style="fill: #5a00e9"/>
   </g>
   <g id="patch_60">
    <path d="M 95.384252 236.04375 
L 96.745911 236.04375 
L 96.745911 25.638393 
L 95.384252 25.638393 
z
" clip-path="url(#p14366e4bd7)" style="fill: #5a00eb"/>
   </g>
   <g id="patch_61">
    <path d="M 96.622124 236.04375 
L 97.983784 236.04375 
L 97.983784 25.638393 
L 96.622124 25.638393 
z
" clip-path="url(#p14366e4bd7)" style="fill: #5900ec"/>
   </g>
   <g id="patch_62">
    <path d="M 97.859996 236.04375 
L 99.221656 236.04375 
L 99.221656 25.638393 
L 97.859996 25.638393 
z
" clip-path="url(#p14366e4bd7)" style="fill: #5900ed"/>
   </g>
   <g id="patch_63">
    <path d="M 99.097869 236.04375 
L 100.459528 236.04375 
L 100.459528 25.638393 
L 99.097869 25.638393 
z
" clip-path="url(#p14366e4bd7)" style="fill: #5800ee"/>
   </g>
   <g id="patch_64">
    <path d="M 100.335741 236.04375 
L 101.697401 236.04375 
L 101.697401 25.638393 
L 100.335741 25.638393 
z
" clip-path="url(#p14366e4bd7)" style="fill: #5800ef"/>
   </g>
   <g id="patch_65">
    <path d="M 101.573613 236.04375 
L 102.935273 236.04375 
L 102.935273 25.638393 
L 101.573613 25.638393 
z
" clip-path="url(#p14366e4bd7)" style="fill: #5700f0"/>
   </g>
   <g id="patch_66">
    <path d="M 102.811486 236.04375 
L 104.173145 236.04375 
L 104.173145 25.638393 
L 102.811486 25.638393 
z
" clip-path="url(#p14366e4bd7)" style="fill: #5600f0"/>
   </g>
   <g id="patch_67">
    <path d="M 104.049358 236.04375 
L 105.411018 236.04375 
L 105.411018 25.638393 
L 104.049358 25.638393 
z
" clip-path="url(#p14366e4bd7)" style="fill: #5400f0"/>
   </g>
   <g id="patch_68">
    <path d="M 105.28723 236.04375 
L 106.64889 236.04375 
L 106.64889 25.638393 
L 105.28723 25.638393 
z
" clip-path="url(#p14366e4bd7)" style="fill: #5300f0"/>
   </g>
   <g id="patch_69">
    <path d="M 106.525103 236.04375 
L 107.886762 236.04375 
L 107.886762 25.638393 
L 106.525103 25.638393 
z
" clip-path="url(#p14366e4bd7)" style="fill: #5100f0"/>
   </g>
   <g id="patch_70">
    <path d="M 107.762975 236.04375 
L 109.124635 236.04375 
L 109.124635 25.638393 
L 107.762975 25.638393 
z
" clip-path="url(#p14366e4bd7)" style="fill: #4f00f0"/>
   </g>
   <g id="patch_71">
    <path d="M 109.000847 236.04375 
L 110.362507 236.04375 
L 110.362507 25.638393 
L 109.000847 25.638393 
z
" clip-path="url(#p14366e4bd7)" style="fill: #4d00f0"/>
   </g>
   <g id="patch_72">
    <path d="M 110.23872 236.04375 
L 111.600379 236.04375 
L 111.600379 25.638393 
L 110.23872 25.638393 
z
" clip-path="url(#p14366e4bd7)" style="fill: #4b00f0"/>
   </g>
   <g id="patch_73">
    <path d="M 111.476592 236.04375 
L 112.838252 236.04375 
L 112.838252 25.638393 
L 111.476592 25.638393 
z
" clip-path="url(#p14366e4bd7)" style="fill: #4900f0"/>
   </g>
   <g id="patch_74">
    <path d="M 112.714464 236.04375 
L 114.076124 236.04375 
L 114.076124 25.638393 
L 112.714464 25.638393 
z
" clip-path="url(#p14366e4bd7)" style="fill: #4600ef"/>
   </g>
   <g id="patch_75">
    <path d="M 113.952337 236.04375 
L 115.313996 236.04375 
L 115.313996 25.638393 
L 113.952337 25.638393 
z
" clip-path="url(#p14366e4bd7)" style="fill: #4400ef"/>
   </g>
   <g id="patch_76">
    <path d="M 115.190209 236.04375 
L 116.551869 236.04375 
L 116.551869 25.638393 
L 115.190209 25.638393 
z
" clip-path="url(#p14366e4bd7)" style="fill: #4000ef"/>
   </g>
   <g id="patch_77">
    <path d="M 116.428081 236.04375 
L 117.789741 236.04375 
L 117.789741 25.638393 
L 116.428081 25.638393 
z
" clip-path="url(#p14366e4bd7)" style="fill: #3d00ee"/>
   </g>
   <g id="patch_78">
    <path d="M 117.665954 236.04375 
L 119.027613 236.04375 
L 119.027613 25.638393 
L 117.665954 25.638393 
z
" clip-path="url(#p14366e4bd7)" style="fill: #3900ee"/>
   </g>
   <g id="patch_79">
    <path d="M 118.903826 236.04375 
L 120.265486 236.04375 
L 120.265486 25.638393 
L 118.903826 25.638393 
z
" clip-path="url(#p14366e4bd7)" style="fill: #3500ed"/>
   </g>
   <g id="patch_80">
    <path d="M 120.141698 236.04375 
L 121.503358 236.04375 
L 121.503358 25.638393 
L 120.141698 25.638393 
z
" clip-path="url(#p14366e4bd7)" style="fill: #3000ec"/>
   </g>
   <g id="patch_81">
    <path d="M 121.379571 236.04375 
L 122.74123 236.04375 
L 122.74123 25.638393 
L 121.379571 25.638393 
z
" clip-path="url(#p14366e4bd7)" style="fill: #2a00eb"/>
   </g>
   <g id="patch_82">
    <path d="M 122.617443 236.04375 
L 123.979102 236.04375 
L 123.979102 25.638393 
L 122.617443 25.638393 
z
" clip-path="url(#p14366e4bd7)" style="fill: #2300ea"/>
   </g>
   <g id="patch_83">
    <path d="M 123.855315 236.04375 
L 125.216975 236.04375 
L 125.216975 25.638393 
L 123.855315 25.638393 
z
" clip-path="url(#p14366e4bd7)" style="fill: #1a00e9"/>
   </g>
   <g id="patch_84">
    <path d="M 125.093188 236.04375 
L 126.454847 236.04375 
L 126.454847 25.638393 
L 125.093188 25.638393 
z
" clip-path="url(#p14366e4bd7)" style="fill: #0c00e8"/>
   </g>
   <g id="patch_85">
    <path d="M 126.33106 236.04375 
L 127.692719 236.04375 
L 127.692719 25.638393 
L 126.33106 25.638393 
z
" clip-path="url(#p14366e4bd7)" style="fill: #0000e6"/>
   </g>
   <g id="patch_86">
    <path d="M 127.568932 236.04375 
L 128.930592 236.04375 
L 128.930592 25.638393 
L 127.568932 25.638393 
z
" clip-path="url(#p14366e4bd7)" style="fill: #0000e4"/>
   </g>
   <g id="patch_87">
    <path d="M 128.806805 236.04375 
L 130.168464 236.04375 
L 130.168464 25.638393 
L 128.806805 25.638393 
z
" clip-path="url(#p14366e4bd7)" style="fill: #0000e2"/>
   </g>
   <g id="patch_88">
    <path d="M 130.044677 236.04375 
L 131.406336 236.04375 
L 131.406336 25.638393 
L 130.044677 25.638393 
z
" clip-path="url(#p14366e4bd7)" style="fill: #0000e0"/>
   </g>
   <g id="patch_89">
    <path d="M 131.282549 236.04375 
L 132.644209 236.04375 
L 132.644209 25.638393 
L 131.282549 25.638393 
z
" clip-path="url(#p14366e4bd7)" style="fill: #0000dd"/>
   </g>
   <g id="patch_90">
    <path d="M 132.520421 236.04375 
L 133.882081 236.04375 
L 133.882081 25.638393 
L 132.520421 25.638393 
z
" clip-path="url(#p14366e4bd7)" style="fill: #0000da"/>
   </g>
   <g id="patch_91">
    <path d="M 133.758294 236.04375 
L 135.119953 236.04375 
L 135.119953 25.638393 
L 133.758294 25.638393 
z
" clip-path="url(#p14366e4bd7)" style="fill: #0004d6"/>
   </g>
   <g id="patch_92">
    <path d="M 134.996166 236.04375 
L 136.357826 236.04375 
L 136.357826 25.638393 
L 134.996166 25.638393 
z
" clip-path="url(#p14366e4bd7)" style="fill: #0016d3"/>
   </g>
   <g id="patch_93">
    <path d="M 136.234038 236.04375 
L 137.595698 236.04375 
L 137.595698 25.638393 
L 136.234038 25.638393 
z
" clip-path="url(#p14366e4bd7)" style="fill: #0021cf"/>
   </g>
   <g id="patch_94">
    <path d="M 137.471911 236.04375 
L 138.83357 236.04375 
L 138.83357 25.638393 
L 137.471911 25.638393 
z
" clip-path="url(#p14366e4bd7)" style="fill: #0029cb"/>
   </g>
   <g id="patch_95">
    <path d="M 138.709783 236.04375 
L 140.071443 236.04375 
L 140.071443 25.638393 
L 138.709783 25.638393 
z
" clip-path="url(#p14366e4bd7)" style="fill: #0030c7"/>
   </g>
   <g id="patch_96">
    <path d="M 139.947655 236.04375 
L 141.309315 236.04375 
L 141.309315 25.638393 
L 139.947655 25.638393 
z
" clip-path="url(#p14366e4bd7)" style="fill: #0036c4"/>
   </g>
   <g id="patch_97">
    <path d="M 141.185528 236.04375 
L 142.547187 236.04375 
L 142.547187 25.638393 
L 141.185528 25.638393 
z
" clip-path="url(#p14366e4bd7)" style="fill: #003bc0"/>
   </g>
   <g id="patch_98">
    <path d="M 142.4234 236.04375 
L 143.78506 236.04375 
L 143.78506 25.638393 
L 142.4234 25.638393 
z
" clip-path="url(#p14366e4bd7)" style="fill: #0040bc"/>
   </g>
   <g id="patch_99">
    <path d="M 143.661272 236.04375 
L 145.022932 236.04375 
L 145.022932 25.638393 
L 143.661272 25.638393 
z
" clip-path="url(#p14366e4bd7)" style="fill: #0044b8"/>
   </g>
   <g id="patch_100">
    <path d="M 144.899145 236.04375 
L 146.260804 236.04375 
L 146.260804 25.638393 
L 144.899145 25.638393 
z
" clip-path="url(#p14366e4bd7)" style="fill: #0049b3"/>
   </g>
   <g id="patch_101">
    <path d="M 146.137017 236.04375 
L 147.498677 236.04375 
L 147.498677 25.638393 
L 146.137017 25.638393 
z
" clip-path="url(#p14366e4bd7)" style="fill: #004daf"/>
   </g>
   <g id="patch_102">
    <path d="M 147.374889 236.04375 
L 148.736549 236.04375 
L 148.736549 25.638393 
L 147.374889 25.638393 
z
" clip-path="url(#p14366e4bd7)" style="fill: #0050ab"/>
   </g>
   <g id="patch_103">
    <path d="M 148.612762 236.04375 
L 149.974421 236.04375 
L 149.974421 25.638393 
L 148.612762 25.638393 
z
" clip-path="url(#p14366e4bd7)" style="fill: #0054a7"/>
   </g>
   <g id="patch_104">
    <path d="M 149.850634 236.04375 
L 151.212294 236.04375 
L 151.212294 25.638393 
L 149.850634 25.638393 
z
" clip-path="url(#p14366e4bd7)" style="fill: #0057a3"/>
   </g>
   <g id="patch_105">
    <path d="M 151.088506 236.04375 
L 152.450166 236.04375 
L 152.450166 25.638393 
L 151.088506 25.638393 
z
" clip-path="url(#p14366e4bd7)" style="fill: #005b9e"/>
   </g>
   <g id="patch_106">
    <path d="M 152.326379 236.04375 
L 153.688038 236.04375 
L 153.688038 25.638393 
L 152.326379 25.638393 
z
" clip-path="url(#p14366e4bd7)" style="fill: #005e9a"/>
   </g>
   <g id="patch_107">
    <path d="M 153.564251 236.04375 
L 154.925911 236.04375 
L 154.925911 25.638393 
L 153.564251 25.638393 
z
" clip-path="url(#p14366e4bd7)" style="fill: #006196"/>
   </g>
   <g id="patch_108">
    <path d="M 154.802123 236.04375 
L 156.163783 236.04375 
L 156.163783 25.638393 
L 154.802123 25.638393 
z
" clip-path="url(#p14366e4bd7)" style="fill: #006492"/>
   </g>
   <g id="patch_109">
    <path d="M 156.039996 236.04375 
L 157.401655 236.04375 
L 157.401655 25.638393 
L 156.039996 25.638393 
z
" clip-path="url(#p14366e4bd7)" style="fill: #00668e"/>
   </g>
   <g id="patch_110">
    <path d="M 157.277868 236.04375 
L 158.639528 236.04375 
L 158.639528 25.638393 
L 157.277868 25.638393 
z
" clip-path="url(#p14366e4bd7)" style="fill: #00698a"/>
   </g>
   <g id="patch_111">
    <path d="M 158.51574 236.04375 
L 159.8774 236.04375 
L 159.8774 25.638393 
L 158.51574 25.638393 
z
" clip-path="url(#p14366e4bd7)" style="fill: #006c86"/>
   </g>
   <g id="patch_112">
    <path d="M 159.753613 236.04375 
L 161.115272 236.04375 
L 161.115272 25.638393 
L 159.753613 25.638393 
z
" clip-path="url(#p14366e4bd7)" style="fill: #006f82"/>
   </g>
   <g id="patch_113">
    <path d="M 160.991485 236.04375 
L 162.353144 236.04375 
L 162.353144 25.638393 
L 160.991485 25.638393 
z
" clip-path="url(#p14366e4bd7)" style="fill: #00717e"/>
   </g>
   <g id="patch_114">
    <path d="M 162.229357 236.04375 
L 163.591017 236.04375 
L 163.591017 25.638393 
L 162.229357 25.638393 
z
" clip-path="url(#p14366e4bd7)" style="fill: #00747a"/>
   </g>
   <g id="patch_115">
    <path d="M 163.46723 236.04375 
L 164.828889 236.04375 
L 164.828889 25.638393 
L 163.46723 25.638393 
z
" clip-path="url(#p14366e4bd7)" style="fill: #007777"/>
   </g>
   <g id="patch_116">
    <path d="M 164.705102 236.04375 
L 166.066761 236.04375 
L 166.066761 25.638393 
L 164.705102 25.638393 
z
" clip-path="url(#p14366e4bd7)" style="fill: #007a73"/>
   </g>
   <g id="patch_117">
    <path d="M 165.942974 236.04375 
L 167.304634 236.04375 
L 167.304634 25.638393 
L 165.942974 25.638393 
z
" clip-path="url(#p14366e4bd7)" style="fill: #007d6f"/>
   </g>
   <g id="patch_118">
    <path d="M 167.180847 236.04375 
L 168.542506 236.04375 
L 168.542506 25.638393 
L 167.180847 25.638393 
z
" clip-path="url(#p14366e4bd7)" style="fill: #007f6c"/>
   </g>
   <g id="patch_119">
    <path d="M 168.418719 236.04375 
L 169.780378 236.04375 
L 169.780378 25.638393 
L 168.418719 25.638393 
z
" clip-path="url(#p14366e4bd7)" style="fill: #008268"/>
   </g>
   <g id="patch_120">
    <path d="M 169.656591 236.04375 
L 171.018251 236.04375 
L 171.018251 25.638393 
L 169.656591 25.638393 
z
" clip-path="url(#p14366e4bd7)" style="fill: #008565"/>
   </g>
   <g id="patch_121">
    <path d="M 170.894463 236.04375 
L 172.256123 236.04375 
L 172.256123 25.638393 
L 170.894463 25.638393 
z
" clip-path="url(#p14366e4bd7)" style="fill: #008861"/>
   </g>
   <g id="patch_122">
    <path d="M 172.132336 236.04375 
L 173.493995 236.04375 
L 173.493995 25.638393 
L 172.132336 25.638393 
z
" clip-path="url(#p14366e4bd7)" style="fill: #008b5e"/>
   </g>
   <g id="patch_123">
    <path d="M 173.370208 236.04375 
L 174.731868 236.04375 
L 174.731868 25.638393 
L 173.370208 25.638393 
z
" clip-path="url(#p14366e4bd7)" style="fill: #008e5b"/>
   </g>
   <g id="patch_124">
    <path d="M 174.60808 236.04375 
L 175.96974 236.04375 
L 175.96974 25.638393 
L 174.60808 25.638393 
z
" clip-path="url(#p14366e4bd7)" style="fill: #009157"/>
   </g>
   <g id="patch_125">
    <path d="M 175.845953 236.04375 
L 177.207612 236.04375 
L 177.207612 25.638393 
L 175.845953 25.638393 
z
" clip-path="url(#p14366e4bd7)" style="fill: #009454"/>
   </g>
   <g id="patch_126">
    <path d="M 177.083825 236.04375 
L 178.445485 236.04375 
L 178.445485 25.638393 
L 177.083825 25.638393 
z
" clip-path="url(#p14366e4bd7)" style="fill: #009751"/>
   </g>
   <g id="patch_127">
    <path d="M 178.321697 236.04375 
L 179.683357 236.04375 
L 179.683357 25.638393 
L 178.321697 25.638393 
z
" clip-path="url(#p14366e4bd7)" style="fill: #009a4d"/>
   </g>
   <g id="patch_128">
    <path d="M 179.55957 236.04375 
L 180.921229 236.04375 
L 180.921229 25.638393 
L 179.55957 25.638393 
z
" clip-path="url(#p14366e4bd7)" style="fill: #009d49"/>
   </g>
   <g id="patch_129">
    <path d="M 180.797442 236.04375 
L 182.159102 236.04375 
L 182.159102 25.638393 
L 180.797442 25.638393 
z
" clip-path="url(#p14366e4bd7)" style="fill: #00a145"/>
   </g>
   <g id="patch_130">
    <path d="M 182.035314 236.04375 
L 183.396974 236.04375 
L 183.396974 25.638393 
L 182.035314 25.638393 
z
" clip-path="url(#p14366e4bd7)" style="fill: #00a441"/>
   </g>
   <g id="patch_131">
    <path d="M 183.273187 236.04375 
L 184.634846 236.04375 
L 184.634846 25.638393 
L 183.273187 25.638393 
z
" clip-path="url(#p14366e4bd7)" style="fill: #00a73d"/>
   </g>
   <g id="patch_132">
    <path d="M 184.511059 236.04375 
L 185.872719 236.04375 
L 185.872719 25.638393 
L 184.511059 25.638393 
z
" clip-path="url(#p14366e4bd7)" style="fill: #00a938"/>
   </g>
   <g id="patch_133">
    <path d="M 185.748931 236.04375 
L 187.110591 236.04375 
L 187.110591 25.638393 
L 185.748931 25.638393 
z
" clip-path="url(#p14366e4bd7)" style="fill: #00ac33"/>
   </g>
   <g id="patch_134">
    <path d="M 186.986804 236.04375 
L 188.348463 236.04375 
L 188.348463 25.638393 
L 186.986804 25.638393 
z
" clip-path="url(#p14366e4bd7)" style="fill: #00af2d"/>
   </g>
   <g id="patch_135">
    <path d="M 188.224676 236.04375 
L 189.586336 236.04375 
L 189.586336 25.638393 
L 188.224676 25.638393 
z
" clip-path="url(#p14366e4bd7)" style="fill: #00b226"/>
   </g>
   <g id="patch_136">
    <path d="M 189.462548 236.04375 
L 190.824208 236.04375 
L 190.824208 25.638393 
L 189.462548 25.638393 
z
" clip-path="url(#p14366e4bd7)" style="fill: #00b51e"/>
   </g>
   <g id="patch_137">
    <path d="M 190.700421 236.04375 
L 192.06208 236.04375 
L 192.06208 25.638393 
L 190.700421 25.638393 
z
" clip-path="url(#p14366e4bd7)" style="fill: #00b814"/>
   </g>
   <g id="patch_138">
    <path d="M 191.938293 236.04375 
L 193.299953 236.04375 
L 193.299953 25.638393 
L 191.938293 25.638393 
z
" clip-path="url(#p14366e4bd7)" style="fill: #00ba04"/>
   </g>
   <g id="patch_139">
    <path d="M 193.176165 236.04375 
L 194.537825 236.04375 
L 194.537825 25.638393 
L 193.176165 25.638393 
z
" clip-path="url(#p14366e4bd7)" style="fill: #00bd00"/>
   </g>
   <g id="patch_140">
    <path d="M 194.414038 236.04375 
L 195.775697 236.04375 
L 195.775697 25.638393 
L 194.414038 25.638393 
z
" clip-path="url(#p14366e4bd7)" style="fill: #00bf00"/>
   </g>
   <g id="patch_141">
    <path d="M 195.65191 236.04375 
L 197.01357 236.04375 
L 197.01357 25.638393 
L 195.65191 25.638393 
z
" clip-path="url(#p14366e4bd7)" style="fill: #00c100"/>
   </g>
   <g id="patch_142">
    <path d="M 196.889782 236.04375 
L 198.251442 236.04375 
L 198.251442 25.638393 
L 196.889782 25.638393 
z
" clip-path="url(#p14366e4bd7)" style="fill: #00c400"/>
   </g>
   <g id="patch_143">
    <path d="M 198.127655 236.04375 
L 199.489314 236.04375 
L 199.489314 25.638393 
L 198.127655 25.638393 
z
" clip-path="url(#p14366e4bd7)" style="fill: #00c600"/>
   </g>
   <g id="patch_144">
    <path d="M 199.365527 236.04375 
L 200.727186 236.04375 
L 200.727186 25.638393 
L 199.365527 25.638393 
z
" clip-path="url(#p14366e4bd7)" style="fill: #00c700"/>
   </g>
   <g id="patch_145">
    <path d="M 200.603399 236.04375 
L 201.965059 236.04375 
L 201.965059 25.638393 
L 200.603399 25.638393 
z
" clip-path="url(#p14366e4bd7)" style="fill: #00c900"/>
   </g>
   <g id="patch_146">
    <path d="M 201.841272 236.04375 
L 203.202931 236.04375 
L 203.202931 25.638393 
L 201.841272 25.638393 
z
" clip-path="url(#p14366e4bd7)" style="fill: #00ca00"/>
   </g>
   <g id="patch_147">
    <path d="M 203.079144 236.04375 
L 204.440803 236.04375 
L 204.440803 25.638393 
L 203.079144 25.638393 
z
" clip-path="url(#p14366e4bd7)" style="fill: #00cc00"/>
   </g>
   <g id="patch_148">
    <path d="M 204.317016 236.04375 
L 205.678676 236.04375 
L 205.678676 25.638393 
L 204.317016 25.638393 
z
" clip-path="url(#p14366e4bd7)" style="fill: #00cd00"/>
   </g>
   <g id="patch_149">
    <path d="M 205.554889 236.04375 
L 206.916548 236.04375 
L 206.916548 25.638393 
L 205.554889 25.638393 
z
" clip-path="url(#p14366e4bd7)" style="fill: #00ce00"/>
   </g>
   <g id="patch_150">
    <path d="M 206.792761 236.04375 
L 208.15442 236.04375 
L 208.15442 25.638393 
L 206.792761 25.638393 
z
" clip-path="url(#p14366e4bd7)" style="fill: #00cf00"/>
   </g>
   <g id="patch_151">
    <path d="M 208.030633 236.04375 
L 209.392293 236.04375 
L 209.392293 25.638393 
L 208.030633 25.638393 
z
" clip-path="url(#p14366e4bd7)" style="fill: #00d000"/>
   </g>
   <g id="patch_152">
    <path d="M 209.268505 236.04375 
L 210.630165 236.04375 
L 210.630165 25.638393 
L 209.268505 25.638393 
z
" clip-path="url(#p14366e4bd7)" style="fill: #00d100"/>
   </g>
   <g id="patch_153">
    <path d="M 210.506378 236.04375 
L 211.868037 236.04375 
L 211.868037 25.638393 
L 210.506378 25.638393 
z
" clip-path="url(#p14366e4bd7)" style="fill: #00d200"/>
   </g>
   <g id="patch_154">
    <path d="M 211.74425 236.04375 
L 213.10591 236.04375 
L 213.10591 25.638393 
L 211.74425 25.638393 
z
" clip-path="url(#p14366e4bd7)" style="fill: #00d300"/>
   </g>
   <g id="patch_155">
    <path d="M 212.982122 236.04375 
L 214.343782 236.04375 
L 214.343782 25.638393 
L 212.982122 25.638393 
z
" clip-path="url(#p14366e4bd7)" style="fill: #00d300"/>
   </g>
   <g id="patch_156">
    <path d="M 214.219995 236.04375 
L 215.581654 236.04375 
L 215.581654 25.638393 
L 214.219995 25.638393 
z
" clip-path="url(#p14366e4bd7)" style="fill: #00d400"/>
   </g>
   <g id="patch_157">
    <path d="M 215.457867 236.04375 
L 216.819527 236.04375 
L 216.819527 25.638393 
L 215.457867 25.638393 
z
" clip-path="url(#p14366e4bd7)" style="fill: #00d400"/>
   </g>
   <g id="patch_158">
    <path d="M 216.695739 236.04375 
L 218.057399 236.04375 
L 218.057399 25.638393 
L 216.695739 25.638393 
z
" clip-path="url(#p14366e4bd7)" style="fill: #00d500"/>
   </g>
   <g id="patch_159">
    <path d="M 217.933612 236.04375 
L 219.295271 236.04375 
L 219.295271 25.638393 
L 217.933612 25.638393 
z
" clip-path="url(#p14366e4bd7)" style="fill: #00d500"/>
   </g>
   <g id="patch_160">
    <path d="M 219.171484 236.04375 
L 220.533144 236.04375 
L 220.533144 25.638393 
L 219.171484 25.638393 
z
" clip-path="url(#p14366e4bd7)" style="fill: #00d500"/>
   </g>
   <g id="patch_161">
    <path d="M 220.409356 236.04375 
L 221.771016 236.04375 
L 221.771016 25.638393 
L 220.409356 25.638393 
z
" clip-path="url(#p14366e4bd7)" style="fill: #00d500"/>
   </g>
   <g id="patch_162">
    <path d="M 221.647229 236.04375 
L 223.008888 236.04375 
L 223.008888 25.638393 
L 221.647229 25.638393 
z
" clip-path="url(#p14366e4bd7)" style="fill: #00d500"/>
   </g>
   <g id="patch_163">
    <path d="M 222.885101 236.04375 
L 224.246761 236.04375 
L 224.246761 25.638393 
L 222.885101 25.638393 
z
" clip-path="url(#p14366e4bd7)" style="fill: #00d500"/>
   </g>
   <g id="patch_164">
    <path d="M 224.122973 236.04375 
L 225.484633 236.04375 
L 225.484633 25.638393 
L 224.122973 25.638393 
z
" clip-path="url(#p14366e4bd7)" style="fill: #00d500"/>
   </g>
   <g id="patch_165">
    <path d="M 225.360846 236.04375 
L 226.722505 236.04375 
L 226.722505 25.638393 
L 225.360846 25.638393 
z
" clip-path="url(#p14366e4bd7)" style="fill: #00d500"/>
   </g>
   <g id="patch_166">
    <path d="M 226.598718 236.04375 
L 227.960378 236.04375 
L 227.960378 25.638393 
L 226.598718 25.638393 
z
" clip-path="url(#p14366e4bd7)" style="fill: #00d500"/>
   </g>
   <g id="patch_167">
    <path d="M 227.83659 236.04375 
L 229.19825 236.04375 
L 229.19825 25.638393 
L 227.83659 25.638393 
z
" clip-path="url(#p14366e4bd7)" style="fill: #00d500"/>
   </g>
   <g id="patch_168">
    <path d="M 229.074463 236.04375 
L 230.436122 236.04375 
L 230.436122 25.638393 
L 229.074463 25.638393 
z
" clip-path="url(#p14366e4bd7)" style="fill: #00d400"/>
   </g>
   <g id="patch_169">
    <path d="M 230.312335 236.04375 
L 231.673995 236.04375 
L 231.673995 25.638393 
L 230.312335 25.638393 
z
" clip-path="url(#p14366e4bd7)" style="fill: #00d400"/>
   </g>
   <g id="patch_170">
    <path d="M 231.550207 236.04375 
L 232.911867 236.04375 
L 232.911867 25.638393 
L 231.550207 25.638393 
z
" clip-path="url(#p14366e4bd7)" style="fill: #00d300"/>
   </g>
   <g id="patch_171">
    <path d="M 232.78808 236.04375 
L 234.149739 236.04375 
L 234.149739 25.638393 
L 232.78808 25.638393 
z
" clip-path="url(#p14366e4bd7)" style="fill: #00d300"/>
   </g>
   <g id="patch_172">
    <path d="M 234.025952 236.04375 
L 235.387611 236.04375 
L 235.387611 25.638393 
L 234.025952 25.638393 
z
" clip-path="url(#p14366e4bd7)" style="fill: #00d200"/>
   </g>
   <g id="patch_173">
    <path d="M 235.263824 236.04375 
L 236.625484 236.04375 
L 236.625484 25.638393 
L 235.263824 25.638393 
z
" clip-path="url(#p14366e4bd7)" style="fill: #00d100"/>
   </g>
   <g id="patch_174">
    <path d="M 236.501697 236.04375 
L 237.863356 236.04375 
L 237.863356 25.638393 
L 236.501697 25.638393 
z
" clip-path="url(#p14366e4bd7)" style="fill: #00d100"/>
   </g>
   <g id="patch_175">
    <path d="M 237.739569 236.04375 
L 239.101228 236.04375 
L 239.101228 25.638393 
L 237.739569 25.638393 
z
" clip-path="url(#p14366e4bd7)" style="fill: #00d000"/>
   </g>
   <g id="patch_176">
    <path d="M 238.977441 236.04375 
L 240.339101 236.04375 
L 240.339101 25.638393 
L 238.977441 25.638393 
z
" clip-path="url(#p14366e4bd7)" style="fill: #00cf00"/>
   </g>
   <g id="patch_177">
    <path d="M 240.215314 236.04375 
L 241.576973 236.04375 
L 241.576973 25.638393 
L 240.215314 25.638393 
z
" clip-path="url(#p14366e4bd7)" style="fill: #00ce00"/>
   </g>
   <g id="patch_178">
    <path d="M 241.453186 236.04375 
L 242.814845 236.04375 
L 242.814845 25.638393 
L 241.453186 25.638393 
z
" clip-path="url(#p14366e4bd7)" style="fill: #00cd00"/>
   </g>
   <g id="patch_179">
    <path d="M 242.691058 236.04375 
L 244.052718 236.04375 
L 244.052718 25.638393 
L 242.691058 25.638393 
z
" clip-path="url(#p14366e4bd7)" style="fill: #00cc00"/>
   </g>
   <g id="patch_180">
    <path d="M 243.928931 236.04375 
L 245.29059 236.04375 
L 245.29059 25.638393 
L 243.928931 25.638393 
z
" clip-path="url(#p14366e4bd7)" style="fill: #1ecb00"/>
   </g>
   <g id="patch_181">
    <path d="M 245.166803 236.04375 
L 246.528462 236.04375 
L 246.528462 25.638393 
L 245.166803 25.638393 
z
" clip-path="url(#p14366e4bd7)" style="fill: #35ca00"/>
   </g>
   <g id="patch_182">
    <path d="M 246.404675 236.04375 
L 247.766335 236.04375 
L 247.766335 25.638393 
L 246.404675 25.638393 
z
" clip-path="url(#p14366e4bd7)" style="fill: #45c900"/>
   </g>
   <g id="patch_183">
    <path d="M 247.642547 236.04375 
L 249.004207 236.04375 
L 249.004207 25.638393 
L 247.642547 25.638393 
z
" clip-path="url(#p14366e4bd7)" style="fill: #52c700"/>
   </g>
   <g id="patch_184">
    <path d="M 248.88042 236.04375 
L 250.242079 236.04375 
L 250.242079 25.638393 
L 248.88042 25.638393 
z
" clip-path="url(#p14366e4bd7)" style="fill: #5cc600"/>
   </g>
   <g id="patch_185">
    <path d="M 250.118292 236.04375 
L 251.479952 236.04375 
L 251.479952 25.638393 
L 250.118292 25.638393 
z
" clip-path="url(#p14366e4bd7)" style="fill: #66c400"/>
   </g>
   <g id="patch_186">
    <path d="M 251.356164 236.04375 
L 252.717824 236.04375 
L 252.717824 25.638393 
L 251.356164 25.638393 
z
" clip-path="url(#p14366e4bd7)" style="fill: #6ec300"/>
   </g>
   <g id="patch_187">
    <path d="M 252.594037 236.04375 
L 253.955696 236.04375 
L 253.955696 25.638393 
L 252.594037 25.638393 
z
" clip-path="url(#p14366e4bd7)" style="fill: #76c100"/>
   </g>
   <g id="patch_188">
    <path d="M 253.831909 236.04375 
L 255.193569 236.04375 
L 255.193569 25.638393 
L 253.831909 25.638393 
z
" clip-path="url(#p14366e4bd7)" style="fill: #7ec000"/>
   </g>
   <g id="patch_189">
    <path d="M 255.069781 236.04375 
L 256.431441 236.04375 
L 256.431441 25.638393 
L 255.069781 25.638393 
z
" clip-path="url(#p14366e4bd7)" style="fill: #85be00"/>
   </g>
   <g id="patch_190">
    <path d="M 256.307654 236.04375 
L 257.669313 236.04375 
L 257.669313 25.638393 
L 256.307654 25.638393 
z
" clip-path="url(#p14366e4bd7)" style="fill: #8cbc00"/>
   </g>
   <g id="patch_191">
    <path d="M 257.545526 236.04375 
L 258.907186 236.04375 
L 258.907186 25.638393 
L 257.545526 25.638393 
z
" clip-path="url(#p14366e4bd7)" style="fill: #92ba00"/>
   </g>
   <g id="patch_192">
    <path d="M 258.783398 236.04375 
L 260.145058 236.04375 
L 260.145058 25.638393 
L 258.783398 25.638393 
z
" clip-path="url(#p14366e4bd7)" style="fill: #98b800"/>
   </g>
   <g id="patch_193">
    <path d="M 260.021271 236.04375 
L 261.38293 236.04375 
L 261.38293 25.638393 
L 260.021271 25.638393 
z
" clip-path="url(#p14366e4bd7)" style="fill: #9eb600"/>
   </g>
   <g id="patch_194">
    <path d="M 261.259143 236.04375 
L 262.620803 236.04375 
L 262.620803 25.638393 
L 261.259143 25.638393 
z
" clip-path="url(#p14366e4bd7)" style="fill: #a3b400"/>
   </g>
   <g id="patch_195">
    <path d="M 262.497015 236.04375 
L 263.858675 236.04375 
L 263.858675 25.638393 
L 262.497015 25.638393 
z
" clip-path="url(#p14366e4bd7)" style="fill: #a8b100"/>
   </g>
   <g id="patch_196">
    <path d="M 263.734888 236.04375 
L 265.096547 236.04375 
L 265.096547 25.638393 
L 263.734888 25.638393 
z
" clip-path="url(#p14366e4bd7)" style="fill: #aeaf00"/>
   </g>
   <g id="patch_197">
    <path d="M 264.97276 236.04375 
L 266.33442 236.04375 
L 266.33442 25.638393 
L 264.97276 25.638393 
z
" clip-path="url(#p14366e4bd7)" style="fill: #b3ad00"/>
   </g>
   <g id="patch_198">
    <path d="M 266.210632 236.04375 
L 267.572292 236.04375 
L 267.572292 25.638393 
L 266.210632 25.638393 
z
" clip-path="url(#p14366e4bd7)" style="fill: #b7aa00"/>
   </g>
   <g id="patch_199">
    <path d="M 267.448505 236.04375 
L 268.810164 236.04375 
L 268.810164 25.638393 
L 267.448505 25.638393 
z
" clip-path="url(#p14366e4bd7)" style="fill: #bca800"/>
   </g>
   <g id="patch_200">
    <path d="M 268.686377 236.04375 
L 270.048037 236.04375 
L 270.048037 25.638393 
L 268.686377 25.638393 
z
" clip-path="url(#p14366e4bd7)" style="fill: #c0a500"/>
   </g>
   <g id="patch_201">
    <path d="M 269.924249 236.04375 
L 271.285909 236.04375 
L 271.285909 25.638393 
L 269.924249 25.638393 
z
" clip-path="url(#p14366e4bd7)" style="fill: #c4a200"/>
   </g>
   <g id="patch_202">
    <path d="M 271.162122 236.04375 
L 272.523781 236.04375 
L 272.523781 25.638393 
L 271.162122 25.638393 
z
" clip-path="url(#p14366e4bd7)" style="fill: #c99f00"/>
   </g>
   <g id="patch_203">
    <path d="M 272.399994 236.04375 
L 273.761653 236.04375 
L 273.761653 25.638393 
L 272.399994 25.638393 
z
" clip-path="url(#p14366e4bd7)" style="fill: #cc9c00"/>
   </g>
   <g id="patch_204">
    <path d="M 273.637866 236.04375 
L 274.999526 236.04375 
L 274.999526 25.638393 
L 273.637866 25.638393 
z
" clip-path="url(#p14366e4bd7)" style="fill: #d09900"/>
   </g>
   <g id="patch_205">
    <path d="M 274.875739 236.04375 
L 276.237398 236.04375 
L 276.237398 25.638393 
L 274.875739 25.638393 
z
" clip-path="url(#p14366e4bd7)" style="fill: #d49600"/>
   </g>
   <g id="patch_206">
    <path d="M 276.113611 236.04375 
L 277.47527 236.04375 
L 277.47527 25.638393 
L 276.113611 25.638393 
z
" clip-path="url(#p14366e4bd7)" style="fill: #d79300"/>
   </g>
   <g id="patch_207">
    <path d="M 277.351483 236.04375 
L 278.713143 236.04375 
L 278.713143 25.638393 
L 277.351483 25.638393 
z
" clip-path="url(#p14366e4bd7)" style="fill: #db9000"/>
   </g>
   <g id="patch_208">
    <path d="M 278.589356 236.04375 
L 279.951015 236.04375 
L 279.951015 25.638393 
L 278.589356 25.638393 
z
" clip-path="url(#p14366e4bd7)" style="fill: #de8c00"/>
   </g>
   <g id="patch_209">
    <path d="M 279.827228 236.04375 
L 281.188887 236.04375 
L 281.188887 25.638393 
L 279.827228 25.638393 
z
" clip-path="url(#p14366e4bd7)" style="fill: #e18900"/>
   </g>
   <g id="patch_210">
    <path d="M 281.0651 236.04375 
L 282.42676 236.04375 
L 282.42676 25.638393 
L 281.0651 25.638393 
z
" clip-path="url(#p14366e4bd7)" style="fill: #e48500"/>
   </g>
   <g id="patch_211">
    <path d="M 282.302973 236.04375 
L 283.664632 236.04375 
L 283.664632 25.638393 
L 282.302973 25.638393 
z
" clip-path="url(#p14366e4bd7)" style="fill: #e78200"/>
   </g>
   <g id="patch_212">
    <path d="M 283.540845 236.04375 
L 284.902504 236.04375 
L 284.902504 25.638393 
L 283.540845 25.638393 
z
" clip-path="url(#p14366e4bd7)" style="fill: #e97e00"/>
   </g>
   <g id="patch_213">
    <path d="M 284.778717 236.04375 
L 286.140377 236.04375 
L 286.140377 25.638393 
L 284.778717 25.638393 
z
" clip-path="url(#p14366e4bd7)" style="fill: #ec7a00"/>
   </g>
   <g id="patch_214">
    <path d="M 286.016589 236.04375 
L 287.378249 236.04375 
L 287.378249 25.638393 
L 286.016589 25.638393 
z
" clip-path="url(#p14366e4bd7)" style="fill: #ee7600"/>
   </g>
   <g id="patch_215">
    <path d="M 287.254462 236.04375 
L 288.616121 236.04375 
L 288.616121 25.638393 
L 287.254462 25.638393 
z
" clip-path="url(#p14366e4bd7)" style="fill: #f07200"/>
   </g>
   <g id="patch_216">
    <path d="M 288.492334 236.04375 
L 289.853994 236.04375 
L 289.853994 25.638393 
L 288.492334 25.638393 
z
" clip-path="url(#p14366e4bd7)" style="fill: #f26e00"/>
   </g>
   <g id="patch_217">
    <path d="M 289.730206 236.04375 
L 291.091866 236.04375 
L 291.091866 25.638393 
L 289.730206 25.638393 
z
" clip-path="url(#p14366e4bd7)" style="fill: #f46a00"/>
   </g>
   <g id="patch_218">
    <path d="M 290.968079 236.04375 
L 292.329738 236.04375 
L 292.329738 25.638393 
L 290.968079 25.638393 
z
" clip-path="url(#p14366e4bd7)" style="fill: #f66500"/>
   </g>
   <g id="patch_219">
    <path d="M 292.205951 236.04375 
L 293.567611 236.04375 
L 293.567611 25.638393 
L 292.205951 25.638393 
z
" clip-path="url(#p14366e4bd7)" style="fill: #f86100"/>
   </g>
   <g id="patch_220">
    <path d="M 293.443823 236.04375 
L 294.805483 236.04375 
L 294.805483 25.638393 
L 293.443823 25.638393 
z
" clip-path="url(#p14366e4bd7)" style="fill: #f95c00"/>
   </g>
   <g id="patch_221">
    <path d="M 294.681696 236.04375 
L 296.043355 236.04375 
L 296.043355 25.638393 
L 294.681696 25.638393 
z
" clip-path="url(#p14366e4bd7)" style="fill: #fa5800"/>
   </g>
   <g id="patch_222">
    <path d="M 295.919568 236.04375 
L 297.281228 236.04375 
L 297.281228 25.638393 
L 295.919568 25.638393 
z
" clip-path="url(#p14366e4bd7)" style="fill: #fb5300"/>
   </g>
   <g id="patch_223">
    <path d="M 297.15744 236.04375 
L 298.5191 236.04375 
L 298.5191 25.638393 
L 297.15744 25.638393 
z
" clip-path="url(#p14366e4bd7)" style="fill: #fc4e00"/>
   </g>
   <g id="patch_224">
    <path d="M 298.395313 236.04375 
L 299.756972 236.04375 
L 299.756972 25.638393 
L 298.395313 25.638393 
z
" clip-path="url(#p14366e4bd7)" style="fill: #fd4900"/>
   </g>
   <g id="patch_225">
    <path d="M 299.633185 236.04375 
L 300.994845 236.04375 
L 300.994845 25.638393 
L 299.633185 25.638393 
z
" clip-path="url(#p14366e4bd7)" style="fill: #fe4300"/>
   </g>
   <g id="patch_226">
    <path d="M 300.871057 236.04375 
L 302.232717 236.04375 
L 302.232717 25.638393 
L 300.871057 25.638393 
z
" clip-path="url(#p14366e4bd7)" style="fill: #fe3d00"/>
   </g>
   <g id="patch_227">
    <path d="M 302.10893 236.04375 
L 303.470589 236.04375 
L 303.470589 25.638393 
L 302.10893 25.638393 
z
" clip-path="url(#p14366e4bd7)" style="fill: #ff3700"/>
   </g>
   <g id="patch_228">
    <path d="M 303.346802 236.04375 
L 304.708462 236.04375 
L 304.708462 25.638393 
L 303.346802 25.638393 
z
" clip-path="url(#p14366e4bd7)" style="fill: #ff3000"/>
   </g>
   <g id="patch_229">
    <path d="M 304.584674 236.04375 
L 305.946334 236.04375 
L 305.946334 25.638393 
L 304.584674 25.638393 
z
" clip-path="url(#p14366e4bd7)" style="fill: #ff2900"/>
   </g>
   <g id="patch_230">
    <path d="M 305.822547 236.04375 
L 307.184206 236.04375 
L 307.184206 25.638393 
L 305.822547 25.638393 
z
" clip-path="url(#p14366e4bd7)" style="fill: #ff2000"/>
   </g>
   <g id="patch_231">
    <path d="M 307.060419 236.04375 
L 308.422079 236.04375 
L 308.422079 25.638393 
L 307.060419 25.638393 
z
" clip-path="url(#p14366e4bd7)" style="fill: #ff1500"/>
   </g>
   <g id="patch_232">
    <path d="M 308.298291 236.04375 
L 309.659951 236.04375 
L 309.659951 25.638393 
L 308.298291 25.638393 
z
" clip-path="url(#p14366e4bd7)" style="fill: #fe0400"/>
   </g>
   <g id="patch_233">
    <path d="M 309.536164 236.04375 
L 310.897823 236.04375 
L 310.897823 25.638393 
L 309.536164 25.638393 
z
" clip-path="url(#p14366e4bd7)" style="fill: #fe0000"/>
   </g>
   <g id="patch_234">
    <path d="M 310.774036 236.04375 
L 312.135695 236.04375 
L 312.135695 25.638393 
L 310.774036 25.638393 
z
" clip-path="url(#p14366e4bd7)" style="fill: #fd0000"/>
   </g>
   <g id="patch_235">
    <path d="M 312.011908 236.04375 
L 313.373568 236.04375 
L 313.373568 25.638393 
L 312.011908 25.638393 
z
" clip-path="url(#p14366e4bd7)" style="fill: #fc0000"/>
   </g>
   <g id="patch_236">
    <path d="M 313.249781 236.04375 
L 314.61144 236.04375 
L 314.61144 25.638393 
L 313.249781 25.638393 
z
" clip-path="url(#p14366e4bd7)" style="fill: #fb0000"/>
   </g>
   <g id="patch_237">
    <path d="M 314.487653 236.04375 
L 315.849312 236.04375 
L 315.849312 25.638393 
L 314.487653 25.638393 
z
" clip-path="url(#p14366e4bd7)" style="fill: #fa0000"/>
   </g>
   <g id="patch_238">
    <path d="M 315.725525 236.04375 
L 317.087185 236.04375 
L 317.087185 25.638393 
L 315.725525 25.638393 
z
" clip-path="url(#p14366e4bd7)" style="fill: #f90000"/>
   </g>
   <g id="patch_239">
    <path d="M 316.963398 236.04375 
L 318.325057 236.04375 
L 318.325057 25.638393 
L 316.963398 25.638393 
z
" clip-path="url(#p14366e4bd7)" style="fill: #f70000"/>
   </g>
   <g id="patch_240">
    <path d="M 318.20127 236.04375 
L 319.562929 236.04375 
L 319.562929 25.638393 
L 318.20127 25.638393 
z
" clip-path="url(#p14366e4bd7)" style="fill: #f60000"/>
   </g>
   <g id="patch_241">
    <path d="M 319.439142 236.04375 
L 320.800802 236.04375 
L 320.800802 25.638393 
L 319.439142 25.638393 
z
" clip-path="url(#p14366e4bd7)" style="fill: #f40000"/>
   </g>
   <g id="patch_242">
    <path d="M 320.677015 236.04375 
L 322.038674 236.04375 
L 322.038674 25.638393 
L 320.677015 25.638393 
z
" clip-path="url(#p14366e4bd7)" style="fill: #f30000"/>
   </g>
   <g id="patch_243">
    <path d="M 321.914887 236.04375 
L 323.276546 236.04375 
L 323.276546 25.638393 
L 321.914887 25.638393 
z
" clip-path="url(#p14366e4bd7)" style="fill: #f10000"/>
   </g>
   <g id="patch_244">
    <path d="M 323.152759 236.04375 
L 324.514419 236.04375 
L 324.514419 25.638393 
L 323.152759 25.638393 
z
" clip-path="url(#p14366e4bd7)" style="fill: #ee0000"/>
   </g>
   <g id="patch_245">
    <path d="M 324.390631 236.04375 
L 325.752291 236.04375 
L 325.752291 25.638393 
L 324.390631 25.638393 
z
" clip-path="url(#p14366e4bd7)" style="fill: #ec0000"/>
   </g>
   <g id="patch_246">
    <path d="M 325.628504 236.04375 
L 326.990163 236.04375 
L 326.990163 25.638393 
L 325.628504 25.638393 
z
" clip-path="url(#p14366e4bd7)" style="fill: #ea0000"/>
   </g>
   <g id="patch_247">
    <path d="M 326.866376 236.04375 
L 328.228036 236.04375 
L 328.228036 25.638393 
L 326.866376 25.638393 
z
" clip-path="url(#p14366e4bd7)" style="fill: #e70000"/>
   </g>
   <g id="patch_248">
    <path d="M 328.104248 236.04375 
L 329.465908 236.04375 
L 329.465908 25.638393 
L 328.104248 25.638393 
z
" clip-path="url(#p14366e4bd7)" style="fill: #e50000"/>
   </g>
   <g id="patch_249">
    <path d="M 329.342121 236.04375 
L 330.70378 236.04375 
L 330.70378 25.638393 
L 329.342121 25.638393 
z
" clip-path="url(#p14366e4bd7)" style="fill: #e20000"/>
   </g>
   <g id="patch_250">
    <path d="M 330.579993 236.04375 
L 331.941653 236.04375 
L 331.941653 25.638393 
L 330.579993 25.638393 
z
" clip-path="url(#p14366e4bd7)" style="fill: #df0000"/>
   </g>
   <g id="patch_251">
    <path d="M 331.817865 236.04375 
L 333.179525 236.04375 
L 333.179525 25.638393 
L 331.817865 25.638393 
z
" clip-path="url(#p14366e4bd7)" style="fill: #dc0000"/>
   </g>
   <g id="patch_252">
    <path d="M 333.055738 236.04375 
L 334.417397 236.04375 
L 334.417397 25.638393 
L 333.055738 25.638393 
z
" clip-path="url(#p14366e4bd7)" style="fill: #d90000"/>
   </g>
   <g id="patch_253">
    <path d="M 334.29361 236.04375 
L 335.65527 236.04375 
L 335.65527 25.638393 
L 334.29361 25.638393 
z
" clip-path="url(#p14366e4bd7)" style="fill: #d60000"/>
   </g>
   <g id="patch_254">
    <path d="M 335.531482 236.04375 
L 336.893142 236.04375 
L 336.893142 25.638393 
L 335.531482 25.638393 
z
" clip-path="url(#p14366e4bd7)" style="fill: #d30000"/>
   </g>
   <g id="patch_255">
    <path d="M 336.769355 236.04375 
L 338.131014 236.04375 
L 338.131014 25.638393 
L 336.769355 25.638393 
z
" clip-path="url(#p14366e4bd7)" style="fill: #d00000"/>
   </g>
   <g id="patch_256">
    <path d="M 338.007227 236.04375 
L 339.368887 236.04375 
L 339.368887 25.638393 
L 338.007227 25.638393 
z
" clip-path="url(#p14366e4bd7)" style="fill: #cd0000"/>
   </g>
   <g id="patch_257">
    <path d="M 339.245099 236.04375 
L 340.606759 236.04375 
L 340.606759 25.638393 
L 339.245099 25.638393 
z
" clip-path="url(#p14366e4bd7)" style="fill: #ca0000"/>
   </g>
   <g id="patch_258">
    <path d="M 340.482972 236.04375 
L 341.844631 236.04375 
L 341.844631 25.638393 
L 340.482972 25.638393 
z
" clip-path="url(#p14366e4bd7)" style="fill: #c70000"/>
   </g>
   <g id="patch_259">
    <path d="M 341.720844 236.04375 
L 343.082504 236.04375 
L 343.082504 25.638393 
L 341.720844 25.638393 
z
" clip-path="url(#p14366e4bd7)" style="fill: #c40000"/>
   </g>
   <g id="patch_260">
    <path d="M 342.958716 236.04375 
L 344.320376 236.04375 
L 344.320376 25.638393 
L 342.958716 25.638393 
z
" clip-path="url(#p14366e4bd7)" style="fill: #c10000"/>
   </g>
   <g id="patch_261">
    <path d="M 344.196589 236.04375 
L 345.558248 236.04375 
L 345.558248 25.638393 
L 344.196589 25.638393 
z
" clip-path="url(#p14366e4bd7)" style="fill: #be0000"/>
   </g>
   <g id="patch_262">
    <path d="M 345.434461 236.04375 
L 346.796121 236.04375 
L 346.796121 25.638393 
L 345.434461 25.638393 
z
" clip-path="url(#p14366e4bd7)" style="fill: #bb0000"/>
   </g>
   <g id="patch_263">
    <path d="M 346.672333 236.04375 
L 348.033993 236.04375 
L 348.033993 25.638393 
L 346.672333 25.638393 
z
" clip-path="url(#p14366e4bd7)" style="fill: #b80000"/>
   </g>
   <g id="patch_264">
    <path d="M 347.910206 236.04375 
L 349.271865 236.04375 
L 349.271865 25.638393 
L 347.910206 25.638393 
z
" clip-path="url(#p14366e4bd7)" style="fill: #b40000"/>
   </g>
   <g id="patch_265">
    <path d="M 349.148078 236.04375 
L 350.509737 236.04375 
L 350.509737 25.638393 
L 349.148078 25.638393 
z
" clip-path="url(#p14366e4bd7)" style="fill: #b10000"/>
   </g>
   <g id="patch_266">
    <path d="M 350.38595 236.04375 
L 351.74761 236.04375 
L 351.74761 25.638393 
L 350.38595 25.638393 
z
" clip-path="url(#p14366e4bd7)" style="fill: #ae0000"/>
   </g>
   <g id="patch_267">
    <path d="M 351.623823 236.04375 
L 352.985482 236.04375 
L 352.985482 25.638393 
L 351.623823 25.638393 
z
" clip-path="url(#p14366e4bd7)" style="fill: #aa0000"/>
   </g>
   <g id="patch_268">
    <path d="M 352.861695 236.04375 
L 354.223354 236.04375 
L 354.223354 25.638393 
L 352.861695 25.638393 
z
" clip-path="url(#p14366e4bd7)" style="fill: #a70000"/>
   </g>
   <g id="patch_269">
    <path d="M 354.099567 236.04375 
L 355.461227 236.04375 
L 355.461227 25.638393 
L 354.099567 25.638393 
z
" clip-path="url(#p14366e4bd7)" style="fill: #a40000"/>
   </g>
   <g id="patch_270">
    <path d="M 355.33744 236.04375 
L 356.699099 236.04375 
L 356.699099 25.638393 
L 355.33744 25.638393 
z
" clip-path="url(#p14366e4bd7)" style="fill: #a00000"/>
   </g>
   <g id="patch_271">
    <path d="M 356.575312 236.04375 
L 357.936971 236.04375 
L 357.936971 25.638393 
L 356.575312 25.638393 
z
" clip-path="url(#p14366e4bd7)" style="fill: #9d0000"/>
   </g>
   <g id="patch_272">
    <path d="M 357.813184 236.04375 
L 359.174844 236.04375 
L 359.174844 25.638393 
L 357.813184 25.638393 
z
" clip-path="url(#p14366e4bd7)" style="fill: #990000"/>
   </g>
   <g id="patch_273">
    <path d="M 359.051057 236.04375 
L 360.412716 236.04375 
L 360.412716 25.638393 
L 359.051057 25.638393 
z
" clip-path="url(#p14366e4bd7)" style="fill: #960000"/>
   </g>
   <g id="patch_274">
    <path d="M 360.288929 236.04375 
L 361.650588 236.04375 
L 361.650588 25.638393 
L 360.288929 25.638393 
z
" clip-path="url(#p14366e4bd7)" style="fill: #930000"/>
   </g>
   <g id="patch_275">
    <path d="M 361.526801 236.04375 
L 362.888461 236.04375 
L 362.888461 25.638393 
L 361.526801 25.638393 
z
" clip-path="url(#p14366e4bd7)" style="fill: #8f0000"/>
   </g>
   <g id="patch_276">
    <path d="M 362.764673 236.04375 
L 364.126333 236.04375 
L 364.126333 25.638393 
L 362.764673 25.638393 
z
" clip-path="url(#p14366e4bd7)" style="fill: #8c0000"/>
   </g>
   <g id="patch_277">
    <path d="M 364.002546 236.04375 
L 365.364205 236.04375 
L 365.364205 25.638393 
L 364.002546 25.638393 
z
" clip-path="url(#p14366e4bd7)" style="fill: #890000"/>
   </g>
   <g id="patch_278">
    <path d="M 365.240418 236.04375 
L 366.602078 236.04375 
L 366.602078 25.638393 
L 365.240418 25.638393 
z
" clip-path="url(#p14366e4bd7)" style="fill: #850000"/>
   </g>
   <g id="patch_279">
    <path d="M 366.47829 236.04375 
L 367.83995 236.04375 
L 367.83995 25.638393 
L 366.47829 25.638393 
z
" clip-path="url(#p14366e4bd7)" style="fill: #820000"/>
   </g>
   <g id="patch_280">
    <path d="M 367.716163 236.04375 
L 369.077822 236.04375 
L 369.077822 25.638393 
L 367.716163 25.638393 
z
" clip-path="url(#p14366e4bd7)" style="fill: #7f0000"/>
   </g>
   <g id="patch_281">
    <path d="M 368.954035 236.04375 
L 370.315695 236.04375 
L 370.315695 25.638393 
L 368.954035 25.638393 
z
" clip-path="url(#p14366e4bd7)" style="fill: #7c0000"/>
   </g>
   <g id="patch_282">
    <path d="M 370.191907 236.04375 
L 371.553567 236.04375 
L 371.553567 25.638393 
L 370.191907 25.638393 
z
" clip-path="url(#p14366e4bd7)" style="fill: #780000"/>
   </g>
   <g id="patch_283">
    <path d="M 371.42978 236.04375 
L 372.791439 236.04375 
L 372.791439 25.638393 
L 371.42978 25.638393 
z
" clip-path="url(#p14366e4bd7)" style="fill: #750000"/>
   </g>
   <g id="patch_284">
    <path d="M 372.667652 236.04375 
L 374.029312 236.04375 
L 374.029312 25.638393 
L 372.667652 25.638393 
z
" clip-path="url(#p14366e4bd7)" style="fill: #720000"/>
   </g>
   <g id="patch_285">
    <path d="M 373.905524 236.04375 
L 375.267184 236.04375 
L 375.267184 25.638393 
L 373.905524 25.638393 
z
" clip-path="url(#p14366e4bd7)" style="fill: #6f0000"/>
   </g>
   <g id="patch_286">
    <path d="M 375.143397 236.04375 
L 376.505056 236.04375 
L 376.505056 25.638393 
L 375.143397 25.638393 
z
" clip-path="url(#p14366e4bd7)" style="fill: #6c0000"/>
   </g>
   <g id="patch_287">
    <path d="M 376.381269 236.04375 
L 377.742929 236.04375 
L 377.742929 25.638393 
L 376.381269 25.638393 
z
" clip-path="url(#p14366e4bd7)" style="fill: #680000"/>
   </g>
   <g id="patch_288">
    <path d="M 377.619141 236.04375 
L 378.980801 236.04375 
L 378.980801 25.638393 
L 377.619141 25.638393 
z
" clip-path="url(#p14366e4bd7)" style="fill: #650000"/>
   </g>
   <g id="patch_289">
    <path d="M 378.857014 236.04375 
L 380.218673 236.04375 
L 380.218673 25.638393 
L 378.857014 25.638393 
z
" clip-path="url(#p14366e4bd7)" style="fill: #620000"/>
   </g>
   <g id="patch_290">
    <path d="M 380.094886 236.04375 
L 381.456546 236.04375 
L 381.456546 25.638393 
L 380.094886 25.638393 
z
" clip-path="url(#p14366e4bd7)" style="fill: #5f0000"/>
   </g>
   <g id="patch_291">
    <path d="M 381.332758 236.04375 
L 382.694418 236.04375 
L 382.694418 25.638393 
L 381.332758 25.638393 
z
" clip-path="url(#p14366e4bd7)" style="fill: #5c0000"/>
   </g>
   <g id="patch_292">
    <path d="M 382.570631 236.04375 
L 383.93229 236.04375 
L 383.93229 25.638393 
L 382.570631 25.638393 
z
" clip-path="url(#p14366e4bd7)" style="fill: #590000"/>
   </g>
   <g id="patch_293">
    <path d="M 383.808503 236.04375 
L 385.170163 236.04375 
L 385.170163 25.638393 
L 383.808503 25.638393 
z
" clip-path="url(#p14366e4bd7)" style="fill: #570000"/>
   </g>
   <g id="patch_294">
    <path d="M 385.046375 236.04375 
L 386.408035 236.04375 
L 386.408035 25.638393 
L 385.046375 25.638393 
z
" clip-path="url(#p14366e4bd7)" style="fill: #540000"/>
   </g>
   <g id="patch_295">
    <path d="M 386.284248 236.04375 
L 387.645907 236.04375 
L 387.645907 25.638393 
L 386.284248 25.638393 
z
" clip-path="url(#p14366e4bd7)" style="fill: #510000"/>
   </g>
   <g id="patch_296">
    <path d="M 387.52212 236.04375 
L 388.883779 236.04375 
L 388.883779 25.638393 
L 387.52212 25.638393 
z
" clip-path="url(#p14366e4bd7)" style="fill: #4f0000"/>
   </g>
   <g id="patch_297">
    <path d="M 388.759992 236.04375 
L 390.121652 236.04375 
L 390.121652 25.638393 
L 388.759992 25.638393 
z
" clip-path="url(#p14366e4bd7)" style="fill: #4d0000"/>
   </g>
   <g id="patch_298">
    <path d="M 389.997865 236.04375 
L 391.359524 236.04375 
L 391.359524 25.638393 
L 389.997865 25.638393 
z
" clip-path="url(#p14366e4bd7)" style="fill: #4a0000"/>
   </g>
   <g id="patch_299">
    <path d="M 391.235737 236.04375 
L 392.597396 236.04375 
L 392.597396 25.638393 
L 391.235737 25.638393 
z
" clip-path="url(#p14366e4bd7)" style="fill: #480000"/>
   </g>
   <g id="patch_300">
    <path d="M 392.473609 236.04375 
L 393.835269 236.04375 
L 393.835269 25.638393 
L 392.473609 25.638393 
z
" clip-path="url(#p14366e4bd7)" style="fill: #460000"/>
   </g>
   <g id="patch_301">
    <path d="M 393.711482 236.04375 
L 395.073141 236.04375 
L 395.073141 25.638393 
L 393.711482 25.638393 
z
" clip-path="url(#p14366e4bd7)" style="fill: #440000"/>
   </g>
   <g id="patch_302">
    <path d="M 394.949354 236.04375 
L 396.311013 236.04375 
L 396.311013 25.638393 
L 394.949354 25.638393 
z
" clip-path="url(#p14366e4bd7)" style="fill: #420000"/>
   </g>
   <g id="patch_303">
    <path d="M 396.187226 236.04375 
L 397.548886 236.04375 
L 397.548886 25.638393 
L 396.187226 25.638393 
z
" clip-path="url(#p14366e4bd7)" style="fill: #400000"/>
   </g>
   <g id="patch_304">
    <path d="M 397.425099 236.04375 
L 398.786758 236.04375 
L 398.786758 25.638393 
L 397.425099 25.638393 
z
" clip-path="url(#p14366e4bd7)" style="fill: #3e0000"/>
   </g>
   <g id="patch_305">
    <path d="M 398.662971 236.04375 
L 400.02463 236.04375 
L 400.02463 25.638393 
L 398.662971 25.638393 
z
" clip-path="url(#p14366e4bd7)" style="fill: #3b0000"/>
   </g>
   <g id="patch_306">
    <path d="M 399.900843 236.04375 
L 401.262503 236.04375 
L 401.262503 25.638393 
L 399.900843 25.638393 
z
" clip-path="url(#p14366e4bd7)" style="fill: #390000"/>
   </g>
   <g id="patch_307">
    <path d="M 401.138715 236.04375 
L 402.500375 236.04375 
L 402.500375 25.638393 
L 401.138715 25.638393 
z
" clip-path="url(#p14366e4bd7)" style="fill: #370000"/>
   </g>
   <g id="patch_308">
    <path d="M 402.376588 236.04375 
L 403.738247 236.04375 
L 403.738247 25.638393 
L 402.376588 25.638393 
z
" clip-path="url(#p14366e4bd7)" style="fill: #350000"/>
   </g>
   <g id="patch_309">
    <path d="M 403.61446 236.04375 
L 404.97612 236.04375 
L 404.97612 25.638393 
L 403.61446 25.638393 
z
" clip-path="url(#p14366e4bd7)" style="fill: #330000"/>
   </g>
   <g id="patch_310">
    <path d="M 404.852332 236.04375 
L 406.213992 236.04375 
L 406.213992 25.638393 
L 404.852332 25.638393 
z
" clip-path="url(#p14366e4bd7)" style="fill: #310000"/>
   </g>
   <g id="patch_311">
    <path d="M 406.090205 236.04375 
L 407.451864 236.04375 
L 407.451864 25.638393 
L 406.090205 25.638393 
z
" clip-path="url(#p14366e4bd7)" style="fill: #2f0000"/>
   </g>
   <g id="patch_312">
    <path d="M 407.328077 236.04375 
L 408.689737 236.04375 
L 408.689737 25.638393 
L 407.328077 25.638393 
z
" clip-path="url(#p14366e4bd7)" style="fill: #2d0000"/>
   </g>
   <g id="patch_313">
    <path d="M 408.565949 236.04375 
L 409.927609 236.04375 
L 409.927609 25.638393 
L 408.565949 25.638393 
z
" clip-path="url(#p14366e4bd7)" style="fill: #2b0000"/>
   </g>
   <g id="patch_314">
    <path d="M 409.803822 236.04375 
L 411.165481 236.04375 
L 411.165481 25.638393 
L 409.803822 25.638393 
z
" clip-path="url(#p14366e4bd7)" style="fill: #2a0000"/>
   </g>
   <g id="patch_315">
    <path d="M 411.041694 236.04375 
L 412.403354 236.04375 
L 412.403354 25.638393 
L 411.041694 25.638393 
z
" clip-path="url(#p14366e4bd7)" style="fill: #280000"/>
   </g>
   <g id="patch_316">
    <path d="M 412.279566 236.04375 
L 413.641226 236.04375 
L 413.641226 25.638393 
L 412.279566 25.638393 
z
" clip-path="url(#p14366e4bd7)" style="fill: #260000"/>
   </g>
   <g id="patch_317">
    <path d="M 413.517439 236.04375 
L 414.879098 236.04375 
L 414.879098 25.638393 
L 413.517439 25.638393 
z
" clip-path="url(#p14366e4bd7)" style="fill: #250000"/>
   </g>
   <g id="patch_318">
    <path d="M 414.755311 236.04375 
L 416.116971 236.04375 
L 416.116971 25.638393 
L 414.755311 25.638393 
z
" clip-path="url(#p14366e4bd7)" style="fill: #230000"/>
   </g>
   <g id="patch_319">
    <path d="M 415.993183 236.04375 
L 417.354843 236.04375 
L 417.354843 25.638393 
L 415.993183 25.638393 
z
" clip-path="url(#p14366e4bd7)" style="fill: #220000"/>
   </g>
   <g id="patch_320">
    <path d="M 417.231056 236.04375 
L 418.592715 236.04375 
L 418.592715 25.638393 
L 417.231056 25.638393 
z
" clip-path="url(#p14366e4bd7)" style="fill: #210000"/>
   </g>
   <g id="patch_321">
    <path d="M 418.468928 236.04375 
L 419.830588 236.04375 
L 419.830588 25.638393 
L 418.468928 25.638393 
z
" clip-path="url(#p14366e4bd7)" style="fill: #1f0000"/>
   </g>
   <g id="patch_322">
    <path d="M 419.7068 236.04375 
L 421.06846 236.04375 
L 421.06846 25.638393 
L 419.7068 25.638393 
z
" clip-path="url(#p14366e4bd7)" style="fill: #1e0000"/>
   </g>
   <g id="patch_323">
    <path d="M 420.944673 236.04375 
L 422.306332 236.04375 
L 422.306332 25.638393 
L 420.944673 25.638393 
z
" clip-path="url(#p14366e4bd7)" style="fill: #1d0000"/>
   </g>
   <g id="patch_324">
    <path d="M 422.182545 236.04375 
L 423.544205 236.04375 
L 423.544205 25.638393 
L 422.182545 25.638393 
z
" clip-path="url(#p14366e4bd7)" style="fill: #1c0000"/>
   </g>
   <g id="patch_325">
    <path d="M 423.420417 236.04375 
L 424.782077 236.04375 
L 424.782077 25.638393 
L 423.420417 25.638393 
z
" clip-path="url(#p14366e4bd7)" style="fill: #1b0000"/>
   </g>
   <g id="patch_326">
    <path d="M 424.65829 236.04375 
L 426.019949 236.04375 
L 426.019949 25.638393 
L 424.65829 25.638393 
z
" clip-path="url(#p14366e4bd7)" style="fill: #1a0000"/>
   </g>
   <g id="patch_327">
    <path d="M 425.896162 236.04375 
L 427.257821 236.04375 
L 427.257821 25.638393 
L 425.896162 25.638393 
z
" clip-path="url(#p14366e4bd7)" style="fill: #190000"/>
   </g>
   <g id="patch_328">
    <path d="M 427.134034 236.04375 
L 428.495694 236.04375 
L 428.495694 25.638393 
L 427.134034 25.638393 
z
" clip-path="url(#p14366e4bd7)" style="fill: #170000"/>
   </g>
   <g id="patch_329">
    <path d="M 428.371907 236.04375 
L 429.733566 236.04375 
L 429.733566 25.638393 
L 428.371907 25.638393 
z
" clip-path="url(#p14366e4bd7)" style="fill: #160000"/>
   </g>
   <g id="patch_330">
    <path d="M 429.609779 236.04375 
L 430.971438 236.04375 
L 430.971438 25.638393 
L 429.609779 25.638393 
z
" clip-path="url(#p14366e4bd7)" style="fill: #150000"/>
   </g>
   <g id="patch_331">
    <path d="M 430.847651 236.04375 
L 432.209311 236.04375 
L 432.209311 25.638393 
L 430.847651 25.638393 
z
" clip-path="url(#p14366e4bd7)" style="fill: #140000"/>
   </g>
   <g id="patch_332">
    <path d="M 432.085524 236.04375 
L 433.447183 236.04375 
L 433.447183 25.638393 
L 432.085524 25.638393 
z
" clip-path="url(#p14366e4bd7)" style="fill: #130000"/>
   </g>
   <g id="patch_333">
    <path d="M 433.323396 236.04375 
L 434.685055 236.04375 
L 434.685055 25.638393 
L 433.323396 25.638393 
z
" clip-path="url(#p14366e4bd7)" style="fill: #130000"/>
   </g>
   <g id="patch_334">
    <path d="M 434.561268 236.04375 
L 435.922928 236.04375 
L 435.922928 25.638393 
L 434.561268 25.638393 
z
" clip-path="url(#p14366e4bd7)" style="fill: #120000"/>
   </g>
   <g id="patch_335">
    <path d="M 435.799141 236.04375 
L 437.1608 236.04375 
L 437.1608 25.638393 
L 435.799141 25.638393 
z
" clip-path="url(#p14366e4bd7)" style="fill: #110000"/>
   </g>
   <g id="patch_336">
    <path d="M 437.037013 236.04375 
L 438.398672 236.04375 
L 438.398672 25.638393 
L 437.037013 25.638393 
z
" clip-path="url(#p14366e4bd7)" style="fill: #100000"/>
   </g>
   <g id="patch_337">
    <path d="M 438.274885 236.04375 
L 439.636545 236.04375 
L 439.636545 25.638393 
L 438.274885 25.638393 
z
" clip-path="url(#p14366e4bd7)" style="fill: #0f0000"/>
   </g>
   <g id="patch_338">
    <path d="M 439.512757 236.04375 
L 440.874417 236.04375 
L 440.874417 25.638393 
L 439.512757 25.638393 
z
" clip-path="url(#p14366e4bd7)" style="fill: #0e0000"/>
   </g>
   <g id="patch_339">
    <path d="M 440.75063 236.04375 
L 442.112289 236.04375 
L 442.112289 25.638393 
L 440.75063 25.638393 
z
" clip-path="url(#p14366e4bd7)" style="fill: #0d0000"/>
   </g>
   <g id="patch_340">
    <path d="M 441.988502 236.04375 
L 443.350162 236.04375 
L 443.350162 25.638393 
L 441.988502 25.638393 
z
" clip-path="url(#p14366e4bd7)" style="fill: #0d0000"/>
   </g>
   <g id="patch_341">
    <path d="M 443.226374 236.04375 
L 444.588034 236.04375 
L 444.588034 25.638393 
L 443.226374 25.638393 
z
" clip-path="url(#p14366e4bd7)" style="fill: #0c0000"/>
   </g>
   <g id="patch_342">
    <path d="M 444.464247 236.04375 
L 445.825906 236.04375 
L 445.825906 25.638393 
L 444.464247 25.638393 
z
" clip-path="url(#p14366e4bd7)" style="fill: #0b0000"/>
   </g>
   <g id="patch_343">
    <path d="M 445.702119 236.04375 
L 447.063779 236.04375 
L 447.063779 25.638393 
L 445.702119 25.638393 
z
" clip-path="url(#p14366e4bd7)" style="fill: #0a0000"/>
   </g>
   <g id="patch_344">
    <path d="M 446.939991 236.04375 
L 448.301651 236.04375 
L 448.301651 25.638393 
L 446.939991 25.638393 
z
" clip-path="url(#p14366e4bd7)" style="fill: #0a0000"/>
   </g>
   <g id="patch_345">
    <path d="M 448.177864 236.04375 
L 449.539523 236.04375 
L 449.539523 25.638393 
L 448.177864 25.638393 
z
" clip-path="url(#p14366e4bd7)" style="fill: #090000"/>
   </g>
   <g id="patch_346">
    <path d="M 449.415736 236.04375 
L 450.777396 236.04375 
L 450.777396 25.638393 
L 449.415736 25.638393 
z
" clip-path="url(#p14366e4bd7)" style="fill: #080000"/>
   </g>
   <g id="patch_347">
    <path d="M 450.653608 236.04375 
L 452.015268 236.04375 
L 452.015268 25.638393 
L 450.653608 25.638393 
z
" clip-path="url(#p14366e4bd7)" style="fill: #080000"/>
   </g>
   <g id="patch_348">
    <path d="M 451.891481 236.04375 
L 453.25314 236.04375 
L 453.25314 25.638393 
L 451.891481 25.638393 
z
" clip-path="url(#p14366e4bd7)" style="fill: #070000"/>
   </g>
   <g id="patch_349">
    <path d="M 453.129353 236.04375 
L 454.491013 236.04375 
L 454.491013 25.638393 
L 453.129353 25.638393 
z
" clip-path="url(#p14366e4bd7)" style="fill: #070000"/>
   </g>
   <g id="patch_350">
    <path d="M 454.367225 236.04375 
L 455.728885 236.04375 
L 455.728885 25.638393 
L 454.367225 25.638393 
z
" clip-path="url(#p14366e4bd7)" style="fill: #060000"/>
   </g>
   <g id="patch_351">
    <path d="M 455.605098 236.04375 
L 456.966757 236.04375 
L 456.966757 25.638393 
L 455.605098 25.638393 
z
" clip-path="url(#p14366e4bd7)" style="fill: #060000"/>
   </g>
   <g id="patch_352">
    <path d="M 456.84297 236.04375 
L 458.20463 236.04375 
L 458.20463 25.638393 
L 456.84297 25.638393 
z
" clip-path="url(#p14366e4bd7)" style="fill: #060000"/>
   </g>
   <g id="patch_353">
    <path d="M 458.080842 236.04375 
L 459.442502 236.04375 
L 459.442502 25.638393 
L 458.080842 25.638393 
z
" clip-path="url(#p14366e4bd7)" style="fill: #050000"/>
   </g>
   <g id="patch_354">
    <path d="M 459.318715 236.04375 
L 460.680374 236.04375 
L 460.680374 25.638393 
L 459.318715 25.638393 
z
" clip-path="url(#p14366e4bd7)" style="fill: #050000"/>
   </g>
   <g id="patch_355">
    <path d="M 460.556587 236.04375 
L 461.918247 236.04375 
L 461.918247 25.638393 
L 460.556587 25.638393 
z
" clip-path="url(#p14366e4bd7)" style="fill: #040000"/>
   </g>
   <g id="patch_356">
    <path d="M 461.794459 236.04375 
L 463.156119 236.04375 
L 463.156119 25.638393 
L 461.794459 25.638393 
z
" clip-path="url(#p14366e4bd7)" style="fill: #040000"/>
   </g>
   <g id="patch_357">
    <path d="M 463.032332 236.04375 
L 464.393991 236.04375 
L 464.393991 25.638393 
L 463.032332 25.638393 
z
" clip-path="url(#p14366e4bd7)" style="fill: #040000"/>
   </g>
   <g id="patch_358">
    <path d="M 464.270204 236.04375 
L 465.631863 236.04375 
L 465.631863 25.638393 
L 464.270204 25.638393 
z
" clip-path="url(#p14366e4bd7)" style="fill: #040000"/>
   </g>
   <g id="patch_359">
    <path d="M 465.508076 236.04375 
L 466.869736 236.04375 
L 466.869736 25.638393 
L 465.508076 25.638393 
z
" clip-path="url(#p14366e4bd7)" style="fill: #030000"/>
   </g>
   <g id="patch_360">
    <path d="M 466.745949 236.04375 
L 468.107608 236.04375 
L 468.107608 25.638393 
L 466.745949 25.638393 
z
" clip-path="url(#p14366e4bd7)" style="fill: #030000"/>
   </g>
   <g id="patch_361">
    <path d="M 467.983821 236.04375 
L 469.34548 236.04375 
L 469.34548 25.638393 
L 467.983821 25.638393 
z
" clip-path="url(#p14366e4bd7)" style="fill: #030000"/>
   </g>
   <g id="patch_362">
    <path d="M 469.221693 236.04375 
L 470.583353 236.04375 
L 470.583353 25.638393 
L 469.221693 25.638393 
z
" clip-path="url(#p14366e4bd7)" style="fill: #030000"/>
   </g>
   <g id="patch_363">
    <path d="M 470.459566 236.04375 
L 471.821225 236.04375 
L 471.821225 25.638393 
L 470.459566 25.638393 
z
" clip-path="url(#p14366e4bd7)" style="fill: #020000"/>
   </g>
   <g id="patch_364">
    <path d="M 471.697438 236.04375 
L 473.059097 236.04375 
L 473.059097 25.638393 
L 471.697438 25.638393 
z
" clip-path="url(#p14366e4bd7)" style="fill: #020000"/>
   </g>
   <g id="patch_365">
    <path d="M 472.93531 236.04375 
L 474.29697 236.04375 
L 474.29697 25.638393 
L 472.93531 25.638393 
z
" clip-path="url(#p14366e4bd7)" style="fill: #020000"/>
   </g>
   <g id="patch_366">
    <path d="M 474.173183 236.04375 
L 475.534842 236.04375 
L 475.534842 25.638393 
L 474.173183 25.638393 
z
" clip-path="url(#p14366e4bd7)" style="fill: #020000"/>
   </g>
   <g id="patch_367">
    <path d="M 475.411055 236.04375 
L 476.772714 236.04375 
L 476.772714 25.638393 
L 475.411055 25.638393 
z
" clip-path="url(#p14366e4bd7)" style="fill: #020000"/>
   </g>
   <g id="patch_368">
    <path d="M 476.648927 236.04375 
L 478.010587 236.04375 
L 478.010587 25.638393 
L 476.648927 25.638393 
z
" clip-path="url(#p14366e4bd7)" style="fill: #020000"/>
   </g>
   <g id="patch_369">
    <path d="M 477.886799 236.04375 
L 479.248459 236.04375 
L 479.248459 25.638393 
L 477.886799 25.638393 
z
" clip-path="url(#p14366e4bd7)" style="fill: #020000"/>
   </g>
   <g id="patch_370">
    <path d="M 479.124672 236.04375 
L 480.486331 236.04375 
L 480.486331 25.638393 
L 479.124672 25.638393 
z
" clip-path="url(#p14366e4bd7)" style="fill: #010000"/>
   </g>
   <g id="patch_371">
    <path d="M 480.362544 236.04375 
L 481.724204 236.04375 
L 481.724204 25.638393 
L 480.362544 25.638393 
z
" clip-path="url(#p14366e4bd7)" style="fill: #010000"/>
   </g>
   <g id="patch_372">
    <path d="M 481.600416 236.04375 
L 482.962076 236.04375 
L 482.962076 25.638393 
L 481.600416 25.638393 
z
" clip-path="url(#p14366e4bd7)" style="fill: #010000"/>
   </g>
   <g id="patch_373">
    <path d="M 482.838289 236.04375 
L 484.199948 236.04375 
L 484.199948 25.638393 
L 482.838289 25.638393 
z
" clip-path="url(#p14366e4bd7)" style="fill: #010000"/>
   </g>
   <g id="patch_374">
    <path d="M 484.076161 236.04375 
L 485.437821 236.04375 
L 485.437821 25.638393 
L 484.076161 25.638393 
z
" clip-path="url(#p14366e4bd7)" style="fill: #010000"/>
   </g>
   <g id="patch_375">
    <path d="M 485.314033 236.04375 
L 486.675693 236.04375 
L 486.675693 25.638393 
L 485.314033 25.638393 
z
" clip-path="url(#p14366e4bd7)" style="fill: #010000"/>
   </g>
   <g id="patch_376">
    <path d="M 486.551906 236.04375 
L 487.913565 236.04375 
L 487.913565 25.638393 
L 486.551906 25.638393 
z
" clip-path="url(#p14366e4bd7)" style="fill: #010000"/>
   </g>
   <g id="patch_377">
    <path d="M 487.789778 236.04375 
L 489.151438 236.04375 
L 489.151438 25.638393 
L 487.789778 25.638393 
z
" clip-path="url(#p14366e4bd7)" style="fill: #010000"/>
   </g>
   <g id="patch_378">
    <path d="M 489.02765 236.04375 
L 490.38931 236.04375 
L 490.38931 25.638393 
L 489.02765 25.638393 
z
" clip-path="url(#p14366e4bd7)" style="fill: #010000"/>
   </g>
   <g id="patch_379">
    <path d="M 490.265523 236.04375 
L 491.627182 236.04375 
L 491.627182 25.638393 
L 490.265523 25.638393 
z
" clip-path="url(#p14366e4bd7)" style="fill: #010000"/>
   </g>
   <g id="patch_380">
    <path d="M 491.503395 236.04375 
L 492.865055 236.04375 
L 492.865055 25.638393 
L 491.503395 25.638393 
z
" clip-path="url(#p14366e4bd7)" style="fill: #010000"/>
   </g>
   <g id="patch_381">
    <path d="M 492.741267 236.04375 
L 494.102927 236.04375 
L 494.102927 25.638393 
L 492.741267 25.638393 
z
" clip-path="url(#p14366e4bd7)" style="fill: #010000"/>
   </g>
   <g id="patch_382">
    <path d="M 493.97914 236.04375 
L 495.340799 236.04375 
L 495.340799 25.638393 
L 493.97914 25.638393 
z
" clip-path="url(#p14366e4bd7)" style="fill: #010000"/>
   </g>
   <g id="patch_383">
    <path d="M 495.217012 236.04375 
L 496.578672 236.04375 
L 496.578672 25.638393 
L 495.217012 25.638393 
z
" clip-path="url(#p14366e4bd7)" style="fill: #010000"/>
   </g>
   <g id="patch_384">
    <path d="M 496.454884 236.04375 
L 497.816544 236.04375 
L 497.816544 25.638393 
L 496.454884 25.638393 
z
" clip-path="url(#p14366e4bd7)" style="fill: #010000"/>
   </g>
   <g id="patch_385">
    <path d="M 497.692757 236.04375 
L 499.054416 236.04375 
L 499.054416 25.638393 
L 497.692757 25.638393 
z
" clip-path="url(#p14366e4bd7)" style="fill: #010000"/>
   </g>
   <g id="patch_386">
    <path d="M 498.930629 236.04375 
L 500.292289 236.04375 
L 500.292289 25.638393 
L 498.930629 25.638393 
z
" clip-path="url(#p14366e4bd7)" style="fill: #000000"/>
   </g>
   <g id="patch_387">
    <path d="M 500.168501 236.04375 
L 501.530161 236.04375 
L 501.530161 25.638393 
L 500.168501 25.638393 
z
" clip-path="url(#p14366e4bd7)" style="fill: #000000"/>
   </g>
   <g id="patch_388">
    <path d="M 501.406374 236.04375 
L 502.768033 236.04375 
L 502.768033 25.638393 
L 501.406374 25.638393 
z
" clip-path="url(#p14366e4bd7)" style="fill: #000000"/>
   </g>
   <g id="patch_389">
    <path d="M 502.644246 236.04375 
L 504.005905 236.04375 
L 504.005905 25.638393 
L 502.644246 25.638393 
z
" clip-path="url(#p14366e4bd7)" style="fill: #000000"/>
   </g>
   <g id="patch_390">
    <path d="M 503.882118 236.04375 
L 505.243778 236.04375 
L 505.243778 25.638393 
L 503.882118 25.638393 
z
" clip-path="url(#p14366e4bd7)" style="fill: #000000"/>
   </g>
   <g id="patch_391">
    <path d="M 505.119991 236.04375 
L 506.48165 236.04375 
L 506.48165 25.638393 
L 505.119991 25.638393 
z
" clip-path="url(#p14366e4bd7)" style="fill: #000000"/>
   </g>
   <g id="patch_392">
    <path d="M 506.357863 236.04375 
L 507.719522 236.04375 
L 507.719522 25.638393 
L 506.357863 25.638393 
z
" clip-path="url(#p14366e4bd7)" style="fill: #000000"/>
   </g>
   <g id="patch_393">
    <path d="M 507.595735 236.04375 
L 508.957395 236.04375 
L 508.957395 25.638393 
L 507.595735 25.638393 
z
" clip-path="url(#p14366e4bd7)" style="fill: #000000"/>
   </g>
   <g id="patch_394">
    <path d="M 508.833608 236.04375 
L 510.195267 236.04375 
L 510.195267 25.638393 
L 508.833608 25.638393 
z
" clip-path="url(#p14366e4bd7)" style="fill: #000000"/>
   </g>
   <g id="patch_395">
    <path d="M 510.07148 236.04375 
L 511.433139 236.04375 
L 511.433139 25.638393 
L 510.07148 25.638393 
z
" clip-path="url(#p14366e4bd7)" style="fill: #000000"/>
   </g>
   <g id="patch_396">
    <path d="M 511.309352 236.04375 
L 512.671012 236.04375 
L 512.671012 25.638393 
L 511.309352 25.638393 
z
" clip-path="url(#p14366e4bd7)" style="fill: #000000"/>
   </g>
   <g id="patch_397">
    <path d="M 512.547225 236.04375 
L 513.908884 236.04375 
L 513.908884 25.638393 
L 512.547225 25.638393 
z
" clip-path="url(#p14366e4bd7)" style="fill: #000000"/>
   </g>
   <g id="patch_398">
    <path d="M 513.785097 236.04375 
L 515.146756 236.04375 
L 515.146756 25.638393 
L 513.785097 25.638393 
z
" clip-path="url(#p14366e4bd7)" style="fill: #000000"/>
   </g>
   <g id="patch_399">
    <path d="M 515.022969 236.04375 
L 516.384629 236.04375 
L 516.384629 25.638393 
L 515.022969 25.638393 
z
" clip-path="url(#p14366e4bd7)" style="fill: #000000"/>
   </g>
   <g id="patch_400">
    <path d="M 516.260841 236.04375 
L 517.622501 236.04375 
L 517.622501 25.638393 
L 516.260841 25.638393 
z
" clip-path="url(#p14366e4bd7)" style="fill: #000000"/>
   </g>
   <g id="patch_401">
    <path d="M 517.498714 236.04375 
L 518.860373 236.04375 
L 518.860373 25.638393 
L 517.498714 25.638393 
z
" clip-path="url(#p14366e4bd7)" style="fill: #000000"/>
   </g>
   <g id="patch_402">
    <path d="M 518.736586 236.04375 
L 520.098246 236.04375 
L 520.098246 25.638393 
L 518.736586 25.638393 
z
" clip-path="url(#p14366e4bd7)" style="fill: #000000"/>
   </g>
   <g id="patch_403">
    <path d="M 519.974458 236.04375 
L 521.336118 236.04375 
L 521.336118 25.638393 
L 519.974458 25.638393 
z
" clip-path="url(#p14366e4bd7)" style="fill: #000000"/>
   </g>
   <g id="matplotlib.axis_1">
    <g id="xtick_1">
     <g id="line2d_1">
      <defs>
       <path id="mf9ec197242" d="M 0 0 
L 0 3.5 
" style="stroke: #000000; stroke-width: 0.8"/>
      </defs>
      <g>
       <use xlink:href="#mf9ec197242" x="49.706763" y="236.04375" style="stroke: #000000; stroke-width: 0.8"/>
      </g>
     </g>
     <g id="text_1">
      <!-- 400 -->
      <g transform="translate(40.163013 250.642187)scale(0.1 -0.1)">
       <defs>
        <path id="DejaVuSans-34" d="M 2419 4116 
L 825 1625 
L 2419 1625 
L 2419 4116 
z
M 2253 4666 
L 3047 4666 
L 3047 1625 
L 3713 1625 
L 3713 1100 
L 3047 1100 
L 3047 0 
L 2419 0 
L 2419 1100 
L 313 1100 
L 313 1709 
L 2253 4666 
z
" transform="scale(0.015625)"/>
        <path id="DejaVuSans-30" d="M 2034 4250 
Q 1547 4250 1301 3770 
Q 1056 3291 1056 2328 
Q 1056 1369 1301 889 
Q 1547 409 2034 409 
Q 2525 409 2770 889 
Q 3016 1369 3016 2328 
Q 3016 3291 2770 3770 
Q 2525 4250 2034 4250 
z
M 2034 4750 
Q 2819 4750 3233 4129 
Q 3647 3509 3647 2328 
Q 3647 1150 3233 529 
Q 2819 -91 2034 -91 
Q 1250 -91 836 529 
Q 422 1150 422 2328 
Q 422 3509 836 4129 
Q 1250 4750 2034 4750 
z
" transform="scale(0.015625)"/>
       </defs>
       <use xlink:href="#DejaVuSans-34"/>
       <use xlink:href="#DejaVuSans-30" x="63.623047"/>
       <use xlink:href="#DejaVuSans-30" x="127.246094"/>
      </g>
     </g>
    </g>
    <g id="xtick_2">
     <g id="line2d_2">
      <g>
       <use xlink:href="#mf9ec197242" x="111.600379" y="236.04375" style="stroke: #000000; stroke-width: 0.8"/>
      </g>
     </g>
     <g id="text_2">
      <!-- 450 -->
      <g transform="translate(102.056629 250.642187)scale(0.1 -0.1)">
       <defs>
        <path id="DejaVuSans-35" d="M 691 4666 
L 3169 4666 
L 3169 4134 
L 1269 4134 
L 1269 2991 
Q 1406 3038 1543 3061 
Q 1681 3084 1819 3084 
Q 2600 3084 3056 2656 
Q 3513 2228 3513 1497 
Q 3513 744 3044 326 
Q 2575 -91 1722 -91 
Q 1428 -91 1123 -41 
Q 819 9 494 109 
L 494 744 
Q 775 591 1075 516 
Q 1375 441 1709 441 
Q 2250 441 2565 725 
Q 2881 1009 2881 1497 
Q 2881 1984 2565 2268 
Q 2250 2553 1709 2553 
Q 1456 2553 1204 2497 
Q 953 2441 691 2322 
L 691 4666 
z
" transform="scale(0.015625)"/>
       </defs>
       <use xlink:href="#DejaVuSans-34"/>
       <use xlink:href="#DejaVuSans-35" x="63.623047"/>
       <use xlink:href="#DejaVuSans-30" x="127.246094"/>
      </g>
     </g>
    </g>
    <g id="xtick_3">
     <g id="line2d_3">
      <g>
       <use xlink:href="#mf9ec197242" x="173.493995" y="236.04375" style="stroke: #000000; stroke-width: 0.8"/>
      </g>
     </g>
     <g id="text_3">
      <!-- 500 -->
      <g transform="translate(163.950245 250.642187)scale(0.1 -0.1)">
       <use xlink:href="#DejaVuSans-35"/>
       <use xlink:href="#DejaVuSans-30" x="63.623047"/>
       <use xlink:href="#DejaVuSans-30" x="127.246094"/>
      </g>
     </g>
    </g>
    <g id="xtick_4">
     <g id="line2d_4">
      <g>
       <use xlink:href="#mf9ec197242" x="235.387611" y="236.04375" style="stroke: #000000; stroke-width: 0.8"/>
      </g>
     </g>
     <g id="text_4">
      <!-- 550 -->
      <g transform="translate(225.843861 250.642187)scale(0.1 -0.1)">
       <use xlink:href="#DejaVuSans-35"/>
       <use xlink:href="#DejaVuSans-35" x="63.623047"/>
       <use xlink:href="#DejaVuSans-30" x="127.246094"/>
      </g>
     </g>
    </g>
    <g id="xtick_5">
     <g id="line2d_5">
      <g>
       <use xlink:href="#mf9ec197242" x="297.281228" y="236.04375" style="stroke: #000000; stroke-width: 0.8"/>
      </g>
     </g>
     <g id="text_5">
      <!-- 600 -->
      <g transform="translate(287.737478 250.642187)scale(0.1 -0.1)">
       <defs>
        <path id="DejaVuSans-36" d="M 2113 2584 
Q 1688 2584 1439 2293 
Q 1191 2003 1191 1497 
Q 1191 994 1439 701 
Q 1688 409 2113 409 
Q 2538 409 2786 701 
Q 3034 994 3034 1497 
Q 3034 2003 2786 2293 
Q 2538 2584 2113 2584 
z
M 3366 4563 
L 3366 3988 
Q 3128 4100 2886 4159 
Q 2644 4219 2406 4219 
Q 1781 4219 1451 3797 
Q 1122 3375 1075 2522 
Q 1259 2794 1537 2939 
Q 1816 3084 2150 3084 
Q 2853 3084 3261 2657 
Q 3669 2231 3669 1497 
Q 3669 778 3244 343 
Q 2819 -91 2113 -91 
Q 1303 -91 875 529 
Q 447 1150 447 2328 
Q 447 3434 972 4092 
Q 1497 4750 2381 4750 
Q 2619 4750 2861 4703 
Q 3103 4656 3366 4563 
z
" transform="scale(0.015625)"/>
       </defs>
       <use xlink:href="#DejaVuSans-36"/>
       <use xlink:href="#DejaVuSans-30" x="63.623047"/>
       <use xlink:href="#DejaVuSans-30" x="127.246094"/>
      </g>
     </g>
    </g>
    <g id="xtick_6">
     <g id="line2d_6">
      <g>
       <use xlink:href="#mf9ec197242" x="359.174844" y="236.04375" style="stroke: #000000; stroke-width: 0.8"/>
      </g>
     </g>
     <g id="text_6">
      <!-- 650 -->
      <g transform="translate(349.631094 250.642187)scale(0.1 -0.1)">
       <use xlink:href="#DejaVuSans-36"/>
       <use xlink:href="#DejaVuSans-35" x="63.623047"/>
       <use xlink:href="#DejaVuSans-30" x="127.246094"/>
      </g>
     </g>
    </g>
    <g id="xtick_7">
     <g id="line2d_7">
      <g>
       <use xlink:href="#mf9ec197242" x="421.06846" y="236.04375" style="stroke: #000000; stroke-width: 0.8"/>
      </g>
     </g>
     <g id="text_7">
      <!-- 700 -->
      <g transform="translate(411.52471 250.642187)scale(0.1 -0.1)">
       <defs>
        <path id="DejaVuSans-37" d="M 525 4666 
L 3525 4666 
L 3525 4397 
L 1831 0 
L 1172 0 
L 2766 4134 
L 525 4134 
L 525 4666 
z
" transform="scale(0.015625)"/>
       </defs>
       <use xlink:href="#DejaVuSans-37"/>
       <use xlink:href="#DejaVuSans-30" x="63.623047"/>
       <use xlink:href="#DejaVuSans-30" x="127.246094"/>
      </g>
     </g>
    </g>
    <g id="xtick_8">
     <g id="line2d_8">
      <g>
       <use xlink:href="#mf9ec197242" x="482.962076" y="236.04375" style="stroke: #000000; stroke-width: 0.8"/>
      </g>
     </g>
     <g id="text_8">
      <!-- 750 -->
      <g transform="translate(473.418326 250.642187)scale(0.1 -0.1)">
       <use xlink:href="#DejaVuSans-37"/>
       <use xlink:href="#DejaVuSans-35" x="63.623047"/>
       <use xlink:href="#DejaVuSans-30" x="127.246094"/>
      </g>
     </g>
    </g>
    <g id="xtick_9">
     <g id="line2d_9">
      <g>
       <use xlink:href="#mf9ec197242" x="544.855692" y="236.04375" style="stroke: #000000; stroke-width: 0.8"/>
      </g>
     </g>
     <g id="text_9">
      <!-- 800 -->
      <g transform="translate(535.311942 250.642187)scale(0.1 -0.1)">
       <defs>
        <path id="DejaVuSans-38" d="M 2034 2216 
Q 1584 2216 1326 1975 
Q 1069 1734 1069 1313 
Q 1069 891 1326 650 
Q 1584 409 2034 409 
Q 2484 409 2743 651 
Q 3003 894 3003 1313 
Q 3003 1734 2745 1975 
Q 2488 2216 2034 2216 
z
M 1403 2484 
Q 997 2584 770 2862 
Q 544 3141 544 3541 
Q 544 4100 942 4425 
Q 1341 4750 2034 4750 
Q 2731 4750 3128 4425 
Q 3525 4100 3525 3541 
Q 3525 3141 3298 2862 
Q 3072 2584 2669 2484 
Q 3125 2378 3379 2068 
Q 3634 1759 3634 1313 
Q 3634 634 3220 271 
Q 2806 -91 2034 -91 
Q 1263 -91 848 271 
Q 434 634 434 1313 
Q 434 1759 690 2068 
Q 947 2378 1403 2484 
z
M 1172 3481 
Q 1172 3119 1398 2916 
Q 1625 2713 2034 2713 
Q 2441 2713 2670 2916 
Q 2900 3119 2900 3481 
Q 2900 3844 2670 4047 
Q 2441 4250 2034 4250 
Q 1625 4250 1398 4047 
Q 1172 3844 1172 3481 
z
" transform="scale(0.015625)"/>
       </defs>
       <use xlink:href="#DejaVuSans-38"/>
       <use xlink:href="#DejaVuSans-30" x="63.623047"/>
       <use xlink:href="#DejaVuSans-30" x="127.246094"/>
      </g>
     </g>
    </g>
    <g id="text_10">
     <!-- $\lambda$/nm -->
     <g transform="translate(260.380824 264.320312)scale(0.1 -0.1)">
      <defs>
       <path id="DejaVuSans-Oblique-3bb" d="M 2350 4316 
L 3125 0 
L 2516 0 
L 2038 2588 
L 328 0 
L -281 0 
L 1903 3356 
L 1794 3975 
Q 1725 4369 1391 4369 
L 1091 4369 
L 1184 4863 
L 1550 4856 
Q 2253 4847 2350 4316 
z
" transform="scale(0.015625)"/>
       <path id="DejaVuSans-2f" d="M 1625 4666 
L 2156 4666 
L 531 -594 
L 0 -594 
L 1625 4666 
z
" transform="scale(0.015625)"/>
       <path id="DejaVuSans-6e" d="M 3513 2113 
L 3513 0 
L 2938 0 
L 2938 2094 
Q 2938 2591 2744 2837 
Q 2550 3084 2163 3084 
Q 1697 3084 1428 2787 
Q 1159 2491 1159 1978 
L 1159 0 
L 581 0 
L 581 3500 
L 1159 3500 
L 1159 2956 
Q 1366 3272 1645 3428 
Q 1925 3584 2291 3584 
Q 2894 3584 3203 3211 
Q 3513 2838 3513 2113 
z
" transform="scale(0.015625)"/>
       <path id="DejaVuSans-6d" d="M 3328 2828 
Q 3544 3216 3844 3400 
Q 4144 3584 4550 3584 
Q 5097 3584 5394 3201 
Q 5691 2819 5691 2113 
L 5691 0 
L 5113 0 
L 5113 2094 
Q 5113 2597 4934 2840 
Q 4756 3084 4391 3084 
Q 3944 3084 3684 2787 
Q 3425 2491 3425 1978 
L 3425 0 
L 2847 0 
L 2847 2094 
Q 2847 2600 2669 2842 
Q 2491 3084 2119 3084 
Q 1678 3084 1418 2786 
Q 1159 2488 1159 1978 
L 1159 0 
L 581 0 
L 581 3500 
L 1159 3500 
L 1159 2956 
Q 1356 3278 1631 3431 
Q 1906 3584 2284 3584 
Q 2666 3584 2933 3390 
Q 3200 3197 3328 2828 
z
" transform="scale(0.015625)"/>
      </defs>
      <use xlink:href="#DejaVuSans-Oblique-3bb" transform="translate(0 0.015625)"/>
      <use xlink:href="#DejaVuSans-2f" transform="translate(59.179688 0.015625)"/>
      <use xlink:href="#DejaVuSans-6e" transform="translate(92.871094 0.015625)"/>
      <use xlink:href="#DejaVuSans-6d" transform="translate(156.25 0.015625)"/>
     </g>
    </g>
   </g>
   <g id="patch_404">
    <path d="M 0 236.04375 
L 546.161647 236.04375 
" style="fill: none; stroke: #000000; stroke-width: 0.8; stroke-linejoin: miter; stroke-linecap: square"/>
   </g>
   <g id="text_11">
    <!-- CIE 1931-XYZ -->
    <g transform="translate(232.403636 9.118125)scale(0.12 -0.12)">
     <defs>
      <path id="DejaVuSans-43" d="M 4122 4306 
L 4122 3641 
Q 3803 3938 3442 4084 
Q 3081 4231 2675 4231 
Q 1875 4231 1450 3742 
Q 1025 3253 1025 2328 
Q 1025 1406 1450 917 
Q 1875 428 2675 428 
Q 3081 428 3442 575 
Q 3803 722 4122 1019 
L 4122 359 
Q 3791 134 3420 21 
Q 3050 -91 2638 -91 
Q 1578 -91 968 557 
Q 359 1206 359 2328 
Q 359 3453 968 4101 
Q 1578 4750 2638 4750 
Q 3056 4750 3426 4639 
Q 3797 4528 4122 4306 
z
" transform="scale(0.015625)"/>
      <path id="DejaVuSans-49" d="M 628 4666 
L 1259 4666 
L 1259 0 
L 628 0 
L 628 4666 
z
" transform="scale(0.015625)"/>
      <path id="DejaVuSans-45" d="M 628 4666 
L 3578 4666 
L 3578 4134 
L 1259 4134 
L 1259 2753 
L 3481 2753 
L 3481 2222 
L 1259 2222 
L 1259 531 
L 3634 531 
L 3634 0 
L 628 0 
L 628 4666 
z
" transform="scale(0.015625)"/>
      <path id="DejaVuSans-20" transform="scale(0.015625)"/>
      <path id="DejaVuSans-31" d="M 794 531 
L 1825 531 
L 1825 4091 
L 703 3866 
L 703 4441 
L 1819 4666 
L 2450 4666 
L 2450 531 
L 3481 531 
L 3481 0 
L 794 0 
L 794 531 
z
" transform="scale(0.015625)"/>
      <path id="DejaVuSans-39" d="M 703 97 
L 703 672 
Q 941 559 1184 500 
Q 1428 441 1663 441 
Q 2288 441 2617 861 
Q 2947 1281 2994 2138 
Q 2813 1869 2534 1725 
Q 2256 1581 1919 1581 
Q 1219 1581 811 2004 
Q 403 2428 403 3163 
Q 403 3881 828 4315 
Q 1253 4750 1959 4750 
Q 2769 4750 3195 4129 
Q 3622 3509 3622 2328 
Q 3622 1225 3098 567 
Q 2575 -91 1691 -91 
Q 1453 -91 1209 -44 
Q 966 3 703 97 
z
M 1959 2075 
Q 2384 2075 2632 2365 
Q 2881 2656 2881 3163 
Q 2881 3666 2632 3958 
Q 2384 4250 1959 4250 
Q 1534 4250 1286 3958 
Q 1038 3666 1038 3163 
Q 1038 2656 1286 2365 
Q 1534 2075 1959 2075 
z
" transform="scale(0.015625)"/>
      <path id="DejaVuSans-33" d="M 2597 2516 
Q 3050 2419 3304 2112 
Q 3559 1806 3559 1356 
Q 3559 666 3084 287 
Q 2609 -91 1734 -91 
Q 1441 -91 1130 -33 
Q 819 25 488 141 
L 488 750 
Q 750 597 1062 519 
Q 1375 441 1716 441 
Q 2309 441 2620 675 
Q 2931 909 2931 1356 
Q 2931 1769 2642 2001 
Q 2353 2234 1838 2234 
L 1294 2234 
L 1294 2753 
L 1863 2753 
Q 2328 2753 2575 2939 
Q 2822 3125 2822 3475 
Q 2822 3834 2567 4026 
Q 2313 4219 1838 4219 
Q 1578 4219 1281 4162 
Q 984 4106 628 3988 
L 628 4550 
Q 988 4650 1302 4700 
Q 1616 4750 1894 4750 
Q 2613 4750 3031 4423 
Q 3450 4097 3450 3541 
Q 3450 3153 3228 2886 
Q 3006 2619 2597 2516 
z
" transform="scale(0.015625)"/>
      <path id="DejaVuSans-2d" d="M 313 2009 
L 1997 2009 
L 1997 1497 
L 313 1497 
L 313 2009 
z
" transform="scale(0.015625)"/>
      <path id="DejaVuSans-58" d="M 403 4666 
L 1081 4666 
L 2241 2931 
L 3406 4666 
L 4084 4666 
L 2584 2425 
L 4184 0 
L 3506 0 
L 2194 1984 
L 872 0 
L 191 0 
L 1856 2491 
L 403 4666 
z
" transform="scale(0.015625)"/>
      <path id="DejaVuSans-59" d="M -13 4666 
L 666 4666 
L 1959 2747 
L 3244 4666 
L 3922 4666 
L 2272 2222 
L 2272 0 
L 1638 0 
L 1638 2222 
L -13 4666 
z
" transform="scale(0.015625)"/>
      <path id="DejaVuSans-5a" d="M 359 4666 
L 4025 4666 
L 4025 4184 
L 1075 531 
L 4097 531 
L 4097 0 
L 288 0 
L 288 481 
L 3238 4134 
L 359 4134 
L 359 4666 
z
" transform="scale(0.015625)"/>
     </defs>
     <use xlink:href="#DejaVuSans-43"/>
     <use xlink:href="#DejaVuSans-49" x="69.824219"/>
     <use xlink:href="#DejaVuSans-45" x="99.316406"/>
     <use xlink:href="#DejaVuSans-20" x="162.5"/>
     <use xlink:href="#DejaVuSans-31" x="194.287109"/>
     <use xlink:href="#DejaVuSans-39" x="257.910156"/>
     <use xlink:href="#DejaVuSans-33" x="321.533203"/>
     <use xlink:href="#DejaVuSans-31" x="385.15625"/>
     <use xlink:href="#DejaVuSans-2d" x="448.779297"/>
     <use xlink:href="#DejaVuSans-58" x="479.863281"/>
     <use xlink:href="#DejaVuSans-59" x="548.369141"/>
     <use xlink:href="#DejaVuSans-5a" x="609.453125"/>
    </g>
   </g>
  </g>
 </g>
 <defs>
  <clipPath id="p14366e4bd7">
   <rect x="0" y="15.118125" width="546.161647" height="220.925625"/>
  </clipPath>
 </defs>
</svg>
