<?xml version="1.0" encoding="utf-8" standalone="no"?>
<!DOCTYPE svg PUBLIC "-//W3C//DTD SVG 1.1//EN"
  "http://www.w3.org/Graphics/SVG/1.1/DTD/svg11.dtd">
<svg xmlns:xlink="http://www.w3.org/1999/xlink" width="698.865625pt" height="378.114375pt" viewBox="0 0 698.865625 378.114375" xmlns="http://www.w3.org/2000/svg" version="1.1">
 <metadata>
  <rdf:RDF xmlns:dc="http://purl.org/dc/elements/1.1/" xmlns:cc="http://creativecommons.org/ns#" xmlns:rdf="http://www.w3.org/1999/02/22-rdf-syntax-ns#">
   <cc:Work>
    <dc:type rdf:resource="http://purl.org/dc/dcmitype/StillImage"/>
    <dc:date>2023-01-18T22:09:25.061184</dc:date>
    <dc:format>image/svg+xml</dc:format>
    <dc:creator>
     <cc:Agent>
      <dc:title>Matplotlib v3.5.3, https://matplotlib.org/</dc:title>
     </cc:Agent>
    </dc:creator>
   </cc:Work>
  </rdf:RDF>
 </metadata>
 <defs>
  <style type="text/css">*{stroke-linejoin: round; stroke-linecap: butt}</style>
 </defs>
 <g id="figure_1">
  <g id="patch_1">
   <path d="M 0 378.114375 
L 698.865625 378.114375 
L 698.865625 0 
L 0 0 
L 0 378.114375 
z
" style="fill: none"/>
  </g>
  <g id="axes_1">
   <g id="patch_2">
    <path d="M 29.265625 347.758125 
L 698.865625 347.758125 
L 698.865625 15.118125 
L 29.265625 15.118125 
L 29.265625 347.758125 
z
" style="fill: none"/>
   </g>
   <g id="matplotlib.axis_1">
    <g id="xtick_1">
     <g id="line2d_1">
      <defs>
       <path id="m006b7f2d64" d="M 0 0 
L 0 3.5 
" style="stroke: #000000; stroke-width: 0.8"/>
      </defs>
      <g>
       <use xlink:href="#m006b7f2d64" x="86.252859" y="347.758125" style="stroke: #000000; stroke-width: 0.8"/>
      </g>
     </g>
     <g id="text_1">
      <!-- 400 -->
      <g transform="translate(76.709109 362.356562)scale(0.1 -0.1)">
       <defs>
        <path id="DejaVuSans-34" d="M 2419 4116 
L 825 1625 
L 2419 1625 
L 2419 4116 
z
M 2253 4666 
L 3047 4666 
L 3047 1625 
L 3713 1625 
L 3713 1100 
L 3047 1100 
L 3047 0 
L 2419 0 
L 2419 1100 
L 313 1100 
L 313 1709 
L 2253 4666 
z
" transform="scale(0.015625)"/>
        <path id="DejaVuSans-30" d="M 2034 4250 
Q 1547 4250 1301 3770 
Q 1056 3291 1056 2328 
Q 1056 1369 1301 889 
Q 1547 409 2034 409 
Q 2525 409 2770 889 
Q 3016 1369 3016 2328 
Q 3016 3291 2770 3770 
Q 2525 4250 2034 4250 
z
M 2034 4750 
Q 2819 4750 3233 4129 
Q 3647 3509 3647 2328 
Q 3647 1150 3233 529 
Q 2819 -91 2034 -91 
Q 1250 -91 836 529 
Q 422 1150 422 2328 
Q 422 3509 836 4129 
Q 1250 4750 2034 4750 
z
" transform="scale(0.015625)"/>
       </defs>
       <use xlink:href="#DejaVuSans-34"/>
       <use xlink:href="#DejaVuSans-30" x="63.623047"/>
       <use xlink:href="#DejaVuSans-30" x="127.246094"/>
      </g>
     </g>
    </g>
    <g id="xtick_2">
     <g id="line2d_2">
      <g>
       <use xlink:href="#m006b7f2d64" x="228.720944" y="347.758125" style="stroke: #000000; stroke-width: 0.8"/>
      </g>
     </g>
     <g id="text_2">
      <!-- 500 -->
      <g transform="translate(219.177194 362.356562)scale(0.1 -0.1)">
       <defs>
        <path id="DejaVuSans-35" d="M 691 4666 
L 3169 4666 
L 3169 4134 
L 1269 4134 
L 1269 2991 
Q 1406 3038 1543 3061 
Q 1681 3084 1819 3084 
Q 2600 3084 3056 2656 
Q 3513 2228 3513 1497 
Q 3513 744 3044 326 
Q 2575 -91 1722 -91 
Q 1428 -91 1123 -41 
Q 819 9 494 109 
L 494 744 
Q 775 591 1075 516 
Q 1375 441 1709 441 
Q 2250 441 2565 725 
Q 2881 1009 2881 1497 
Q 2881 1984 2565 2268 
Q 2250 2553 1709 2553 
Q 1456 2553 1204 2497 
Q 953 2441 691 2322 
L 691 4666 
z
" transform="scale(0.015625)"/>
       </defs>
       <use xlink:href="#DejaVuSans-35"/>
       <use xlink:href="#DejaVuSans-30" x="63.623047"/>
       <use xlink:href="#DejaVuSans-30" x="127.246094"/>
      </g>
     </g>
    </g>
    <g id="xtick_3">
     <g id="line2d_3">
      <g>
       <use xlink:href="#m006b7f2d64" x="371.189029" y="347.758125" style="stroke: #000000; stroke-width: 0.8"/>
      </g>
     </g>
     <g id="text_3">
      <!-- 600 -->
      <g transform="translate(361.645279 362.356562)scale(0.1 -0.1)">
       <defs>
        <path id="DejaVuSans-36" d="M 2113 2584 
Q 1688 2584 1439 2293 
Q 1191 2003 1191 1497 
Q 1191 994 1439 701 
Q 1688 409 2113 409 
Q 2538 409 2786 701 
Q 3034 994 3034 1497 
Q 3034 2003 2786 2293 
Q 2538 2584 2113 2584 
z
M 3366 4563 
L 3366 3988 
Q 3128 4100 2886 4159 
Q 2644 4219 2406 4219 
Q 1781 4219 1451 3797 
Q 1122 3375 1075 2522 
Q 1259 2794 1537 2939 
Q 1816 3084 2150 3084 
Q 2853 3084 3261 2657 
Q 3669 2231 3669 1497 
Q 3669 778 3244 343 
Q 2819 -91 2113 -91 
Q 1303 -91 875 529 
Q 447 1150 447 2328 
Q 447 3434 972 4092 
Q 1497 4750 2381 4750 
Q 2619 4750 2861 4703 
Q 3103 4656 3366 4563 
z
" transform="scale(0.015625)"/>
       </defs>
       <use xlink:href="#DejaVuSans-36"/>
       <use xlink:href="#DejaVuSans-30" x="63.623047"/>
       <use xlink:href="#DejaVuSans-30" x="127.246094"/>
      </g>
     </g>
    </g>
    <g id="xtick_4">
     <g id="line2d_4">
      <g>
       <use xlink:href="#m006b7f2d64" x="513.657114" y="347.758125" style="stroke: #000000; stroke-width: 0.8"/>
      </g>
     </g>
     <g id="text_4">
      <!-- 700 -->
      <g transform="translate(504.113364 362.356562)scale(0.1 -0.1)">
       <defs>
        <path id="DejaVuSans-37" d="M 525 4666 
L 3525 4666 
L 3525 4397 
L 1831 0 
L 1172 0 
L 2766 4134 
L 525 4134 
L 525 4666 
z
" transform="scale(0.015625)"/>
       </defs>
       <use xlink:href="#DejaVuSans-37"/>
       <use xlink:href="#DejaVuSans-30" x="63.623047"/>
       <use xlink:href="#DejaVuSans-30" x="127.246094"/>
      </g>
     </g>
    </g>
    <g id="xtick_5">
     <g id="line2d_5">
      <g>
       <use xlink:href="#m006b7f2d64" x="656.125199" y="347.758125" style="stroke: #000000; stroke-width: 0.8"/>
      </g>
     </g>
     <g id="text_5">
      <!-- 800 -->
      <g transform="translate(646.581449 362.356562)scale(0.1 -0.1)">
       <defs>
        <path id="DejaVuSans-38" d="M 2034 2216 
Q 1584 2216 1326 1975 
Q 1069 1734 1069 1313 
Q 1069 891 1326 650 
Q 1584 409 2034 409 
Q 2484 409 2743 651 
Q 3003 894 3003 1313 
Q 3003 1734 2745 1975 
Q 2488 2216 2034 2216 
z
M 1403 2484 
Q 997 2584 770 2862 
Q 544 3141 544 3541 
Q 544 4100 942 4425 
Q 1341 4750 2034 4750 
Q 2731 4750 3128 4425 
Q 3525 4100 3525 3541 
Q 3525 3141 3298 2862 
Q 3072 2584 2669 2484 
Q 3125 2378 3379 2068 
Q 3634 1759 3634 1313 
Q 3634 634 3220 271 
Q 2806 -91 2034 -91 
Q 1263 -91 848 271 
Q 434 634 434 1313 
Q 434 1759 690 2068 
Q 947 2378 1403 2484 
z
M 1172 3481 
Q 1172 3119 1398 2916 
Q 1625 2713 2034 2713 
Q 2441 2713 2670 2916 
Q 2900 3119 2900 3481 
Q 2900 3844 2670 4047 
Q 2441 4250 2034 4250 
Q 1625 4250 1398 4047 
Q 1172 3844 1172 3481 
z
" transform="scale(0.015625)"/>
       </defs>
       <use xlink:href="#DejaVuSans-38"/>
       <use xlink:href="#DejaVuSans-30" x="63.623047"/>
       <use xlink:href="#DejaVuSans-30" x="127.246094"/>
      </g>
     </g>
    </g>
    <g id="text_6">
     <!-- $\lambda$/nm -->
     <g transform="translate(351.365625 376.034688)scale(0.1 -0.1)">
      <defs>
       <path id="DejaVuSans-Oblique-3bb" d="M 2350 4316 
L 3125 0 
L 2516 0 
L 2038 2588 
L 328 0 
L -281 0 
L 1903 3356 
L 1794 3975 
Q 1725 4369 1391 4369 
L 1091 4369 
L 1184 4863 
L 1550 4856 
Q 2253 4847 2350 4316 
z
" transform="scale(0.015625)"/>
       <path id="DejaVuSans-2f" d="M 1625 4666 
L 2156 4666 
L 531 -594 
L 0 -594 
L 1625 4666 
z
" transform="scale(0.015625)"/>
       <path id="DejaVuSans-6e" d="M 3513 2113 
L 3513 0 
L 2938 0 
L 2938 2094 
Q 2938 2591 2744 2837 
Q 2550 3084 2163 3084 
Q 1697 3084 1428 2787 
Q 1159 2491 1159 1978 
L 1159 0 
L 581 0 
L 581 3500 
L 1159 3500 
L 1159 2956 
Q 1366 3272 1645 3428 
Q 1925 3584 2291 3584 
Q 2894 3584 3203 3211 
Q 3513 2838 3513 2113 
z
" transform="scale(0.015625)"/>
       <path id="DejaVuSans-6d" d="M 3328 2828 
Q 3544 3216 3844 3400 
Q 4144 3584 4550 3584 
Q 5097 3584 5394 3201 
Q 5691 2819 5691 2113 
L 5691 0 
L 5113 0 
L 5113 2094 
Q 5113 2597 4934 2840 
Q 4756 3084 4391 3084 
Q 3944 3084 3684 2787 
Q 3425 2491 3425 1978 
L 3425 0 
L 2847 0 
L 2847 2094 
Q 2847 2600 2669 2842 
Q 2491 3084 2119 3084 
Q 1678 3084 1418 2786 
Q 1159 2488 1159 1978 
L 1159 0 
L 581 0 
L 581 3500 
L 1159 3500 
L 1159 2956 
Q 1356 3278 1631 3431 
Q 1906 3584 2284 3584 
Q 2666 3584 2933 3390 
Q 3200 3197 3328 2828 
z
" transform="scale(0.015625)"/>
      </defs>
      <use xlink:href="#DejaVuSans-Oblique-3bb" transform="translate(0 0.015625)"/>
      <use xlink:href="#DejaVuSans-2f" transform="translate(59.179688 0.015625)"/>
      <use xlink:href="#DejaVuSans-6e" transform="translate(92.871094 0.015625)"/>
      <use xlink:href="#DejaVuSans-6d" transform="translate(156.25 0.015625)"/>
     </g>
    </g>
   </g>
   <g id="matplotlib.axis_2">
    <g id="ytick_1">
     <g id="line2d_6">
      <defs>
       <path id="m6b8f7bd811" d="M 0 0 
L -3.5 0 
" style="stroke: #000000; stroke-width: 0.8"/>
      </defs>
      <g>
       <use xlink:href="#m6b8f7bd811" x="29.265625" y="332.638125" style="stroke: #000000; stroke-width: 0.8"/>
      </g>
     </g>
     <g id="text_7">
      <!-- 0.00 -->
      <g transform="translate(0 336.437344)scale(0.1 -0.1)">
       <defs>
        <path id="DejaVuSans-2e" d="M 684 794 
L 1344 794 
L 1344 0 
L 684 0 
L 684 794 
z
" transform="scale(0.015625)"/>
       </defs>
       <use xlink:href="#DejaVuSans-30"/>
       <use xlink:href="#DejaVuSans-2e" x="63.623047"/>
       <use xlink:href="#DejaVuSans-30" x="95.410156"/>
       <use xlink:href="#DejaVuSans-30" x="159.033203"/>
      </g>
     </g>
    </g>
    <g id="ytick_2">
     <g id="line2d_7">
      <g>
       <use xlink:href="#m6b8f7bd811" x="29.265625" y="290.23692" style="stroke: #000000; stroke-width: 0.8"/>
      </g>
     </g>
     <g id="text_8">
      <!-- 0.25 -->
      <g transform="translate(0 294.036139)scale(0.1 -0.1)">
       <defs>
        <path id="DejaVuSans-32" d="M 1228 531 
L 3431 531 
L 3431 0 
L 469 0 
L 469 531 
Q 828 903 1448 1529 
Q 2069 2156 2228 2338 
Q 2531 2678 2651 2914 
Q 2772 3150 2772 3378 
Q 2772 3750 2511 3984 
Q 2250 4219 1831 4219 
Q 1534 4219 1204 4116 
Q 875 4013 500 3803 
L 500 4441 
Q 881 4594 1212 4672 
Q 1544 4750 1819 4750 
Q 2544 4750 2975 4387 
Q 3406 4025 3406 3419 
Q 3406 3131 3298 2873 
Q 3191 2616 2906 2266 
Q 2828 2175 2409 1742 
Q 1991 1309 1228 531 
z
" transform="scale(0.015625)"/>
       </defs>
       <use xlink:href="#DejaVuSans-30"/>
       <use xlink:href="#DejaVuSans-2e" x="63.623047"/>
       <use xlink:href="#DejaVuSans-32" x="95.410156"/>
       <use xlink:href="#DejaVuSans-35" x="159.033203"/>
      </g>
     </g>
    </g>
    <g id="ytick_3">
     <g id="line2d_8">
      <g>
       <use xlink:href="#m6b8f7bd811" x="29.265625" y="247.835715" style="stroke: #000000; stroke-width: 0.8"/>
      </g>
     </g>
     <g id="text_9">
      <!-- 0.50 -->
      <g transform="translate(0 251.634934)scale(0.1 -0.1)">
       <use xlink:href="#DejaVuSans-30"/>
       <use xlink:href="#DejaVuSans-2e" x="63.623047"/>
       <use xlink:href="#DejaVuSans-35" x="95.410156"/>
       <use xlink:href="#DejaVuSans-30" x="159.033203"/>
      </g>
     </g>
    </g>
    <g id="ytick_4">
     <g id="line2d_9">
      <g>
       <use xlink:href="#m6b8f7bd811" x="29.265625" y="205.43451" style="stroke: #000000; stroke-width: 0.8"/>
      </g>
     </g>
     <g id="text_10">
      <!-- 0.75 -->
      <g transform="translate(0 209.233729)scale(0.1 -0.1)">
       <use xlink:href="#DejaVuSans-30"/>
       <use xlink:href="#DejaVuSans-2e" x="63.623047"/>
       <use xlink:href="#DejaVuSans-37" x="95.410156"/>
       <use xlink:href="#DejaVuSans-35" x="159.033203"/>
      </g>
     </g>
    </g>
    <g id="ytick_5">
     <g id="line2d_10">
      <g>
       <use xlink:href="#m6b8f7bd811" x="29.265625" y="163.033305" style="stroke: #000000; stroke-width: 0.8"/>
      </g>
     </g>
     <g id="text_11">
      <!-- 1.00 -->
      <g transform="translate(0 166.832524)scale(0.1 -0.1)">
       <defs>
        <path id="DejaVuSans-31" d="M 794 531 
L 1825 531 
L 1825 4091 
L 703 3866 
L 703 4441 
L 1819 4666 
L 2450 4666 
L 2450 531 
L 3481 531 
L 3481 0 
L 794 0 
L 794 531 
z
" transform="scale(0.015625)"/>
       </defs>
       <use xlink:href="#DejaVuSans-31"/>
       <use xlink:href="#DejaVuSans-2e" x="63.623047"/>
       <use xlink:href="#DejaVuSans-30" x="95.410156"/>
       <use xlink:href="#DejaVuSans-30" x="159.033203"/>
      </g>
     </g>
    </g>
    <g id="ytick_6">
     <g id="line2d_11">
      <g>
       <use xlink:href="#m6b8f7bd811" x="29.265625" y="120.6321" style="stroke: #000000; stroke-width: 0.8"/>
      </g>
     </g>
     <g id="text_12">
      <!-- 1.25 -->
      <g transform="translate(0 124.431319)scale(0.1 -0.1)">
       <use xlink:href="#DejaVuSans-31"/>
       <use xlink:href="#DejaVuSans-2e" x="63.623047"/>
       <use xlink:href="#DejaVuSans-32" x="95.410156"/>
       <use xlink:href="#DejaVuSans-35" x="159.033203"/>
      </g>
     </g>
    </g>
    <g id="ytick_7">
     <g id="line2d_12">
      <g>
       <use xlink:href="#m6b8f7bd811" x="29.265625" y="78.230896" style="stroke: #000000; stroke-width: 0.8"/>
      </g>
     </g>
     <g id="text_13">
      <!-- 1.50 -->
      <g transform="translate(0 82.030114)scale(0.1 -0.1)">
       <use xlink:href="#DejaVuSans-31"/>
       <use xlink:href="#DejaVuSans-2e" x="63.623047"/>
       <use xlink:href="#DejaVuSans-35" x="95.410156"/>
       <use xlink:href="#DejaVuSans-30" x="159.033203"/>
      </g>
     </g>
    </g>
    <g id="ytick_8">
     <g id="line2d_13">
      <g>
       <use xlink:href="#m6b8f7bd811" x="29.265625" y="35.829691" style="stroke: #000000; stroke-width: 0.8"/>
      </g>
     </g>
     <g id="text_14">
      <!-- 1.75 -->
      <g transform="translate(0 39.628909)scale(0.1 -0.1)">
       <use xlink:href="#DejaVuSans-31"/>
       <use xlink:href="#DejaVuSans-2e" x="63.623047"/>
       <use xlink:href="#DejaVuSans-37" x="95.410156"/>
       <use xlink:href="#DejaVuSans-35" x="159.033203"/>
      </g>
     </g>
    </g>
   </g>
   <g id="line2d_14">
    <path d="M 29.265625 332.616093 
L 53.485199 332.474537 
L 67.732008 332.147526 
L 76.280093 331.624107 
L 80.554136 331.15385 
L 87.67754 329.974578 
L 90.526902 329.45274 
L 93.376263 328.704989 
L 96.225625 327.586873 
L 99.074987 326.113726 
L 101.924348 324.328235 
L 104.77371 322.170319 
L 106.198391 320.899436 
L 109.047753 317.88961 
L 111.897114 314.251894 
L 113.321795 312.155426 
L 114.746476 309.846629 
L 117.595838 304.586217 
L 121.86988 296.212098 
L 124.719242 291.105348 
L 127.568604 286.538195 
L 130.417965 282.614235 
L 131.842646 280.926209 
L 133.267327 279.418287 
L 134.692008 278.085515 
L 136.116689 276.922942 
L 137.54137 275.930533 
L 138.966051 275.106457 
L 140.390731 274.443099 
L 141.815412 273.932877 
L 143.240093 273.568158 
L 144.664774 273.344297 
L 146.089455 273.251438 
L 148.938816 273.397366 
L 151.788178 273.891544 
L 154.63754 274.665705 
L 158.911582 276.126189 
L 161.760944 277.239136 
L 164.610306 278.585069 
L 167.459668 280.24991 
L 170.309029 282.221752 
L 173.158391 284.475427 
L 176.007753 287.02837 
L 178.857114 290.050355 
L 181.706476 293.654254 
L 188.82988 303.24098 
L 193.103923 308.53728 
L 197.377965 313.426105 
L 201.652008 317.831701 
L 204.50137 320.474447 
L 207.350731 322.809524 
L 210.200093 324.788556 
L 213.049455 326.462334 
L 215.898816 327.903233 
L 218.748178 329.12951 
L 221.59754 330.144934 
L 224.446902 330.955652 
L 227.296263 331.570234 
L 230.145625 331.997498 
L 232.994987 332.226854 
L 235.844348 332.231073 
L 238.69371 331.987426 
L 241.543072 331.453931 
L 244.392434 330.577513 
L 247.241795 329.334644 
L 250.091157 327.702625 
L 252.940519 325.663948 
L 255.78988 323.245646 
L 258.639242 320.488482 
L 261.488604 317.417795 
L 264.337965 314.049437 
L 267.187327 310.400474 
L 271.46137 304.568527 
L 277.160093 296.450257 
L 282.858816 287.863776 
L 288.55754 278.776281 
L 294.256263 269.191693 
L 299.954987 259.122933 
L 305.65371 248.519002 
L 311.352434 237.454306 
L 324.174561 211.869555 
L 331.297965 197.831872 
L 336.996689 187.128638 
L 341.270731 179.600626 
L 344.120093 174.939648 
L 346.969455 170.61844 
L 349.818816 166.662848 
L 352.668178 163.109831 
L 355.51754 159.979333 
L 358.366902 157.269676 
L 361.216263 155.029993 
L 362.640944 154.1347 
L 364.065625 153.416712 
L 365.490306 152.891887 
L 366.914987 152.551863 
L 368.339668 152.380969 
L 369.764348 152.363534 
L 371.189029 152.483886 
L 372.61371 152.732323 
L 374.038391 153.120989 
L 375.463072 153.666981 
L 376.887753 154.387394 
L 378.312434 155.299326 
L 379.737114 156.412459 
L 381.161795 157.714363 
L 384.011157 160.820353 
L 386.860519 164.497419 
L 389.70988 168.716491 
L 392.559242 173.480962 
L 395.408604 178.76517 
L 398.257965 184.586686 
L 401.107327 191.003854 
L 403.956689 197.940352 
L 409.655412 212.627654 
L 413.929455 223.683989 
L 418.203497 234.079882 
L 423.902221 247.234229 
L 429.600944 259.731577 
L 433.874987 268.606658 
L 438.149029 276.920092 
L 440.998391 282.095702 
L 443.847753 286.922028 
L 446.697114 291.391997 
L 449.546476 295.545551 
L 452.395838 299.408606 
L 455.245199 302.985724 
L 458.094561 306.287184 
L 460.943923 309.319158 
L 463.793285 312.082021 
L 466.642646 314.581148 
L 469.492008 316.808804 
L 472.34137 318.747327 
L 475.190731 320.413498 
L 478.040093 321.851258 
L 480.889455 323.092399 
L 485.163497 324.705708 
L 490.862221 326.633333 
L 495.136263 327.824645 
L 499.410306 328.788096 
L 503.684348 329.544988 
L 509.383072 330.292266 
L 516.506476 330.952449 
L 525.054561 331.514101 
L 535.027327 331.941141 
L 547.849455 332.265568 
L 566.370306 332.491852 
L 596.288604 332.605758 
L 690.31754 332.637802 
L 698.865625 332.637913 
L 698.865625 332.637913 
" clip-path="url(#p794dec7b8e)" style="fill: none; stroke: #ff0000; stroke-width: 1.5; stroke-linecap: square"/>
   </g>
   <g id="line2d_15">
    <path d="M 29.265625 332.637461 
L 93.376263 332.529578 
L 106.198391 332.309885 
L 114.746476 331.959706 
L 121.86988 331.40001 
L 130.417965 330.505655 
L 138.966051 329.379257 
L 148.938816 327.829616 
L 156.062221 326.49407 
L 161.760944 325.2152 
L 167.459668 323.721484 
L 174.583072 321.566743 
L 180.281795 319.57584 
L 184.555838 317.843022 
L 188.82988 315.839473 
L 193.103923 313.540622 
L 197.377965 310.929929 
L 203.076689 307.117807 
L 205.926051 305.040419 
L 208.775412 302.746446 
L 211.624774 300.197218 
L 214.474136 297.35693 
L 217.323497 294.182861 
L 220.172859 290.664121 
L 223.022221 286.813464 
L 225.871582 282.596138 
L 228.720944 277.855768 
L 231.570306 272.481704 
L 234.419668 266.613089 
L 238.69371 257.281075 
L 242.967753 247.326901 
L 248.666476 233.085981 
L 254.365199 218.854458 
L 257.214561 212.218703 
L 260.063923 206.203906 
L 262.913285 200.713255 
L 265.762646 195.578706 
L 268.612008 190.796461 
L 271.46137 186.43877 
L 274.310731 182.544237 
L 277.160093 179.070594 
L 280.009455 175.968251 
L 282.858816 173.222722 
L 285.708178 170.835127 
L 288.55754 168.798614 
L 291.406902 167.100005 
L 294.256263 165.731311 
L 297.105625 164.676301 
L 299.954987 163.889793 
L 302.804348 163.355843 
L 305.65371 163.076012 
L 308.503072 163.05761 
L 311.352434 163.317309 
L 314.201795 163.881329 
L 317.051157 164.77301 
L 319.900519 165.963381 
L 322.74988 167.428835 
L 325.599242 169.163366 
L 328.448604 171.174337 
L 331.297965 173.464137 
L 334.147327 176.015265 
L 336.996689 178.805468 
L 339.846051 181.824705 
L 342.695412 185.081932 
L 346.969455 190.403792 
L 351.243497 196.141065 
L 356.942221 204.247277 
L 364.065625 214.779736 
L 376.887753 234.328744 
L 388.285199 251.561865 
L 396.833285 263.942746 
L 409.655412 282.121262 
L 413.929455 287.692848 
L 416.778816 291.103669 
L 421.052859 295.833879 
L 425.326902 300.217282 
L 429.600944 304.276213 
L 433.874987 308.024073 
L 438.149029 311.433316 
L 442.423072 314.490409 
L 446.697114 317.183232 
L 450.971157 319.558093 
L 455.245199 321.652862 
L 459.519242 323.48709 
L 463.793285 325.077142 
L 468.067327 326.436722 
L 472.34137 327.556322 
L 476.615412 328.447521 
L 482.314136 329.367961 
L 490.862221 330.461284 
L 497.985625 331.137774 
L 505.109029 331.597008 
L 515.081795 331.987105 
L 529.328604 332.306787 
L 549.274136 332.512617 
L 584.891157 332.617772 
L 698.865625 332.638048 
L 698.865625 332.638048 
" clip-path="url(#p794dec7b8e)" style="fill: none; stroke: #008000; stroke-width: 1.5; stroke-linecap: square"/>
   </g>
   <g id="line2d_16">
    <path d="M 29.265625 332.535328 
L 43.512434 332.308074 
L 52.060519 331.963907 
L 62.033285 331.196289 
L 64.882646 330.848796 
L 67.732008 330.322024 
L 72.006051 329.237547 
L 74.855412 328.363595 
L 77.704774 327.228233 
L 79.129455 326.496734 
L 80.554136 325.61009 
L 83.403497 323.459133 
L 90.526902 317.517238 
L 91.951582 315.925185 
L 93.376263 313.947674 
L 94.800944 311.503109 
L 96.225625 308.604834 
L 97.650306 305.280274 
L 99.074987 301.556888 
L 100.499668 297.462085 
L 101.924348 293.002819 
L 103.349029 288.097966 
L 104.77371 282.642932 
L 106.198391 276.533105 
L 107.623072 269.663855 
L 109.047753 262.047056 
L 110.472434 253.693153 
L 111.897114 244.495382 
L 113.321795 234.346993 
L 114.746476 223.141253 
L 117.595838 197.511709 
L 123.294561 143.466455 
L 126.143923 119.25435 
L 128.993285 97.633687 
L 130.417965 87.960242 
L 131.842646 79.112247 
L 133.267327 71.075217 
L 134.692008 63.83472 
L 136.116689 57.376287 
L 137.54137 51.703888 
L 138.966051 46.803818 
L 140.390731 42.635169 
L 141.815412 39.156981 
L 143.240093 36.328329 
L 144.664774 34.126078 
L 146.089455 32.501484 
L 147.514136 31.375241 
L 148.938816 30.668039 
L 150.363497 30.300573 
L 151.788178 30.238125 
L 153.212859 30.453252 
L 154.63754 30.877535 
L 157.486902 32.079728 
L 160.336263 33.448609 
L 161.760944 34.312779 
L 163.185625 35.411394 
L 164.610306 36.830359 
L 166.034987 38.618079 
L 167.459668 40.772297 
L 168.884348 43.303005 
L 170.309029 46.220157 
L 171.73371 49.53376 
L 173.158391 53.209317 
L 174.583072 57.299507 
L 176.007753 61.945051 
L 177.432434 67.286636 
L 178.857114 73.465 
L 180.281795 80.586469 
L 183.131157 96.907795 
L 188.82988 131.177399 
L 194.528604 164.01742 
L 198.802646 187.351363 
L 201.652008 201.954677 
L 204.50137 215.625453 
L 207.350731 228.127635 
L 210.200093 239.284885 
L 213.049455 249.1981 
L 215.898816 258.024793 
L 218.748178 265.833806 
L 221.59754 272.716742 
L 224.446902 278.779758 
L 227.296263 284.102551 
L 230.145625 288.741497 
L 232.994987 292.819696 
L 240.118391 302.240633 
L 244.392434 307.513155 
L 247.241795 310.760087 
L 250.091157 313.693267 
L 252.940519 316.242854 
L 255.78988 318.417556 
L 258.639242 320.221527 
L 261.488604 321.687108 
L 265.762646 323.495687 
L 270.036689 325.023108 
L 275.735412 326.793821 
L 280.009455 327.938068 
L 285.708178 329.195147 
L 291.406902 330.164505 
L 297.105625 330.87798 
L 304.229029 331.487288 
L 311.352434 331.869103 
L 321.325199 332.171712 
L 334.147327 332.325894 
L 419.628178 332.632589 
L 698.865625 332.638125 
L 698.865625 332.638125 
" clip-path="url(#p794dec7b8e)" style="fill: none; stroke: #0000ff; stroke-width: 1.5; stroke-linecap: square"/>
   </g>
   <g id="patch_3">
    <path d="M 29.265625 347.758125 
L 29.265625 15.118125 
" style="fill: none; stroke: #000000; stroke-width: 0.8; stroke-linejoin: miter; stroke-linecap: square"/>
   </g>
   <g id="patch_4">
    <path d="M 29.265625 347.758125 
L 698.865625 347.758125 
" style="fill: none; stroke: #000000; stroke-width: 0.8; stroke-linejoin: miter; stroke-linecap: square"/>
   </g>
   <g id="text_15">
    <!-- CIE 1931-XYZ Tristimulus Values -->
    <g transform="translate(267.671875 9.118125)scale(0.12 -0.12)">
     <defs>
      <path id="DejaVuSans-43" d="M 4122 4306 
L 4122 3641 
Q 3803 3938 3442 4084 
Q 3081 4231 2675 4231 
Q 1875 4231 1450 3742 
Q 1025 3253 1025 2328 
Q 1025 1406 1450 917 
Q 1875 428 2675 428 
Q 3081 428 3442 575 
Q 3803 722 4122 1019 
L 4122 359 
Q 3791 134 3420 21 
Q 3050 -91 2638 -91 
Q 1578 -91 968 557 
Q 359 1206 359 2328 
Q 359 3453 968 4101 
Q 1578 4750 2638 4750 
Q 3056 4750 3426 4639 
Q 3797 4528 4122 4306 
z
" transform="scale(0.015625)"/>
      <path id="DejaVuSans-49" d="M 628 4666 
L 1259 4666 
L 1259 0 
L 628 0 
L 628 4666 
z
" transform="scale(0.015625)"/>
      <path id="DejaVuSans-45" d="M 628 4666 
L 3578 4666 
L 3578 4134 
L 1259 4134 
L 1259 2753 
L 3481 2753 
L 3481 2222 
L 1259 2222 
L 1259 531 
L 3634 531 
L 3634 0 
L 628 0 
L 628 4666 
z
" transform="scale(0.015625)"/>
      <path id="DejaVuSans-20" transform="scale(0.015625)"/>
      <path id="DejaVuSans-39" d="M 703 97 
L 703 672 
Q 941 559 1184 500 
Q 1428 441 1663 441 
Q 2288 441 2617 861 
Q 2947 1281 2994 2138 
Q 2813 1869 2534 1725 
Q 2256 1581 1919 1581 
Q 1219 1581 811 2004 
Q 403 2428 403 3163 
Q 403 3881 828 4315 
Q 1253 4750 1959 4750 
Q 2769 4750 3195 4129 
Q 3622 3509 3622 2328 
Q 3622 1225 3098 567 
Q 2575 -91 1691 -91 
Q 1453 -91 1209 -44 
Q 966 3 703 97 
z
M 1959 2075 
Q 2384 2075 2632 2365 
Q 2881 2656 2881 3163 
Q 2881 3666 2632 3958 
Q 2384 4250 1959 4250 
Q 1534 4250 1286 3958 
Q 1038 3666 1038 3163 
Q 1038 2656 1286 2365 
Q 1534 2075 1959 2075 
z
" transform="scale(0.015625)"/>
      <path id="DejaVuSans-33" d="M 2597 2516 
Q 3050 2419 3304 2112 
Q 3559 1806 3559 1356 
Q 3559 666 3084 287 
Q 2609 -91 1734 -91 
Q 1441 -91 1130 -33 
Q 819 25 488 141 
L 488 750 
Q 750 597 1062 519 
Q 1375 441 1716 441 
Q 2309 441 2620 675 
Q 2931 909 2931 1356 
Q 2931 1769 2642 2001 
Q 2353 2234 1838 2234 
L 1294 2234 
L 1294 2753 
L 1863 2753 
Q 2328 2753 2575 2939 
Q 2822 3125 2822 3475 
Q 2822 3834 2567 4026 
Q 2313 4219 1838 4219 
Q 1578 4219 1281 4162 
Q 984 4106 628 3988 
L 628 4550 
Q 988 4650 1302 4700 
Q 1616 4750 1894 4750 
Q 2613 4750 3031 4423 
Q 3450 4097 3450 3541 
Q 3450 3153 3228 2886 
Q 3006 2619 2597 2516 
z
" transform="scale(0.015625)"/>
      <path id="DejaVuSans-2d" d="M 313 2009 
L 1997 2009 
L 1997 1497 
L 313 1497 
L 313 2009 
z
" transform="scale(0.015625)"/>
      <path id="DejaVuSans-58" d="M 403 4666 
L 1081 4666 
L 2241 2931 
L 3406 4666 
L 4084 4666 
L 2584 2425 
L 4184 0 
L 3506 0 
L 2194 1984 
L 872 0 
L 191 0 
L 1856 2491 
L 403 4666 
z
" transform="scale(0.015625)"/>
      <path id="DejaVuSans-59" d="M -13 4666 
L 666 4666 
L 1959 2747 
L 3244 4666 
L 3922 4666 
L 2272 2222 
L 2272 0 
L 1638 0 
L 1638 2222 
L -13 4666 
z
" transform="scale(0.015625)"/>
      <path id="DejaVuSans-5a" d="M 359 4666 
L 4025 4666 
L 4025 4184 
L 1075 531 
L 4097 531 
L 4097 0 
L 288 0 
L 288 481 
L 3238 4134 
L 359 4134 
L 359 4666 
z
" transform="scale(0.015625)"/>
      <path id="DejaVuSans-54" d="M -19 4666 
L 3928 4666 
L 3928 4134 
L 2272 4134 
L 2272 0 
L 1638 0 
L 1638 4134 
L -19 4134 
L -19 4666 
z
" transform="scale(0.015625)"/>
      <path id="DejaVuSans-72" d="M 2631 2963 
Q 2534 3019 2420 3045 
Q 2306 3072 2169 3072 
Q 1681 3072 1420 2755 
Q 1159 2438 1159 1844 
L 1159 0 
L 581 0 
L 581 3500 
L 1159 3500 
L 1159 2956 
Q 1341 3275 1631 3429 
Q 1922 3584 2338 3584 
Q 2397 3584 2469 3576 
Q 2541 3569 2628 3553 
L 2631 2963 
z
" transform="scale(0.015625)"/>
      <path id="DejaVuSans-69" d="M 603 3500 
L 1178 3500 
L 1178 0 
L 603 0 
L 603 3500 
z
M 603 4863 
L 1178 4863 
L 1178 4134 
L 603 4134 
L 603 4863 
z
" transform="scale(0.015625)"/>
      <path id="DejaVuSans-73" d="M 2834 3397 
L 2834 2853 
Q 2591 2978 2328 3040 
Q 2066 3103 1784 3103 
Q 1356 3103 1142 2972 
Q 928 2841 928 2578 
Q 928 2378 1081 2264 
Q 1234 2150 1697 2047 
L 1894 2003 
Q 2506 1872 2764 1633 
Q 3022 1394 3022 966 
Q 3022 478 2636 193 
Q 2250 -91 1575 -91 
Q 1294 -91 989 -36 
Q 684 19 347 128 
L 347 722 
Q 666 556 975 473 
Q 1284 391 1588 391 
Q 1994 391 2212 530 
Q 2431 669 2431 922 
Q 2431 1156 2273 1281 
Q 2116 1406 1581 1522 
L 1381 1569 
Q 847 1681 609 1914 
Q 372 2147 372 2553 
Q 372 3047 722 3315 
Q 1072 3584 1716 3584 
Q 2034 3584 2315 3537 
Q 2597 3491 2834 3397 
z
" transform="scale(0.015625)"/>
      <path id="DejaVuSans-74" d="M 1172 4494 
L 1172 3500 
L 2356 3500 
L 2356 3053 
L 1172 3053 
L 1172 1153 
Q 1172 725 1289 603 
Q 1406 481 1766 481 
L 2356 481 
L 2356 0 
L 1766 0 
Q 1100 0 847 248 
Q 594 497 594 1153 
L 594 3053 
L 172 3053 
L 172 3500 
L 594 3500 
L 594 4494 
L 1172 4494 
z
" transform="scale(0.015625)"/>
      <path id="DejaVuSans-75" d="M 544 1381 
L 544 3500 
L 1119 3500 
L 1119 1403 
Q 1119 906 1312 657 
Q 1506 409 1894 409 
Q 2359 409 2629 706 
Q 2900 1003 2900 1516 
L 2900 3500 
L 3475 3500 
L 3475 0 
L 2900 0 
L 2900 538 
Q 2691 219 2414 64 
Q 2138 -91 1772 -91 
Q 1169 -91 856 284 
Q 544 659 544 1381 
z
M 1991 3584 
L 1991 3584 
z
" transform="scale(0.015625)"/>
      <path id="DejaVuSans-6c" d="M 603 4863 
L 1178 4863 
L 1178 0 
L 603 0 
L 603 4863 
z
" transform="scale(0.015625)"/>
      <path id="DejaVuSans-56" d="M 1831 0 
L 50 4666 
L 709 4666 
L 2188 738 
L 3669 4666 
L 4325 4666 
L 2547 0 
L 1831 0 
z
" transform="scale(0.015625)"/>
      <path id="DejaVuSans-61" d="M 2194 1759 
Q 1497 1759 1228 1600 
Q 959 1441 959 1056 
Q 959 750 1161 570 
Q 1363 391 1709 391 
Q 2188 391 2477 730 
Q 2766 1069 2766 1631 
L 2766 1759 
L 2194 1759 
z
M 3341 1997 
L 3341 0 
L 2766 0 
L 2766 531 
Q 2569 213 2275 61 
Q 1981 -91 1556 -91 
Q 1019 -91 701 211 
Q 384 513 384 1019 
Q 384 1609 779 1909 
Q 1175 2209 1959 2209 
L 2766 2209 
L 2766 2266 
Q 2766 2663 2505 2880 
Q 2244 3097 1772 3097 
Q 1472 3097 1187 3025 
Q 903 2953 641 2809 
L 641 3341 
Q 956 3463 1253 3523 
Q 1550 3584 1831 3584 
Q 2591 3584 2966 3190 
Q 3341 2797 3341 1997 
z
" transform="scale(0.015625)"/>
      <path id="DejaVuSans-65" d="M 3597 1894 
L 3597 1613 
L 953 1613 
Q 991 1019 1311 708 
Q 1631 397 2203 397 
Q 2534 397 2845 478 
Q 3156 559 3463 722 
L 3463 178 
Q 3153 47 2828 -22 
Q 2503 -91 2169 -91 
Q 1331 -91 842 396 
Q 353 884 353 1716 
Q 353 2575 817 3079 
Q 1281 3584 2069 3584 
Q 2775 3584 3186 3129 
Q 3597 2675 3597 1894 
z
M 3022 2063 
Q 3016 2534 2758 2815 
Q 2500 3097 2075 3097 
Q 1594 3097 1305 2825 
Q 1016 2553 972 2059 
L 3022 2063 
z
" transform="scale(0.015625)"/>
     </defs>
     <use xlink:href="#DejaVuSans-43"/>
     <use xlink:href="#DejaVuSans-49" x="69.824219"/>
     <use xlink:href="#DejaVuSans-45" x="99.316406"/>
     <use xlink:href="#DejaVuSans-20" x="162.5"/>
     <use xlink:href="#DejaVuSans-31" x="194.287109"/>
     <use xlink:href="#DejaVuSans-39" x="257.910156"/>
     <use xlink:href="#DejaVuSans-33" x="321.533203"/>
     <use xlink:href="#DejaVuSans-31" x="385.15625"/>
     <use xlink:href="#DejaVuSans-2d" x="448.779297"/>
     <use xlink:href="#DejaVuSans-58" x="479.863281"/>
     <use xlink:href="#DejaVuSans-59" x="548.369141"/>
     <use xlink:href="#DejaVuSans-5a" x="609.453125"/>
     <use xlink:href="#DejaVuSans-20" x="677.958984"/>
     <use xlink:href="#DejaVuSans-54" x="709.746094"/>
     <use xlink:href="#DejaVuSans-72" x="756.080078"/>
     <use xlink:href="#DejaVuSans-69" x="797.193359"/>
     <use xlink:href="#DejaVuSans-73" x="824.976562"/>
     <use xlink:href="#DejaVuSans-74" x="877.076172"/>
     <use xlink:href="#DejaVuSans-69" x="916.285156"/>
     <use xlink:href="#DejaVuSans-6d" x="944.068359"/>
     <use xlink:href="#DejaVuSans-75" x="1041.480469"/>
     <use xlink:href="#DejaVuSans-6c" x="1104.859375"/>
     <use xlink:href="#DejaVuSans-75" x="1132.642578"/>
     <use xlink:href="#DejaVuSans-73" x="1196.021484"/>
     <use xlink:href="#DejaVuSans-20" x="1248.121094"/>
     <use xlink:href="#DejaVuSans-56" x="1279.908203"/>
     <use xlink:href="#DejaVuSans-61" x="1340.566406"/>
     <use xlink:href="#DejaVuSans-6c" x="1401.845703"/>
     <use xlink:href="#DejaVuSans-75" x="1429.628906"/>
     <use xlink:href="#DejaVuSans-65" x="1493.007812"/>
     <use xlink:href="#DejaVuSans-73" x="1554.53125"/>
    </g>
   </g>
   <g id="legend_1">
    <g id="line2d_17">
     <path d="M 642.165625 28.216562 
L 652.165625 28.216562 
L 662.165625 28.216562 
" style="fill: none; stroke: #ff0000; stroke-width: 1.5; stroke-linecap: square"/>
    </g>
    <g id="text_16">
     <!-- $\overline{x}(\lambda)$ -->
     <g transform="translate(670.165625 31.716562)scale(0.1 -0.1)">
      <defs>
       <path id="DejaVuSans-Oblique-78" d="M 3841 3500 
L 2234 1784 
L 3219 0 
L 2559 0 
L 1819 1388 
L 531 0 
L -166 0 
L 1556 1844 
L 641 3500 
L 1300 3500 
L 1972 2234 
L 3144 3500 
L 3841 3500 
z
" transform="scale(0.015625)"/>
       <path id="DejaVuSans-28" d="M 1984 4856 
Q 1566 4138 1362 3434 
Q 1159 2731 1159 2009 
Q 1159 1288 1364 580 
Q 1569 -128 1984 -844 
L 1484 -844 
Q 1016 -109 783 600 
Q 550 1309 550 2009 
Q 550 2706 781 3412 
Q 1013 4119 1484 4856 
L 1984 4856 
z
" transform="scale(0.015625)"/>
       <path id="DejaVuSans-29" d="M 513 4856 
L 1013 4856 
Q 1481 4119 1714 3412 
Q 1947 2706 1947 2009 
Q 1947 1309 1714 600 
Q 1481 -109 1013 -844 
L 513 -844 
Q 928 -128 1133 580 
Q 1338 1288 1338 2009 
Q 1338 2731 1133 3434 
Q 928 4138 513 4856 
z
" transform="scale(0.015625)"/>
      </defs>
      <use xlink:href="#DejaVuSans-Oblique-78" transform="translate(0 1.0625)"/>
      <use xlink:href="#DejaVuSans-28" transform="translate(59.179688 0.5625)"/>
      <use xlink:href="#DejaVuSans-Oblique-3bb" transform="translate(98.193359 0.5625)"/>
      <use xlink:href="#DejaVuSans-29" transform="translate(157.373047 0.5625)"/>
      <path d="M 0 67.5 
L 0 73.75 
L 59.179688 73.75 
L 59.179688 67.5 
L 0 67.5 
z
"/>
     </g>
    </g>
    <g id="line2d_18">
     <path d="M 642.165625 43.29625 
L 652.165625 43.29625 
L 662.165625 43.29625 
" style="fill: none; stroke: #008000; stroke-width: 1.5; stroke-linecap: square"/>
    </g>
    <g id="text_17">
     <!-- $\overline{y}(\lambda)$ -->
     <g transform="translate(670.165625 46.79625)scale(0.1 -0.1)">
      <defs>
       <path id="DejaVuSans-Oblique-79" d="M 1588 -325 
Q 1188 -997 936 -1164 
Q 684 -1331 294 -1331 
L -159 -1331 
L -63 -850 
L 269 -850 
Q 509 -850 678 -719 
Q 847 -588 1056 -206 
L 1234 128 
L 459 3500 
L 1069 3500 
L 1650 819 
L 3256 3500 
L 3859 3500 
L 1588 -325 
z
" transform="scale(0.015625)"/>
      </defs>
      <use xlink:href="#DejaVuSans-Oblique-79" transform="translate(0 1.0625)"/>
      <use xlink:href="#DejaVuSans-28" transform="translate(59.179688 0.5625)"/>
      <use xlink:href="#DejaVuSans-Oblique-3bb" transform="translate(98.193359 0.5625)"/>
      <use xlink:href="#DejaVuSans-29" transform="translate(157.373047 0.5625)"/>
      <path d="M 0 67.5 
L 0 73.75 
L 59.179688 73.75 
L 59.179688 67.5 
L 0 67.5 
z
"/>
     </g>
    </g>
    <g id="line2d_19">
     <path d="M 642.165625 57.994687 
L 652.165625 57.994687 
L 662.165625 57.994687 
" style="fill: none; stroke: #0000ff; stroke-width: 1.5; stroke-linecap: square"/>
    </g>
    <g id="text_18">
     <!-- $\overline{z}(\lambda)$ -->
     <g transform="translate(670.165625 61.494687)scale(0.1 -0.1)">
      <defs>
       <path id="DejaVuSans-Oblique-7a" d="M 744 3500 
L 3475 3500 
L 3372 2975 
L 738 459 
L 2913 459 
L 2822 0 
L -19 0 
L 84 525 
L 2719 3041 
L 653 3041 
L 744 3500 
z
" transform="scale(0.015625)"/>
      </defs>
      <use xlink:href="#DejaVuSans-Oblique-7a" transform="translate(0 1.0625)"/>
      <use xlink:href="#DejaVuSans-28" transform="translate(52.490234 0.5625)"/>
      <use xlink:href="#DejaVuSans-Oblique-3bb" transform="translate(91.503906 0.5625)"/>
      <use xlink:href="#DejaVuSans-29" transform="translate(150.683594 0.5625)"/>
      <path d="M 0 67.5 
L 0 73.75 
L 52.490234 73.75 
L 52.490234 67.5 
L 0 67.5 
z
"/>
     </g>
    </g>
   </g>
  </g>
 </g>
 <defs>
  <clipPath id="p794dec7b8e">
   <rect x="29.265625" y="15.118125" width="669.6" height="332.64"/>
  </clipPath>
 </defs>
</svg>
