<?xml version="1.0" encoding="utf-8" standalone="no"?>
<!DOCTYPE svg PUBLIC "-//W3C//DTD SVG 1.1//EN"
  "http://www.w3.org/Graphics/SVG/1.1/DTD/svg11.dtd">
<svg xmlns:xlink="http://www.w3.org/1999/xlink" width="698.865625pt" height="378.114375pt" viewBox="0 0 698.865625 378.114375" xmlns="http://www.w3.org/2000/svg" version="1.1">
 <metadata>
  <rdf:RDF xmlns:dc="http://purl.org/dc/elements/1.1/" xmlns:cc="http://creativecommons.org/ns#" xmlns:rdf="http://www.w3.org/1999/02/22-rdf-syntax-ns#">
   <cc:Work>
    <dc:type rdf:resource="http://purl.org/dc/dcmitype/StillImage"/>
    <dc:date>2023-01-18T22:09:26.428308</dc:date>
    <dc:format>image/svg+xml</dc:format>
    <dc:creator>
     <cc:Agent>
      <dc:title>Matplotlib v3.5.3, https://matplotlib.org/</dc:title>
     </cc:Agent>
    </dc:creator>
   </cc:Work>
  </rdf:RDF>
 </metadata>
 <defs>
  <style type="text/css">*{stroke-linejoin: round; stroke-linecap: butt}</style>
 </defs>
 <g id="figure_1">
  <g id="patch_1">
   <path d="M 0 378.114375 
L 698.865625 378.114375 
L 698.865625 0 
L 0 0 
L 0 378.114375 
z
" style="fill: none"/>
  </g>
  <g id="axes_1">
   <g id="patch_2">
    <path d="M 29.265625 347.758125 
L 698.865625 347.758125 
L 698.865625 15.118125 
L 29.265625 15.118125 
L 29.265625 347.758125 
z
" style="fill: none"/>
   </g>
   <g id="matplotlib.axis_1">
    <g id="xtick_1">
     <g id="line2d_1">
      <defs>
       <path id="mc3a0020069" d="M 0 0 
L 0 3.5 
" style="stroke: #000000; stroke-width: 0.8"/>
      </defs>
      <g>
       <use xlink:href="#mc3a0020069" x="44.483807" y="347.758125" style="stroke: #000000; stroke-width: 0.8"/>
      </g>
     </g>
     <g id="text_1">
      <!-- 400 -->
      <g transform="translate(34.940057 362.356562)scale(0.1 -0.1)">
       <defs>
        <path id="DejaVuSans-34" d="M 2419 4116 
L 825 1625 
L 2419 1625 
L 2419 4116 
z
M 2253 4666 
L 3047 4666 
L 3047 1625 
L 3713 1625 
L 3713 1100 
L 3047 1100 
L 3047 0 
L 2419 0 
L 2419 1100 
L 313 1100 
L 313 1709 
L 2253 4666 
z
" transform="scale(0.015625)"/>
        <path id="DejaVuSans-30" d="M 2034 4250 
Q 1547 4250 1301 3770 
Q 1056 3291 1056 2328 
Q 1056 1369 1301 889 
Q 1547 409 2034 409 
Q 2525 409 2770 889 
Q 3016 1369 3016 2328 
Q 3016 3291 2770 3770 
Q 2525 4250 2034 4250 
z
M 2034 4750 
Q 2819 4750 3233 4129 
Q 3647 3509 3647 2328 
Q 3647 1150 3233 529 
Q 2819 -91 2034 -91 
Q 1250 -91 836 529 
Q 422 1150 422 2328 
Q 422 3509 836 4129 
Q 1250 4750 2034 4750 
z
" transform="scale(0.015625)"/>
       </defs>
       <use xlink:href="#DejaVuSans-34"/>
       <use xlink:href="#DejaVuSans-30" x="63.623047"/>
       <use xlink:href="#DejaVuSans-30" x="127.246094"/>
      </g>
     </g>
    </g>
    <g id="xtick_2">
     <g id="line2d_2">
      <g>
       <use xlink:href="#mc3a0020069" x="120.574716" y="347.758125" style="stroke: #000000; stroke-width: 0.8"/>
      </g>
     </g>
     <g id="text_2">
      <!-- 450 -->
      <g transform="translate(111.030966 362.356562)scale(0.1 -0.1)">
       <defs>
        <path id="DejaVuSans-35" d="M 691 4666 
L 3169 4666 
L 3169 4134 
L 1269 4134 
L 1269 2991 
Q 1406 3038 1543 3061 
Q 1681 3084 1819 3084 
Q 2600 3084 3056 2656 
Q 3513 2228 3513 1497 
Q 3513 744 3044 326 
Q 2575 -91 1722 -91 
Q 1428 -91 1123 -41 
Q 819 9 494 109 
L 494 744 
Q 775 591 1075 516 
Q 1375 441 1709 441 
Q 2250 441 2565 725 
Q 2881 1009 2881 1497 
Q 2881 1984 2565 2268 
Q 2250 2553 1709 2553 
Q 1456 2553 1204 2497 
Q 953 2441 691 2322 
L 691 4666 
z
" transform="scale(0.015625)"/>
       </defs>
       <use xlink:href="#DejaVuSans-34"/>
       <use xlink:href="#DejaVuSans-35" x="63.623047"/>
       <use xlink:href="#DejaVuSans-30" x="127.246094"/>
      </g>
     </g>
    </g>
    <g id="xtick_3">
     <g id="line2d_3">
      <g>
       <use xlink:href="#mc3a0020069" x="196.665625" y="347.758125" style="stroke: #000000; stroke-width: 0.8"/>
      </g>
     </g>
     <g id="text_3">
      <!-- 500 -->
      <g transform="translate(187.121875 362.356562)scale(0.1 -0.1)">
       <use xlink:href="#DejaVuSans-35"/>
       <use xlink:href="#DejaVuSans-30" x="63.623047"/>
       <use xlink:href="#DejaVuSans-30" x="127.246094"/>
      </g>
     </g>
    </g>
    <g id="xtick_4">
     <g id="line2d_4">
      <g>
       <use xlink:href="#mc3a0020069" x="272.756534" y="347.758125" style="stroke: #000000; stroke-width: 0.8"/>
      </g>
     </g>
     <g id="text_4">
      <!-- 550 -->
      <g transform="translate(263.212784 362.356562)scale(0.1 -0.1)">
       <use xlink:href="#DejaVuSans-35"/>
       <use xlink:href="#DejaVuSans-35" x="63.623047"/>
       <use xlink:href="#DejaVuSans-30" x="127.246094"/>
      </g>
     </g>
    </g>
    <g id="xtick_5">
     <g id="line2d_5">
      <g>
       <use xlink:href="#mc3a0020069" x="348.847443" y="347.758125" style="stroke: #000000; stroke-width: 0.8"/>
      </g>
     </g>
     <g id="text_5">
      <!-- 600 -->
      <g transform="translate(339.303693 362.356562)scale(0.1 -0.1)">
       <defs>
        <path id="DejaVuSans-36" d="M 2113 2584 
Q 1688 2584 1439 2293 
Q 1191 2003 1191 1497 
Q 1191 994 1439 701 
Q 1688 409 2113 409 
Q 2538 409 2786 701 
Q 3034 994 3034 1497 
Q 3034 2003 2786 2293 
Q 2538 2584 2113 2584 
z
M 3366 4563 
L 3366 3988 
Q 3128 4100 2886 4159 
Q 2644 4219 2406 4219 
Q 1781 4219 1451 3797 
Q 1122 3375 1075 2522 
Q 1259 2794 1537 2939 
Q 1816 3084 2150 3084 
Q 2853 3084 3261 2657 
Q 3669 2231 3669 1497 
Q 3669 778 3244 343 
Q 2819 -91 2113 -91 
Q 1303 -91 875 529 
Q 447 1150 447 2328 
Q 447 3434 972 4092 
Q 1497 4750 2381 4750 
Q 2619 4750 2861 4703 
Q 3103 4656 3366 4563 
z
" transform="scale(0.015625)"/>
       </defs>
       <use xlink:href="#DejaVuSans-36"/>
       <use xlink:href="#DejaVuSans-30" x="63.623047"/>
       <use xlink:href="#DejaVuSans-30" x="127.246094"/>
      </g>
     </g>
    </g>
    <g id="xtick_6">
     <g id="line2d_6">
      <g>
       <use xlink:href="#mc3a0020069" x="424.938352" y="347.758125" style="stroke: #000000; stroke-width: 0.8"/>
      </g>
     </g>
     <g id="text_6">
      <!-- 650 -->
      <g transform="translate(415.394602 362.356562)scale(0.1 -0.1)">
       <use xlink:href="#DejaVuSans-36"/>
       <use xlink:href="#DejaVuSans-35" x="63.623047"/>
       <use xlink:href="#DejaVuSans-30" x="127.246094"/>
      </g>
     </g>
    </g>
    <g id="xtick_7">
     <g id="line2d_7">
      <g>
       <use xlink:href="#mc3a0020069" x="501.029261" y="347.758125" style="stroke: #000000; stroke-width: 0.8"/>
      </g>
     </g>
     <g id="text_7">
      <!-- 700 -->
      <g transform="translate(491.485511 362.356562)scale(0.1 -0.1)">
       <defs>
        <path id="DejaVuSans-37" d="M 525 4666 
L 3525 4666 
L 3525 4397 
L 1831 0 
L 1172 0 
L 2766 4134 
L 525 4134 
L 525 4666 
z
" transform="scale(0.015625)"/>
       </defs>
       <use xlink:href="#DejaVuSans-37"/>
       <use xlink:href="#DejaVuSans-30" x="63.623047"/>
       <use xlink:href="#DejaVuSans-30" x="127.246094"/>
      </g>
     </g>
    </g>
    <g id="xtick_8">
     <g id="line2d_8">
      <g>
       <use xlink:href="#mc3a0020069" x="577.12017" y="347.758125" style="stroke: #000000; stroke-width: 0.8"/>
      </g>
     </g>
     <g id="text_8">
      <!-- 750 -->
      <g transform="translate(567.57642 362.356562)scale(0.1 -0.1)">
       <use xlink:href="#DejaVuSans-37"/>
       <use xlink:href="#DejaVuSans-35" x="63.623047"/>
       <use xlink:href="#DejaVuSans-30" x="127.246094"/>
      </g>
     </g>
    </g>
    <g id="xtick_9">
     <g id="line2d_9">
      <g>
       <use xlink:href="#mc3a0020069" x="653.21108" y="347.758125" style="stroke: #000000; stroke-width: 0.8"/>
      </g>
     </g>
     <g id="text_9">
      <!-- 800 -->
      <g transform="translate(643.66733 362.356562)scale(0.1 -0.1)">
       <defs>
        <path id="DejaVuSans-38" d="M 2034 2216 
Q 1584 2216 1326 1975 
Q 1069 1734 1069 1313 
Q 1069 891 1326 650 
Q 1584 409 2034 409 
Q 2484 409 2743 651 
Q 3003 894 3003 1313 
Q 3003 1734 2745 1975 
Q 2488 2216 2034 2216 
z
M 1403 2484 
Q 997 2584 770 2862 
Q 544 3141 544 3541 
Q 544 4100 942 4425 
Q 1341 4750 2034 4750 
Q 2731 4750 3128 4425 
Q 3525 4100 3525 3541 
Q 3525 3141 3298 2862 
Q 3072 2584 2669 2484 
Q 3125 2378 3379 2068 
Q 3634 1759 3634 1313 
Q 3634 634 3220 271 
Q 2806 -91 2034 -91 
Q 1263 -91 848 271 
Q 434 634 434 1313 
Q 434 1759 690 2068 
Q 947 2378 1403 2484 
z
M 1172 3481 
Q 1172 3119 1398 2916 
Q 1625 2713 2034 2713 
Q 2441 2713 2670 2916 
Q 2900 3119 2900 3481 
Q 2900 3844 2670 4047 
Q 2441 4250 2034 4250 
Q 1625 4250 1398 4047 
Q 1172 3844 1172 3481 
z
" transform="scale(0.015625)"/>
       </defs>
       <use xlink:href="#DejaVuSans-38"/>
       <use xlink:href="#DejaVuSans-30" x="63.623047"/>
       <use xlink:href="#DejaVuSans-30" x="127.246094"/>
      </g>
     </g>
    </g>
    <g id="text_10">
     <!-- $\lambda$/nm -->
     <g transform="translate(351.365625 376.034688)scale(0.1 -0.1)">
      <defs>
       <path id="DejaVuSans-Oblique-3bb" d="M 2350 4316 
L 3125 0 
L 2516 0 
L 2038 2588 
L 328 0 
L -281 0 
L 1903 3356 
L 1794 3975 
Q 1725 4369 1391 4369 
L 1091 4369 
L 1184 4863 
L 1550 4856 
Q 2253 4847 2350 4316 
z
" transform="scale(0.015625)"/>
       <path id="DejaVuSans-2f" d="M 1625 4666 
L 2156 4666 
L 531 -594 
L 0 -594 
L 1625 4666 
z
" transform="scale(0.015625)"/>
       <path id="DejaVuSans-6e" d="M 3513 2113 
L 3513 0 
L 2938 0 
L 2938 2094 
Q 2938 2591 2744 2837 
Q 2550 3084 2163 3084 
Q 1697 3084 1428 2787 
Q 1159 2491 1159 1978 
L 1159 0 
L 581 0 
L 581 3500 
L 1159 3500 
L 1159 2956 
Q 1366 3272 1645 3428 
Q 1925 3584 2291 3584 
Q 2894 3584 3203 3211 
Q 3513 2838 3513 2113 
z
" transform="scale(0.015625)"/>
       <path id="DejaVuSans-6d" d="M 3328 2828 
Q 3544 3216 3844 3400 
Q 4144 3584 4550 3584 
Q 5097 3584 5394 3201 
Q 5691 2819 5691 2113 
L 5691 0 
L 5113 0 
L 5113 2094 
Q 5113 2597 4934 2840 
Q 4756 3084 4391 3084 
Q 3944 3084 3684 2787 
Q 3425 2491 3425 1978 
L 3425 0 
L 2847 0 
L 2847 2094 
Q 2847 2600 2669 2842 
Q 2491 3084 2119 3084 
Q 1678 3084 1418 2786 
Q 1159 2488 1159 1978 
L 1159 0 
L 581 0 
L 581 3500 
L 1159 3500 
L 1159 2956 
Q 1356 3278 1631 3431 
Q 1906 3584 2284 3584 
Q 2666 3584 2933 3390 
Q 3200 3197 3328 2828 
z
" transform="scale(0.015625)"/>
      </defs>
      <use xlink:href="#DejaVuSans-Oblique-3bb" transform="translate(0 0.015625)"/>
      <use xlink:href="#DejaVuSans-2f" transform="translate(59.179688 0.015625)"/>
      <use xlink:href="#DejaVuSans-6e" transform="translate(92.871094 0.015625)"/>
      <use xlink:href="#DejaVuSans-6d" transform="translate(156.25 0.015625)"/>
     </g>
    </g>
   </g>
   <g id="matplotlib.axis_2">
    <g id="ytick_1">
     <g id="line2d_10">
      <defs>
       <path id="m3209d5a347" d="M 0 0 
L -3.5 0 
" style="stroke: #000000; stroke-width: 0.8"/>
      </defs>
      <g>
       <use xlink:href="#m3209d5a347" x="29.265625" y="332.638125" style="stroke: #000000; stroke-width: 0.8"/>
      </g>
     </g>
     <g id="text_11">
      <!-- 0.00 -->
      <g transform="translate(0 336.437344)scale(0.1 -0.1)">
       <defs>
        <path id="DejaVuSans-2e" d="M 684 794 
L 1344 794 
L 1344 0 
L 684 0 
L 684 794 
z
" transform="scale(0.015625)"/>
       </defs>
       <use xlink:href="#DejaVuSans-30"/>
       <use xlink:href="#DejaVuSans-2e" x="63.623047"/>
       <use xlink:href="#DejaVuSans-30" x="95.410156"/>
       <use xlink:href="#DejaVuSans-30" x="159.033203"/>
      </g>
     </g>
    </g>
    <g id="ytick_2">
     <g id="line2d_11">
      <g>
       <use xlink:href="#m3209d5a347" x="29.265625" y="293.564703" style="stroke: #000000; stroke-width: 0.8"/>
      </g>
     </g>
     <g id="text_12">
      <!-- 0.25 -->
      <g transform="translate(0 297.363921)scale(0.1 -0.1)">
       <defs>
        <path id="DejaVuSans-32" d="M 1228 531 
L 3431 531 
L 3431 0 
L 469 0 
L 469 531 
Q 828 903 1448 1529 
Q 2069 2156 2228 2338 
Q 2531 2678 2651 2914 
Q 2772 3150 2772 3378 
Q 2772 3750 2511 3984 
Q 2250 4219 1831 4219 
Q 1534 4219 1204 4116 
Q 875 4013 500 3803 
L 500 4441 
Q 881 4594 1212 4672 
Q 1544 4750 1819 4750 
Q 2544 4750 2975 4387 
Q 3406 4025 3406 3419 
Q 3406 3131 3298 2873 
Q 3191 2616 2906 2266 
Q 2828 2175 2409 1742 
Q 1991 1309 1228 531 
z
" transform="scale(0.015625)"/>
       </defs>
       <use xlink:href="#DejaVuSans-30"/>
       <use xlink:href="#DejaVuSans-2e" x="63.623047"/>
       <use xlink:href="#DejaVuSans-32" x="95.410156"/>
       <use xlink:href="#DejaVuSans-35" x="159.033203"/>
      </g>
     </g>
    </g>
    <g id="ytick_3">
     <g id="line2d_12">
      <g>
       <use xlink:href="#m3209d5a347" x="29.265625" y="254.49128" style="stroke: #000000; stroke-width: 0.8"/>
      </g>
     </g>
     <g id="text_13">
      <!-- 0.50 -->
      <g transform="translate(0 258.290499)scale(0.1 -0.1)">
       <use xlink:href="#DejaVuSans-30"/>
       <use xlink:href="#DejaVuSans-2e" x="63.623047"/>
       <use xlink:href="#DejaVuSans-35" x="95.410156"/>
       <use xlink:href="#DejaVuSans-30" x="159.033203"/>
      </g>
     </g>
    </g>
    <g id="ytick_4">
     <g id="line2d_13">
      <g>
       <use xlink:href="#m3209d5a347" x="29.265625" y="215.417858" style="stroke: #000000; stroke-width: 0.8"/>
      </g>
     </g>
     <g id="text_14">
      <!-- 0.75 -->
      <g transform="translate(0 219.217077)scale(0.1 -0.1)">
       <use xlink:href="#DejaVuSans-30"/>
       <use xlink:href="#DejaVuSans-2e" x="63.623047"/>
       <use xlink:href="#DejaVuSans-37" x="95.410156"/>
       <use xlink:href="#DejaVuSans-35" x="159.033203"/>
      </g>
     </g>
    </g>
    <g id="ytick_5">
     <g id="line2d_14">
      <g>
       <use xlink:href="#m3209d5a347" x="29.265625" y="176.344436" style="stroke: #000000; stroke-width: 0.8"/>
      </g>
     </g>
     <g id="text_15">
      <!-- 1.00 -->
      <g transform="translate(0 180.143654)scale(0.1 -0.1)">
       <defs>
        <path id="DejaVuSans-31" d="M 794 531 
L 1825 531 
L 1825 4091 
L 703 3866 
L 703 4441 
L 1819 4666 
L 2450 4666 
L 2450 531 
L 3481 531 
L 3481 0 
L 794 0 
L 794 531 
z
" transform="scale(0.015625)"/>
       </defs>
       <use xlink:href="#DejaVuSans-31"/>
       <use xlink:href="#DejaVuSans-2e" x="63.623047"/>
       <use xlink:href="#DejaVuSans-30" x="95.410156"/>
       <use xlink:href="#DejaVuSans-30" x="159.033203"/>
      </g>
     </g>
    </g>
    <g id="ytick_6">
     <g id="line2d_15">
      <g>
       <use xlink:href="#m3209d5a347" x="29.265625" y="137.271013" style="stroke: #000000; stroke-width: 0.8"/>
      </g>
     </g>
     <g id="text_16">
      <!-- 1.25 -->
      <g transform="translate(0 141.070232)scale(0.1 -0.1)">
       <use xlink:href="#DejaVuSans-31"/>
       <use xlink:href="#DejaVuSans-2e" x="63.623047"/>
       <use xlink:href="#DejaVuSans-32" x="95.410156"/>
       <use xlink:href="#DejaVuSans-35" x="159.033203"/>
      </g>
     </g>
    </g>
    <g id="ytick_7">
     <g id="line2d_16">
      <g>
       <use xlink:href="#m3209d5a347" x="29.265625" y="98.197591" style="stroke: #000000; stroke-width: 0.8"/>
      </g>
     </g>
     <g id="text_17">
      <!-- 1.50 -->
      <g transform="translate(0 101.99681)scale(0.1 -0.1)">
       <use xlink:href="#DejaVuSans-31"/>
       <use xlink:href="#DejaVuSans-2e" x="63.623047"/>
       <use xlink:href="#DejaVuSans-35" x="95.410156"/>
       <use xlink:href="#DejaVuSans-30" x="159.033203"/>
      </g>
     </g>
    </g>
    <g id="ytick_8">
     <g id="line2d_17">
      <g>
       <use xlink:href="#m3209d5a347" x="29.265625" y="59.124168" style="stroke: #000000; stroke-width: 0.8"/>
      </g>
     </g>
     <g id="text_18">
      <!-- 1.75 -->
      <g transform="translate(0 62.923387)scale(0.1 -0.1)">
       <use xlink:href="#DejaVuSans-31"/>
       <use xlink:href="#DejaVuSans-2e" x="63.623047"/>
       <use xlink:href="#DejaVuSans-37" x="95.410156"/>
       <use xlink:href="#DejaVuSans-35" x="159.033203"/>
      </g>
     </g>
    </g>
    <g id="ytick_9">
     <g id="line2d_18">
      <g>
       <use xlink:href="#m3209d5a347" x="29.265625" y="20.050746" style="stroke: #000000; stroke-width: 0.8"/>
      </g>
     </g>
     <g id="text_19">
      <!-- 2.00 -->
      <g transform="translate(0 23.849965)scale(0.1 -0.1)">
       <use xlink:href="#DejaVuSans-32"/>
       <use xlink:href="#DejaVuSans-2e" x="63.623047"/>
       <use xlink:href="#DejaVuSans-30" x="95.410156"/>
       <use xlink:href="#DejaVuSans-30" x="159.033203"/>
      </g>
     </g>
    </g>
   </g>
   <g id="line2d_19">
    <path d="M 29.265625 332.048953 
L 33.83108 331.616141 
L 36.874716 331.171626 
L 39.918352 330.551659 
L 42.961989 329.704045 
L 46.005625 328.572481 
L 49.049261 327.098569 
L 52.092898 325.225137 
L 55.136534 322.911012 
L 58.18017 320.161961 
L 61.223807 317.048067 
L 64.267443 313.655225 
L 68.832898 308.155219 
L 73.398352 302.548214 
L 76.441989 299.229864 
L 79.485625 296.389789 
L 85.572898 290.985997 
L 88.616534 288.267581 
L 91.66017 285.918815 
L 94.703807 283.999044 
L 99.269261 281.245728 
L 102.312898 279.413059 
L 103.834716 278.69042 
L 105.356534 278.208004 
L 106.878352 278.026719 
L 108.40017 278.106085 
L 109.921989 278.376926 
L 114.487443 279.650813 
L 117.53108 280.681789 
L 119.052898 281.371341 
L 120.574716 282.239084 
L 122.096534 283.30832 
L 125.14017 285.831744 
L 129.705625 289.689213 
L 132.749261 291.910381 
L 135.792898 293.795173 
L 143.401989 297.944349 
L 146.445625 300.19751 
L 149.489261 302.906533 
L 152.532898 305.956385 
L 163.185625 317.084677 
L 166.229261 319.848776 
L 169.272898 322.2923 
L 172.316534 324.457335 
L 175.36017 326.376759 
L 178.403807 328.028882 
L 181.447443 329.380994 
L 184.49108 330.437629 
L 187.534716 331.228409 
L 190.578352 331.76739 
L 193.621989 332.088549 
L 198.187443 332.293287 
L 201.23108 332.272852 
L 204.274716 332.067782 
L 207.318352 331.601997 
L 210.361989 330.77788 
L 213.405625 329.515896 
L 216.449261 327.843769 
L 219.492898 325.893785 
L 222.536534 323.778533 
L 225.58017 321.456324 
L 228.623807 318.850719 
L 231.667443 315.953711 
L 234.71108 312.812771 
L 239.276534 307.739352 
L 246.885625 298.860464 
L 249.929261 295.049258 
L 252.972898 290.887392 
L 259.06017 281.972744 
L 265.147443 273.180192 
L 272.756534 262.396521 
L 275.80017 257.704757 
L 280.365625 250.111415 
L 287.974716 236.770952 
L 294.061989 225.830425 
L 298.627443 217.066834 
L 304.714716 205.187967 
L 307.758352 199.546343 
L 310.801989 194.265445 
L 319.932898 179.273442 
L 324.498352 170.906978 
L 326.02017 168.371738 
L 327.541989 166.10376 
L 329.063807 164.087728 
L 330.585625 162.286756 
L 333.629261 159.188546 
L 336.672898 156.609857 
L 338.194716 155.535806 
L 339.716534 154.627115 
L 341.238352 153.897536 
L 342.76017 153.354415 
L 344.281989 152.984156 
L 345.803807 152.769408 
L 347.325625 152.693137 
L 348.847443 152.738931 
L 350.369261 152.90007 
L 351.89108 153.203436 
L 353.412898 153.682163 
L 354.934716 154.366104 
L 356.456534 155.282767 
L 357.978352 156.448561 
L 359.50017 157.848328 
L 361.021989 159.459559 
L 364.065625 163.227019 
L 367.109261 167.602304 
L 370.152898 172.533214 
L 373.196534 177.981331 
L 377.761989 186.765349 
L 383.849261 198.82561 
L 386.892898 205.484378 
L 389.936534 212.848952 
L 399.067443 235.603969 
L 403.632898 246.093683 
L 406.676534 252.612349 
L 409.72017 258.69208 
L 414.285625 267.10229 
L 423.416534 283.259619 
L 426.46017 288.232134 
L 429.503807 292.828919 
L 432.547443 297.037673 
L 435.59108 300.863462 
L 438.634716 304.333541 
L 441.678352 307.47731 
L 444.721989 310.320386 
L 447.765625 312.885603 
L 450.809261 315.194374 
L 453.852898 317.266899 
L 456.896534 319.122619 
L 459.94017 320.780882 
L 462.983807 322.260287 
L 467.549261 324.178677 
L 472.114716 325.774627 
L 476.68017 327.100586 
L 481.245625 328.208534 
L 485.81108 329.102283 
L 491.898352 329.9925 
L 497.985625 330.656001 
L 505.594716 331.260107 
L 514.725625 331.758586 
L 525.378352 332.120346 
L 540.596534 332.390571 
L 564.945625 332.559949 
L 616.687443 332.630426 
L 698.865625 332.63785 
L 698.865625 332.63785 
" clip-path="url(#pc884309811)" style="fill: none; stroke: #ff0000; stroke-width: 1.5; stroke-linecap: square"/>
   </g>
   <g id="line2d_20">
    <path d="M 29.265625 332.573323 
L 41.44017 332.359845 
L 50.57108 331.957815 
L 58.18017 331.365867 
L 67.31108 330.404099 
L 85.572898 328.144692 
L 93.181989 326.946698 
L 111.443807 323.875777 
L 125.14017 321.846158 
L 129.705625 321.016189 
L 132.749261 320.27305 
L 135.792898 319.330005 
L 138.836534 318.155939 
L 143.401989 316.068728 
L 161.663807 307.112255 
L 167.75108 303.851656 
L 175.36017 299.475324 
L 178.403807 297.60355 
L 181.447443 295.453356 
L 184.49108 292.845392 
L 187.534716 289.774737 
L 190.578352 286.299594 
L 193.621989 282.446079 
L 196.665625 278.192656 
L 199.709261 273.523554 
L 202.752898 268.45484 
L 205.796534 263.025025 
L 210.361989 254.312637 
L 216.449261 241.972593 
L 225.58017 223.247484 
L 228.623807 217.737366 
L 231.667443 212.868036 
L 234.71108 208.440157 
L 237.754716 204.261349 
L 240.798352 200.386922 
L 243.841989 196.937567 
L 248.407443 192.361241 
L 257.538352 183.460878 
L 259.06017 182.28619 
L 260.581989 181.277221 
L 262.103807 180.434813 
L 263.625625 179.759156 
L 265.147443 179.249841 
L 268.19108 178.656316 
L 272.756534 178.060103 
L 277.321989 176.982551 
L 280.365625 176.428709 
L 281.887443 176.34553 
L 284.93108 176.503246 
L 294.061989 177.576717 
L 297.105625 178.241903 
L 300.149261 179.235306 
L 303.192898 180.523557 
L 306.236534 182.105905 
L 309.28017 184.119421 
L 310.801989 185.338059 
L 313.845625 188.17754 
L 318.41108 192.54251 
L 321.454716 194.967423 
L 326.02017 198.425561 
L 329.063807 201.116251 
L 332.107443 204.162305 
L 335.15108 207.480108 
L 339.716534 212.843185 
L 344.281989 218.571411 
L 353.412898 230.522158 
L 357.978352 236.749633 
L 379.283807 266.527504 
L 394.501989 286.049086 
L 399.067443 291.502361 
L 402.11108 294.863472 
L 405.154716 297.997536 
L 408.198352 300.902035 
L 411.241989 303.57958 
L 415.807443 307.274144 
L 421.894716 311.86649 
L 426.46017 314.995381 
L 431.025625 317.764197 
L 435.59108 320.159623 
L 440.156534 322.211703 
L 444.721989 323.962726 
L 449.287443 325.447712 
L 453.852898 326.701503 
L 458.418352 327.758117 
L 464.505625 328.908768 
L 470.592898 329.81243 
L 478.201989 330.666366 
L 485.81108 331.284421 
L 494.941989 331.761604 
L 507.116534 332.148251 
L 523.856534 332.424468 
L 549.727443 332.576438 
L 609.078352 332.633943 
L 698.865625 332.638015 
L 698.865625 332.638015 
" clip-path="url(#pc884309811)" style="fill: none; stroke: #008000; stroke-width: 1.5; stroke-linecap: square"/>
   </g>
   <g id="line2d_21">
    <path d="M 29.265625 329.750974 
L 32.309261 328.465366 
L 33.83108 327.625885 
L 35.352898 326.624206 
L 36.874716 325.433324 
L 38.396534 324.02329 
L 39.918352 322.361413 
L 41.44017 320.412656 
L 42.961989 318.140302 
L 44.483807 315.50693 
L 46.005625 312.475036 
L 47.527443 309.005785 
L 49.049261 305.061026 
L 50.57108 300.605468 
L 52.092898 295.608305 
L 53.614716 290.046172 
L 55.136534 283.908566 
L 56.658352 277.199753 
L 59.701989 262.175163 
L 62.745625 245.326828 
L 65.789261 226.968243 
L 70.354716 197.356981 
L 73.398352 177.574576 
L 76.441989 159.541457 
L 79.485625 143.699529 
L 84.05108 120.897999 
L 88.616534 97.26608 
L 90.138352 89.94122 
L 93.181989 76.977909 
L 102.312898 41.446102 
L 103.834716 36.565988 
L 105.356534 32.948258 
L 106.878352 30.908625 
L 108.40017 30.238125 
L 109.921989 30.577126 
L 111.443807 31.554743 
L 114.487443 34.049972 
L 116.009261 35.488811 
L 117.53108 37.399346 
L 119.052898 40.056963 
L 120.574716 43.722207 
L 122.096534 48.528707 
L 123.618352 54.181068 
L 128.183807 72.496813 
L 129.705625 78.003352 
L 131.227443 82.980837 
L 132.749261 87.429581 
L 134.27108 91.348332 
L 135.792898 94.734591 
L 137.314716 97.633214 
L 140.358352 102.9497 
L 141.88017 105.901463 
L 143.401989 109.381967 
L 144.923807 113.578922 
L 146.445625 118.501079 
L 147.967443 124.107959 
L 149.489261 130.35111 
L 152.532898 144.508036 
L 155.576534 160.201798 
L 163.185625 200.195149 
L 166.229261 214.599207 
L 169.272898 227.527524 
L 172.316534 239.292766 
L 175.36017 250.194439 
L 178.403807 260.077436 
L 179.925625 264.512191 
L 181.447443 268.56845 
L 182.969261 272.242164 
L 184.49108 275.582082 
L 187.534716 281.466086 
L 190.578352 286.561151 
L 193.621989 291.156217 
L 198.187443 297.609411 
L 202.752898 303.777339 
L 205.796534 307.679304 
L 208.84017 311.23483 
L 211.883807 314.245546 
L 214.927443 316.68143 
L 217.97108 318.743499 
L 222.536534 321.472502 
L 225.58017 323.077329 
L 228.623807 324.48722 
L 231.667443 325.711626 
L 236.232898 327.250922 
L 240.798352 328.480144 
L 245.363807 329.439707 
L 249.929261 330.190294 
L 256.016534 330.947457 
L 262.103807 331.479047 
L 269.712898 331.919304 
L 280.365625 332.274401 
L 294.061989 332.486229 
L 318.41108 332.605026 
L 392.98017 332.638125 
L 698.865625 332.638125 
L 698.865625 332.638125 
" clip-path="url(#pc884309811)" style="fill: none; stroke: #0000ff; stroke-width: 1.5; stroke-linecap: square"/>
   </g>
   <g id="patch_3">
    <path d="M 29.265625 347.758125 
L 29.265625 15.118125 
" style="fill: none; stroke: #000000; stroke-width: 0.8; stroke-linejoin: miter; stroke-linecap: square"/>
   </g>
   <g id="patch_4">
    <path d="M 29.265625 347.758125 
L 698.865625 347.758125 
" style="fill: none; stroke: #000000; stroke-width: 0.8; stroke-linejoin: miter; stroke-linecap: square"/>
   </g>
   <g id="text_20">
    <!-- CIE 2006-XYZ Tristimulus Values -->
    <g transform="translate(267.671875 9.118125)scale(0.12 -0.12)">
     <defs>
      <path id="DejaVuSans-43" d="M 4122 4306 
L 4122 3641 
Q 3803 3938 3442 4084 
Q 3081 4231 2675 4231 
Q 1875 4231 1450 3742 
Q 1025 3253 1025 2328 
Q 1025 1406 1450 917 
Q 1875 428 2675 428 
Q 3081 428 3442 575 
Q 3803 722 4122 1019 
L 4122 359 
Q 3791 134 3420 21 
Q 3050 -91 2638 -91 
Q 1578 -91 968 557 
Q 359 1206 359 2328 
Q 359 3453 968 4101 
Q 1578 4750 2638 4750 
Q 3056 4750 3426 4639 
Q 3797 4528 4122 4306 
z
" transform="scale(0.015625)"/>
      <path id="DejaVuSans-49" d="M 628 4666 
L 1259 4666 
L 1259 0 
L 628 0 
L 628 4666 
z
" transform="scale(0.015625)"/>
      <path id="DejaVuSans-45" d="M 628 4666 
L 3578 4666 
L 3578 4134 
L 1259 4134 
L 1259 2753 
L 3481 2753 
L 3481 2222 
L 1259 2222 
L 1259 531 
L 3634 531 
L 3634 0 
L 628 0 
L 628 4666 
z
" transform="scale(0.015625)"/>
      <path id="DejaVuSans-20" transform="scale(0.015625)"/>
      <path id="DejaVuSans-2d" d="M 313 2009 
L 1997 2009 
L 1997 1497 
L 313 1497 
L 313 2009 
z
" transform="scale(0.015625)"/>
      <path id="DejaVuSans-58" d="M 403 4666 
L 1081 4666 
L 2241 2931 
L 3406 4666 
L 4084 4666 
L 2584 2425 
L 4184 0 
L 3506 0 
L 2194 1984 
L 872 0 
L 191 0 
L 1856 2491 
L 403 4666 
z
" transform="scale(0.015625)"/>
      <path id="DejaVuSans-59" d="M -13 4666 
L 666 4666 
L 1959 2747 
L 3244 4666 
L 3922 4666 
L 2272 2222 
L 2272 0 
L 1638 0 
L 1638 2222 
L -13 4666 
z
" transform="scale(0.015625)"/>
      <path id="DejaVuSans-5a" d="M 359 4666 
L 4025 4666 
L 4025 4184 
L 1075 531 
L 4097 531 
L 4097 0 
L 288 0 
L 288 481 
L 3238 4134 
L 359 4134 
L 359 4666 
z
" transform="scale(0.015625)"/>
      <path id="DejaVuSans-54" d="M -19 4666 
L 3928 4666 
L 3928 4134 
L 2272 4134 
L 2272 0 
L 1638 0 
L 1638 4134 
L -19 4134 
L -19 4666 
z
" transform="scale(0.015625)"/>
      <path id="DejaVuSans-72" d="M 2631 2963 
Q 2534 3019 2420 3045 
Q 2306 3072 2169 3072 
Q 1681 3072 1420 2755 
Q 1159 2438 1159 1844 
L 1159 0 
L 581 0 
L 581 3500 
L 1159 3500 
L 1159 2956 
Q 1341 3275 1631 3429 
Q 1922 3584 2338 3584 
Q 2397 3584 2469 3576 
Q 2541 3569 2628 3553 
L 2631 2963 
z
" transform="scale(0.015625)"/>
      <path id="DejaVuSans-69" d="M 603 3500 
L 1178 3500 
L 1178 0 
L 603 0 
L 603 3500 
z
M 603 4863 
L 1178 4863 
L 1178 4134 
L 603 4134 
L 603 4863 
z
" transform="scale(0.015625)"/>
      <path id="DejaVuSans-73" d="M 2834 3397 
L 2834 2853 
Q 2591 2978 2328 3040 
Q 2066 3103 1784 3103 
Q 1356 3103 1142 2972 
Q 928 2841 928 2578 
Q 928 2378 1081 2264 
Q 1234 2150 1697 2047 
L 1894 2003 
Q 2506 1872 2764 1633 
Q 3022 1394 3022 966 
Q 3022 478 2636 193 
Q 2250 -91 1575 -91 
Q 1294 -91 989 -36 
Q 684 19 347 128 
L 347 722 
Q 666 556 975 473 
Q 1284 391 1588 391 
Q 1994 391 2212 530 
Q 2431 669 2431 922 
Q 2431 1156 2273 1281 
Q 2116 1406 1581 1522 
L 1381 1569 
Q 847 1681 609 1914 
Q 372 2147 372 2553 
Q 372 3047 722 3315 
Q 1072 3584 1716 3584 
Q 2034 3584 2315 3537 
Q 2597 3491 2834 3397 
z
" transform="scale(0.015625)"/>
      <path id="DejaVuSans-74" d="M 1172 4494 
L 1172 3500 
L 2356 3500 
L 2356 3053 
L 1172 3053 
L 1172 1153 
Q 1172 725 1289 603 
Q 1406 481 1766 481 
L 2356 481 
L 2356 0 
L 1766 0 
Q 1100 0 847 248 
Q 594 497 594 1153 
L 594 3053 
L 172 3053 
L 172 3500 
L 594 3500 
L 594 4494 
L 1172 4494 
z
" transform="scale(0.015625)"/>
      <path id="DejaVuSans-75" d="M 544 1381 
L 544 3500 
L 1119 3500 
L 1119 1403 
Q 1119 906 1312 657 
Q 1506 409 1894 409 
Q 2359 409 2629 706 
Q 2900 1003 2900 1516 
L 2900 3500 
L 3475 3500 
L 3475 0 
L 2900 0 
L 2900 538 
Q 2691 219 2414 64 
Q 2138 -91 1772 -91 
Q 1169 -91 856 284 
Q 544 659 544 1381 
z
M 1991 3584 
L 1991 3584 
z
" transform="scale(0.015625)"/>
      <path id="DejaVuSans-6c" d="M 603 4863 
L 1178 4863 
L 1178 0 
L 603 0 
L 603 4863 
z
" transform="scale(0.015625)"/>
      <path id="DejaVuSans-56" d="M 1831 0 
L 50 4666 
L 709 4666 
L 2188 738 
L 3669 4666 
L 4325 4666 
L 2547 0 
L 1831 0 
z
" transform="scale(0.015625)"/>
      <path id="DejaVuSans-61" d="M 2194 1759 
Q 1497 1759 1228 1600 
Q 959 1441 959 1056 
Q 959 750 1161 570 
Q 1363 391 1709 391 
Q 2188 391 2477 730 
Q 2766 1069 2766 1631 
L 2766 1759 
L 2194 1759 
z
M 3341 1997 
L 3341 0 
L 2766 0 
L 2766 531 
Q 2569 213 2275 61 
Q 1981 -91 1556 -91 
Q 1019 -91 701 211 
Q 384 513 384 1019 
Q 384 1609 779 1909 
Q 1175 2209 1959 2209 
L 2766 2209 
L 2766 2266 
Q 2766 2663 2505 2880 
Q 2244 3097 1772 3097 
Q 1472 3097 1187 3025 
Q 903 2953 641 2809 
L 641 3341 
Q 956 3463 1253 3523 
Q 1550 3584 1831 3584 
Q 2591 3584 2966 3190 
Q 3341 2797 3341 1997 
z
" transform="scale(0.015625)"/>
      <path id="DejaVuSans-65" d="M 3597 1894 
L 3597 1613 
L 953 1613 
Q 991 1019 1311 708 
Q 1631 397 2203 397 
Q 2534 397 2845 478 
Q 3156 559 3463 722 
L 3463 178 
Q 3153 47 2828 -22 
Q 2503 -91 2169 -91 
Q 1331 -91 842 396 
Q 353 884 353 1716 
Q 353 2575 817 3079 
Q 1281 3584 2069 3584 
Q 2775 3584 3186 3129 
Q 3597 2675 3597 1894 
z
M 3022 2063 
Q 3016 2534 2758 2815 
Q 2500 3097 2075 3097 
Q 1594 3097 1305 2825 
Q 1016 2553 972 2059 
L 3022 2063 
z
" transform="scale(0.015625)"/>
     </defs>
     <use xlink:href="#DejaVuSans-43"/>
     <use xlink:href="#DejaVuSans-49" x="69.824219"/>
     <use xlink:href="#DejaVuSans-45" x="99.316406"/>
     <use xlink:href="#DejaVuSans-20" x="162.5"/>
     <use xlink:href="#DejaVuSans-32" x="194.287109"/>
     <use xlink:href="#DejaVuSans-30" x="257.910156"/>
     <use xlink:href="#DejaVuSans-30" x="321.533203"/>
     <use xlink:href="#DejaVuSans-36" x="385.15625"/>
     <use xlink:href="#DejaVuSans-2d" x="448.779297"/>
     <use xlink:href="#DejaVuSans-58" x="479.863281"/>
     <use xlink:href="#DejaVuSans-59" x="548.369141"/>
     <use xlink:href="#DejaVuSans-5a" x="609.453125"/>
     <use xlink:href="#DejaVuSans-20" x="677.958984"/>
     <use xlink:href="#DejaVuSans-54" x="709.746094"/>
     <use xlink:href="#DejaVuSans-72" x="756.080078"/>
     <use xlink:href="#DejaVuSans-69" x="797.193359"/>
     <use xlink:href="#DejaVuSans-73" x="824.976562"/>
     <use xlink:href="#DejaVuSans-74" x="877.076172"/>
     <use xlink:href="#DejaVuSans-69" x="916.285156"/>
     <use xlink:href="#DejaVuSans-6d" x="944.068359"/>
     <use xlink:href="#DejaVuSans-75" x="1041.480469"/>
     <use xlink:href="#DejaVuSans-6c" x="1104.859375"/>
     <use xlink:href="#DejaVuSans-75" x="1132.642578"/>
     <use xlink:href="#DejaVuSans-73" x="1196.021484"/>
     <use xlink:href="#DejaVuSans-20" x="1248.121094"/>
     <use xlink:href="#DejaVuSans-56" x="1279.908203"/>
     <use xlink:href="#DejaVuSans-61" x="1340.566406"/>
     <use xlink:href="#DejaVuSans-6c" x="1401.845703"/>
     <use xlink:href="#DejaVuSans-75" x="1429.628906"/>
     <use xlink:href="#DejaVuSans-65" x="1493.007812"/>
     <use xlink:href="#DejaVuSans-73" x="1554.53125"/>
    </g>
   </g>
   <g id="legend_1">
    <g id="line2d_22">
     <path d="M 642.165625 28.216562 
L 652.165625 28.216562 
L 662.165625 28.216562 
" style="fill: none; stroke: #ff0000; stroke-width: 1.5; stroke-linecap: square"/>
    </g>
    <g id="text_21">
     <!-- $\overline{x}(\lambda)$ -->
     <g transform="translate(670.165625 31.716562)scale(0.1 -0.1)">
      <defs>
       <path id="DejaVuSans-Oblique-78" d="M 3841 3500 
L 2234 1784 
L 3219 0 
L 2559 0 
L 1819 1388 
L 531 0 
L -166 0 
L 1556 1844 
L 641 3500 
L 1300 3500 
L 1972 2234 
L 3144 3500 
L 3841 3500 
z
" transform="scale(0.015625)"/>
       <path id="DejaVuSans-28" d="M 1984 4856 
Q 1566 4138 1362 3434 
Q 1159 2731 1159 2009 
Q 1159 1288 1364 580 
Q 1569 -128 1984 -844 
L 1484 -844 
Q 1016 -109 783 600 
Q 550 1309 550 2009 
Q 550 2706 781 3412 
Q 1013 4119 1484 4856 
L 1984 4856 
z
" transform="scale(0.015625)"/>
       <path id="DejaVuSans-29" d="M 513 4856 
L 1013 4856 
Q 1481 4119 1714 3412 
Q 1947 2706 1947 2009 
Q 1947 1309 1714 600 
Q 1481 -109 1013 -844 
L 513 -844 
Q 928 -128 1133 580 
Q 1338 1288 1338 2009 
Q 1338 2731 1133 3434 
Q 928 4138 513 4856 
z
" transform="scale(0.015625)"/>
      </defs>
      <use xlink:href="#DejaVuSans-Oblique-78" transform="translate(0 1.0625)"/>
      <use xlink:href="#DejaVuSans-28" transform="translate(59.179688 0.5625)"/>
      <use xlink:href="#DejaVuSans-Oblique-3bb" transform="translate(98.193359 0.5625)"/>
      <use xlink:href="#DejaVuSans-29" transform="translate(157.373047 0.5625)"/>
      <path d="M 0 67.5 
L 0 73.75 
L 59.179688 73.75 
L 59.179688 67.5 
L 0 67.5 
z
"/>
     </g>
    </g>
    <g id="line2d_23">
     <path d="M 642.165625 43.29625 
L 652.165625 43.29625 
L 662.165625 43.29625 
" style="fill: none; stroke: #008000; stroke-width: 1.5; stroke-linecap: square"/>
    </g>
    <g id="text_22">
     <!-- $\overline{y}(\lambda)$ -->
     <g transform="translate(670.165625 46.79625)scale(0.1 -0.1)">
      <defs>
       <path id="DejaVuSans-Oblique-79" d="M 1588 -325 
Q 1188 -997 936 -1164 
Q 684 -1331 294 -1331 
L -159 -1331 
L -63 -850 
L 269 -850 
Q 509 -850 678 -719 
Q 847 -588 1056 -206 
L 1234 128 
L 459 3500 
L 1069 3500 
L 1650 819 
L 3256 3500 
L 3859 3500 
L 1588 -325 
z
" transform="scale(0.015625)"/>
      </defs>
      <use xlink:href="#DejaVuSans-Oblique-79" transform="translate(0 1.0625)"/>
      <use xlink:href="#DejaVuSans-28" transform="translate(59.179688 0.5625)"/>
      <use xlink:href="#DejaVuSans-Oblique-3bb" transform="translate(98.193359 0.5625)"/>
      <use xlink:href="#DejaVuSans-29" transform="translate(157.373047 0.5625)"/>
      <path d="M 0 67.5 
L 0 73.75 
L 59.179688 73.75 
L 59.179688 67.5 
L 0 67.5 
z
"/>
     </g>
    </g>
    <g id="line2d_24">
     <path d="M 642.165625 57.994687 
L 652.165625 57.994687 
L 662.165625 57.994687 
" style="fill: none; stroke: #0000ff; stroke-width: 1.5; stroke-linecap: square"/>
    </g>
    <g id="text_23">
     <!-- $\overline{z}(\lambda)$ -->
     <g transform="translate(670.165625 61.494687)scale(0.1 -0.1)">
      <defs>
       <path id="DejaVuSans-Oblique-7a" d="M 744 3500 
L 3475 3500 
L 3372 2975 
L 738 459 
L 2913 459 
L 2822 0 
L -19 0 
L 84 525 
L 2719 3041 
L 653 3041 
L 744 3500 
z
" transform="scale(0.015625)"/>
      </defs>
      <use xlink:href="#DejaVuSans-Oblique-7a" transform="translate(0 1.0625)"/>
      <use xlink:href="#DejaVuSans-28" transform="translate(52.490234 0.5625)"/>
      <use xlink:href="#DejaVuSans-Oblique-3bb" transform="translate(91.503906 0.5625)"/>
      <use xlink:href="#DejaVuSans-29" transform="translate(150.683594 0.5625)"/>
      <path d="M 0 67.5 
L 0 73.75 
L 52.490234 73.75 
L 52.490234 67.5 
L 0 67.5 
z
"/>
     </g>
    </g>
   </g>
  </g>
 </g>
 <defs>
  <clipPath id="pc884309811">
   <rect x="29.265625" y="15.118125" width="669.6" height="332.64"/>
  </clipPath>
 </defs>
</svg>
